<?xml version="1.0" encoding="UTF-8"?>
<svg width="43px" height="52px" viewBox="0 0 43 52" version="1.1" xmlns="http://www.w3.org/2000/svg" xmlns:xlink="http://www.w3.org/1999/xlink">
    <!-- Generator: Sketch 46.2 (44496) - http://www.bohemiancoding.com/sketch -->
    <title>ui/icn-award</title>
    <desc>Created with Sketch.</desc>
    <defs></defs>
    <g id="ui/icon" stroke="none" stroke-width="1" fill="" fill-rule="evenodd">
        <g id="ui/icn-award" fill-rule="nonzero">
            <g id="quality" transform="translate(1.000000, 2.000000)">
                <path d="M40.3476393,43.2180072 L33.9200689,27.7006459 C33.7563401,27.3054241 33.3031676,27.1175233 32.9078425,27.2813554 C32.5125174,27.4451876 32.32472,27.89836 32.4885521,28.2935818 L38.2992212,42.3216822 L32.9990555,40.7859368 C32.6511446,40.6850137 32.2795783,40.8389291 32.1048998,41.1563668 L29.4429892,45.9900345 L23.2081746,30.937725 C30.4042892,29.5500069 35.8568209,23.2054888 35.8568209,15.6104337 C35.8569242,7.00284227 28.8541852,-8.52651283e-14 20.2465938,-8.52651283e-14 C11.6390024,-8.52651283e-14 4.63616008,7.00284227 4.63616008,15.6104337 C4.63616008,19.0968765 5.78525757,22.3198037 7.72438542,24.9210778 L0.145548218,43.2180072 C0.031609478,43.4931956 0.0854282299,43.8092904 0.284072107,44.0311765 C0.482612684,44.2530627 0.790960044,44.3414866 1.07699483,44.2586408 L7.32999004,42.446674 L10.4702781,48.149499 C10.6070459,48.3977263 10.8676691,48.5505055 11.1487455,48.5505055 C11.1630008,48.5505055 11.1773594,48.5500923 11.1917179,48.5493692 C11.4891156,48.5328414 11.7506685,48.3474198 11.8647106,48.0722314 L17.8700982,33.5739141 C18.033827,33.1785891 17.8461328,32.7254166 17.4508078,32.5616877 C17.0554827,32.3979589 16.6023102,32.5856531 16.4385814,32.9809782 L11.0499918,45.9900345 L8.38828776,41.1563668 C8.21350594,40.8389291 7.84173303,40.6850137 7.49402877,40.7859368 L2.19396635,42.3216822 L8.8461087,26.2618981 C11.6969531,29.3112831 15.7526764,31.2207641 20.2465938,31.2207641 C20.7105094,31.2207641 21.1693633,31.1991746 21.6230523,31.1594045 L28.6285803,48.0722314 C28.742519,48.3474198 29.0041753,48.5328414 29.3014697,48.5492659 C29.3159315,48.5500923 29.3301868,48.5505055 29.3445453,48.5505055 C29.6256217,48.5505055 29.886245,48.3977263 30.0229095,48.149499 L33.1633008,42.446674 L39.416296,44.2586408 C39.7025374,44.3415899 40.0105749,44.2530627 40.2092188,44.0311765 C40.4078626,43.8092904 40.4615781,43.4931956 40.3476393,43.2180072 Z M6.1856443,15.6104337 C6.1856443,7.85722787 12.4933879,1.54948422 20.2465938,1.54948422 C27.9997996,1.54948422 34.30744,7.85722787 34.30744,15.6104337 C34.30744,23.3636395 27.9997996,29.6712799 20.2465938,29.6712799 C12.4933879,29.6712799 6.1856443,23.3636395 6.1856443,15.6104337 Z" id="Shape"></path>
                <path d="M29.1983773,12.7017419 C29.1092303,12.4271733 28.8745351,12.224914 28.5897399,12.1770866 L23.3765519,11.3022478 L20.9336351,6.61464483 C20.8001728,6.35856674 20.5354176,6.19793687 20.2465938,6.19793687 C19.9578732,6.19793687 19.6930147,6.35856674 19.5595525,6.61464483 L17.1165324,11.3022478 L11.9034477,12.1770866 C11.6186525,12.2248107 11.3840605,12.42707 11.2948103,12.7017419 C11.20556,12.9764138 11.276423,13.2778402 11.4787857,13.4839216 L15.182053,17.2558826 L14.4031789,22.4842556 C14.3606197,22.7698772 14.4804465,23.0553955 14.7141087,23.2252189 C14.9475644,23.3948358 15.2563249,23.4205573 15.5147789,23.2919501 L20.2465938,20.9354945 L24.9783054,23.2919501 C25.087699,23.3463886 25.205873,23.3732463 25.3236338,23.3732463 C25.4844702,23.3732463 25.6442737,23.3232496 25.7790788,23.2253222 C26.012741,23.0554988 26.1325678,22.7699805 26.0900087,22.4843589 L25.3112379,17.2559859 L29.0145052,13.4839216 C29.2167645,13.2778402 29.2876276,12.9764138 29.1983773,12.7017419 Z M23.9351926,16.445709 C23.7649559,16.6191479 23.6859322,16.8623136 23.721777,17.102587 L24.3384717,21.242189 L20.5920255,19.3765067 C20.4831484,19.3223781 20.3649744,19.2952105 20.2465938,19.2952105 C20.1283165,19.2952105 20.0099359,19.3222748 19.9012654,19.3765067 L16.1548192,21.242189 L16.7715139,17.102587 C16.8073586,16.8623136 16.7283349,16.6190446 16.5580982,16.445709 L13.6259576,13.4591298 L17.7534737,12.7664071 C17.9931272,12.7262238 18.200035,12.5759238 18.312321,12.3604422 L20.2465938,8.64901431 L22.1808666,12.3605455 C22.2932558,12.5760271 22.5000603,12.7263271 22.7397139,12.7665104 L26.8673332,13.4592331 L23.9351926,16.445709 L23.9351926,16.445709 Z" id="Shape"></path>
                <path d="M31.9825938,16.3918902 C31.5583451,16.3351791 31.168908,16.6339197 31.1128167,17.0581685 C30.3941659,22.4820863 25.7226776,26.5724147 20.2465938,26.5724147 C14.2021591,26.5724147 9.28461273,21.6549716 9.28461273,15.6104337 C9.28461273,9.56589577 14.2021591,4.64845265 20.2465938,4.64845265 C25.7227809,4.64845265 30.3941659,8.73867779 31.1128167,14.1626989 C31.168908,14.5869477 31.5590682,14.8858949 31.9825938,14.8289772 C32.406636,14.7727825 32.7050667,14.3833455 32.6487688,13.9592 C31.8285751,7.76787428 26.4967999,3.09896844 20.2465938,3.09896844 C13.3477735,3.09896844 7.73512851,8.71151017 7.73512851,15.6104337 C7.73512851,22.5093572 13.3477735,28.1217957 20.2465938,28.1217957 C26.4967999,28.1217957 31.8285751,23.4528898 32.6488721,17.2615641 C32.7050667,16.8375219 32.4067393,16.4480849 31.9825938,16.3918902 L31.9825938,16.3918902 Z" id="Shape"></path>
            </g>
        </g>
    </g>
</svg>
