<?xml version="1.0" encoding="UTF-8" standalone="no"?><!DOCTYPE svg PUBLIC "-//W3C//DTD SVG 1.1//EN" "http://www.w3.org/Graphics/SVG/1.1/DTD/svg11.dtd"><svg width="100%" height="100%" viewBox="0 0 60 60" version="1.1" xmlns="http://www.w3.org/2000/svg" xmlns:xlink="http://www.w3.org/1999/xlink" xml:space="preserve" style="fill-rule:evenodd;clip-rule:evenodd;stroke-linejoin:round;stroke-miterlimit:1.41421;"><g id="Page.-1"><path id="Fill.-1" d="M52.071,50.473c-0.819,0.953 -2.141,1.436 -3.932,1.436l-33.205,0l0.003,-0.004c2.023,-2.012 2.018,-5.616 2.015,-8.511l0.096,-36.482l35.979,0l0,39.658l0.009,0.112c0.004,0.022 0.343,2.268 -0.965,3.791m-41.036,1.436c-1.549,0 -3.108,-0.96 -3.881,-2.389c-0.757,-1.4 -0.729,-3.125 -0.701,-4.793c0.005,-0.311 0.01,-0.619 0.01,-0.92l0,-14.71l9.082,0l-0.036,13.704l0,0.594c0.004,2.631 0.007,5.905 -1.593,7.497c-0.687,0.685 -1.629,1.017 -2.881,1.017m43.434,-5.389l0,-41.042l-38.859,0l-0.06,22.185l-10.53,0l0,16.144c0,0.294 -0.005,0.594 -0.01,0.897c-0.029,1.765 -0.062,3.766 0.874,5.495c1.032,1.91 3.054,3.144 5.151,3.144l37.104,0c2.232,0 3.924,-0.652 5.028,-1.939c1.616,-1.88 1.361,-4.443 1.302,-4.884"/><path id="Fill.-4" d="M24.37,43.588l-1.859,-1.965l-1.051,0.983l2.927,3.092l6.544,-7.133l-1.066,-0.966l-5.495,5.989Z"/><path id="Fill.-6" d="M33.516,42.08l14.141,0l0,-1.434l-14.141,0l0,1.434Z"/><path id="Fill.-8" d="M24.37,30.938l-1.859,-1.965l-1.051,0.983l2.927,3.092l6.544,-7.133l-1.066,-0.966l-5.495,5.989Z"/><path id="Fill.-9" d="M33.516,29.429l14.141,0l0,-1.434l-14.141,0l0,1.434Z"/><path id="Fill.-10" d="M24.37,18.287l-1.859,-1.965l-1.051,0.982l2.927,3.092l6.544,-7.132l-1.066,-0.966l-5.495,5.989Z"/><path id="Fill.-11" d="M33.516,16.778l14.141,0l0,-1.434l-14.141,0l0,1.434Z"/></g></svg>
