<?xml version="1.0" encoding="UTF-8"?>
<svg width="100px" height="100px" viewBox="0 0 100 100" version="1.1" xmlns="http://www.w3.org/2000/svg" xmlns:xlink="http://www.w3.org/1999/xlink">
    <!-- Generator: Sketch 45.2 (43514) - http://www.bohemiancoding.com/sketch -->
    <title>ui/icn-checkin</title>
    <desc>Created with Sketch.</desc>
    <defs></defs>
    <g id="Page-1" stroke="none" stroke-width="1" fill-rule="evenodd">
        <g id="ui/icn-checkin" fill-rule="nonzero">
            <g id="Group-25" transform="translate(3.000000, 3.000000)">
                <g id="placeholder-copy" transform="translate(28.380048, 19.920032)">
                    <path d="M32.1435764,5.81910472 C28.6794634,2.38546786 24.0733983,0.494218406 19.1746721,0.494218406 C14.2749895,0.494218406 9.66988077,2.38546786 6.20576785,5.81910472 C-0.205040801,12.1725653 -1.00172939,24.1267786 4.48040625,31.3694583 L19.1746721,52.403565 L33.8469406,31.3988461 C39.3510736,24.1267786 38.554385,12.1725653 32.1435764,5.81910472 Z M19.3439565,25.142081 C15.6531747,25.142081 12.6490944,22.1644296 12.6490944,18.506118 C12.6490944,14.8478064 15.6531747,11.870155 19.3439565,11.870155 C23.0347383,11.870155 26.0388186,14.8478064 26.0388186,18.506118 C26.0388186,22.1644296 23.0347383,25.142081 19.3439565,25.142081 Z" id="Shape"></path>
                </g>
                <path d="M47.1224443,93.2908287 C21.6246153,93.2908287 0.954545455,72.6206451 0.954545455,47.1226871 C0.954545455,21.6247291 21.6246153,0.954545455 47.1224443,0.954545455 C72.6202733,0.954545455 93.2903432,21.6247291 93.2903432,47.1226871 C93.2903432,72.6206451 72.6202733,93.2908287 47.1224443,93.2908287 Z M47.1224443,89.1999196 C70.3609216,89.1999196 89.1994341,70.3613034 89.1994341,47.1226871 C89.1994341,23.8840707 70.3609216,5.04545455 47.1224443,5.04545455 C23.8839671,5.04545455 5.04545455,23.8840707 5.04545455,47.1226871 C5.04545455,70.3613034 23.8839671,89.1999196 47.1224443,89.1999196 Z" id="Oval-4"></path>
            </g>
        </g>
    </g>
</svg>