<?xml version="1.0" encoding="UTF-8"?>
<svg width="22px" height="30px" viewBox="0 0 22 30" version="1.1" xmlns="http://www.w3.org/2000/svg" xmlns:xlink="http://www.w3.org/1999/xlink">
    <!-- Generator: Sketch 46.1 (44463) - http://www.bohemiancoding.com/sketch -->
    <title>ui/icn-rate-down</title>
    <desc>Created with Sketch.</desc>
    <defs></defs>
    <g id="Symbols" stroke="none" stroke-width="1" fill-rule="evenodd">
        <g id="ui/icn-rate-down" fill-rule="nonzero">
            <g id="Shape">
                <path d="M18.8059091,18.0736364 C19.4113636,17.4681818 20.3645455,17.4681818 20.97,18.0736364 C21.555,18.6790909 21.555,19.6322727 20.97,20.2377273 L11.9018182,29.3072727 C11.6209091,29.5881818 11.2309091,29.7613636 10.7986364,29.7613636 C10.3663636,29.7613636 9.97636364,29.5881818 9.69409091,29.3072727 L0.625909091,20.2377273 C0.0204545455,19.6322727 0.0204545455,18.6790909 0.625909091,18.0736364 C1.23136364,17.4681818 2.18454545,17.4681818 2.79,18.0736364 L9.26181818,24.5672727 L9.26181818,1.515 C9.26045455,0.670909091 9.95318182,0 10.7972727,0 C11.6413636,0 12.3122727,0.670909091 12.3122727,1.515 L12.3122727,24.5659091 L18.8059091,18.0736364 Z"></path>
            </g>
        </g>
    </g>
</svg>
