<?xml version="1.0" encoding="UTF-8"?>
<svg width="100px" height="100px" viewBox="0 0 100 100" version="1.1" xmlns="http://www.w3.org/2000/svg" xmlns:xlink="http://www.w3.org/1999/xlink">
    <!-- Generator: Sketch 45.2 (43514) - http://www.bohemiancoding.com/sketch -->
    <title>ui/icn-trustworthy</title>
    <desc>Created with Sketch.</desc>
    <defs></defs>
    <g id="ui/icon" stroke="none" stroke-width="1" fill="none" fill-rule="evenodd">
        <g id="ui/icn-trustworthy" stroke="#4286C6">
            <g transform="translate(6.000000, 7.000000)">
                <path d="M16.3109556,42.1919192 L30.9123997,42.1919192" id="Line-4-Copy" fill="#D8D8D8" stroke-linecap="square"></path>
                <path d="M57.5230768,42.1919192 L72.1245209,42.1919192" id="Line-4-Copy-4" fill="#D8D8D8" stroke-linecap="square"></path>
                <path d="M44.2121212,29.7226562 L44.2121212,16.2785793" id="Line-4-Copy-5" fill="#D8D8D8" stroke-linecap="square"></path>
                <path d="M44.2121212,69.3186158 L44.2121212,55.8745389" id="Line-4-Copy-6" fill="#D8D8D8" stroke-linecap="square"></path>
                <g id="heart" transform="translate(31.282828, 29.666667)">
                    <circle id="Oval" cx="12.9292929" cy="12.9292929" r="12.9292929"></circle>
                    <path d="M19.9364467,12.7198105 C18.9425929,17.1539273 13.5528474,19.6958995 12.8647948,20.0208132 C12.1767422,19.715012 6.78699673,17.1730399 5.79314295,12.7198105 C5.2006532,10.0440503 6.63409615,8.13279304 8.2013271,7.52119072 C8.60269112,7.36829014 9.02316772,7.27272727 9.48186946,7.27272727 C10.5903987,7.27272727 11.7944907,7.80787931 12.6927817,9.33688511 C12.769232,9.45156055 12.9603577,9.45156055 13.0176954,9.33688511 C14.2982378,7.19627698 16.1712699,7.00515126 17.50915,7.52119072 C19.0954935,8.13279304 20.5289364,10.0440503 19.9364467,12.7198105 Z" id="Shape" fill-rule="nonzero"></path>
                </g>
                <g id="Group-3-Copy" transform="translate(35.747475, 0.000000)">
                    <circle id="Oval-3" cx="8" cy="7" r="3"></circle>
                    <circle id="Oval-2" cx="8" cy="8" r="8"></circle>
                    <path d="M3,13.6616918 C4.18227128,11.2205639 5.98249478,10 8.4006705,10 C10.8188462,10 12.6089989,11.2205639 13.7711284,13.6616918" id="Path-2"></path>
                </g>
                <g id="Group-3-Copy-2" transform="translate(0.000000, 34.323232)">
                    <circle id="Oval-3" cx="8" cy="7" r="3"></circle>
                    <circle id="Oval-2" cx="8" cy="8" r="8"></circle>
                    <path d="M3,13.6616918 C4.18227128,11.2205639 5.98249478,10 8.4006705,10 C10.8188462,10 12.6089989,11.2205639 13.7711284,13.6616918" id="Path-2"></path>
                </g>
                <g id="Group-3-Copy-4" transform="translate(72.494949, 34.323232)">
                    <circle id="Oval-3" cx="7.95648796" cy="6.96192696" r="2.98368298"></circle>
                    <circle id="Oval-2" cx="7.95648796" cy="7.95648796" r="7.95648796"></circle>
                    <path d="M2.98368298,13.5873858 C4.15952389,11.1595352 5.94995596,9.94560995 8.3549792,9.94560995 C10.7600024,9.94560995 12.5404184,11.1595352 13.6962272,13.5873858" id="Path-2"></path>
                </g>
                <g id="Group-3-Copy-3" transform="translate(35.747475, 70.070707)">
                    <circle id="Oval-3" cx="8" cy="7" r="3"></circle>
                    <circle id="Oval-2" cx="8" cy="8" r="8"></circle>
                    <path d="M3,13.6616918 C4.18227128,11.2205639 5.98249478,10 8.4006705,10 C10.8188462,10 12.6089989,11.2205639 13.7711284,13.6616918" id="Path-2"></path>
                </g>
            </g>
        </g>
    </g>
</svg>