<?xml version="1.0" encoding="UTF-8"?>
<svg width="21px" height="20px" viewBox="0 0 21 20" version="1.1" xmlns="http://www.w3.org/2000/svg" xmlns:xlink="http://www.w3.org/1999/xlink">
    <!-- Generator: Sketch 46.2 (44496) - http://www.bohemiancoding.com/sketch -->
    <title>download copy</title>
    <desc>Created with Sketch.</desc>
    <defs></defs>
    <g id="4_Forex-Research" stroke="none" stroke-width="1" fill-rule="evenodd">
        <g id="4.2.0-bimonthly" transform="translate(-848.000000, -1683.000000)" fill-rule="nonzero">
            <g id="Group-8-Copy-4" transform="translate(759.000000, 1681.000000)">
                <g id="download-copy" transform="translate(89.000000, 2.000000)">
                    <path d="M20.3983447,9.685031 C20.0640917,9.685031 19.7966893,9.940124 19.7966893,10.2589903 L19.7966893,15.4798937 C19.7966893,16.8999114 18.5844652,18.0520815 17.100382,18.0520815 L3.899618,18.0520815 C2.4110781,18.0520815 1.2033107,16.8956599 1.2033107,15.4798937 L1.2033107,10.1739593 C1.2033107,9.855093 0.935908319,9.6 0.601655348,9.6 C0.267402377,9.6 0,9.855093 0,10.1739593 L0,15.4798937 C0,17.5333924 1.75148557,19.2 3.899618,19.2 L17.100382,19.2 C19.2529711,19.2 21,17.5291408 21,15.4798937 L21,10.2589903 C21,9.94437555 20.7325976,9.685031 20.3983447,9.685031 Z" id="Shape"></path>
                    <path d="M10.0718601,14.2272864 C10.1896552,14.3395502 10.3482255,14.4 10.5022653,14.4 C10.6563051,14.4 10.8148754,14.3438681 10.9326705,14.2272864 L14.8199094,10.5225787 C15.0600302,10.2937331 15.0600302,9.92671664 14.8199094,9.69787106 C14.5797886,9.46902549 14.1946892,9.46902549 13.9545683,9.69787106 L11.1138938,12.4094753 L11.1138938,0.582908546 C11.1138938,0.259070465 10.8420589,0 10.5022653,0 C10.1624717,0 9.8906368,0.259070465 9.8906368,0.582908546 L9.8906368,12.4094753 L7.04543166,9.69787106 C6.80531085,9.46902549 6.42021143,9.46902549 6.18009061,9.69787106 C5.9399698,9.92671664 5.9399698,10.2937331 6.18009061,10.5225787 L10.0718601,14.2272864 Z" id="Shape"></path>
                </g>
            </g>
        </g>
    </g>
</svg>
