<?xml version="1.0" encoding="UTF-8"?>
<svg width="100px" height="100px" viewBox="0 0 100 100" version="1.1" xmlns="http://www.w3.org/2000/svg" xmlns:xlink="http://www.w3.org/1999/xlink">
    <!-- Generator: Sketch 45.2 (43514) - http://www.bohemiancoding.com/sketch -->
    <title>ui/icn-payclick</title>
    <desc>Created with Sketch.</desc>
    <defs></defs>
    <g id="Page-1" stroke="none" stroke-width="1" fill-rule="evenodd">
        <g id="ui/icn-payclick" fill-rule="nonzero" >
            <g id="Icons-/-Glyph-/-payperclick" transform="translate(5.000000, 5.000000)">
                <path d="M68.6968342,20.9078082 C57.1677619,20.9078082 47.789026,30.2863692 47.789026,41.8156165 C47.789026,53.3448638 57.1677619,62.7232497 68.6968342,62.7232497 C80.2259066,62.7232497 89.6046425,53.3446888 89.6046425,41.8154415 C89.6046425,30.2861942 80.2260816,20.9078082 68.6968342,20.9078082 Z M68.6968342,59.73637 C58.8149472,59.73637 50.7759057,51.6973285 50.7759057,41.8154415 C50.7759057,31.9335545 58.8149472,23.894513 68.6968342,23.894513 C78.5787212,23.894513 86.6177627,31.9335545 86.6177627,41.8154415 C86.6177627,51.6973285 78.5787212,59.73637 68.6968342,59.73637 Z" id="Shape"></path>
                <path d="M68.6968342,34.3485046 C70.3440196,34.3485046 71.683714,35.688024 71.683714,37.3353844 C71.683714,38.1596771 72.3527737,38.8287367 73.1770664,38.8287367 C74.0013591,38.8287367 74.6704187,38.1596771 74.6704187,37.3353844 C74.6704187,34.5606156 72.7587947,32.2413955 70.1901866,31.5737359 L70.1901866,31.3616249 C70.1901866,30.5373322 69.5211269,29.8682725 68.6968342,29.8682725 C67.8725415,29.8682725 67.2034819,30.5373322 67.2034819,31.3616249 L67.2034819,31.5737359 C64.6348738,32.2412204 62.7232497,34.5606156 62.7232497,37.3353844 C62.7232497,40.6299301 65.4024636,43.3089689 68.6968342,43.3089689 C70.3440196,43.3089689 71.683714,44.6484883 71.683714,46.2958486 C71.683714,47.943034 70.3441946,49.2827284 68.6968342,49.2827284 C67.0496489,49.2827284 65.7099545,47.943209 65.7099545,46.2958486 C65.7099545,45.4715559 65.0408948,44.8024963 64.2166021,44.8024963 C63.3923094,44.8024963 62.7232497,45.4715559 62.7232497,46.2958486 C62.7232497,49.0706174 64.6348738,51.3898375 67.2034819,52.0574971 L67.2034819,52.2696081 C67.2034819,53.0939008 67.8725415,53.7629605 68.6968342,53.7629605 C69.5211269,53.7629605 70.1901866,53.0939008 70.1901866,52.2696081 L70.1901866,52.0574971 C72.7587947,51.3900126 74.6704187,49.0706174 74.6704187,46.2958486 C74.6704187,43.0013029 71.9912049,40.3222641 68.6968342,40.3222641 C67.0496489,40.3222641 65.7099545,38.9827447 65.7099545,37.3353844 C65.7101295,35.688024 67.0496489,34.3485046 68.6968342,34.3485046 Z" id="Shape"></path>
                <path d="M20.9078082,17.9209285 C21.732101,17.9209285 22.4011606,17.2518688 22.4011606,16.4275761 L22.4011606,10.4538166 C22.4011606,6.3365533 25.7508342,2.98670474 29.8682725,2.98670474 L59.736545,2.98670474 C63.8538083,2.98670474 67.2036569,6.33637829 67.2036569,10.4538166 L67.2036569,16.4274011 C67.2036569,17.2516938 67.8727165,17.9207535 68.6970092,17.9207535 C69.521302,17.9207535 70.1903616,17.2516938 70.1903616,16.4274011 L70.1903616,10.4538166 C70.1903616,4.68936796 65.5009937,0 59.73637,0 L29.8682725,0 C24.1036488,0 19.4144559,4.68936796 19.4144559,10.4538166 L19.4144559,16.4274011 C19.4142809,17.2518688 20.0833405,17.9209285 20.9078082,17.9209285 Z" id="Shape"></path>
                <path d="M20.9078082,20.9078082 C9.37856091,20.9078082 0,30.2863692 0,41.8154415 L0,68.6968342 C0,80.2260816 9.37856091,89.6046425 20.9078082,89.6046425 C32.4370556,89.6046425 41.8156165,80.2260816 41.8156165,68.6968342 L41.8156165,55.2561379 C41.8156165,54.4318452 41.1465568,53.7627855 40.3222641,53.7627855 C39.4979714,53.7627855 38.8289118,54.4318452 38.8289118,55.2561379 L38.8289118,68.6968342 C38.8289118,78.5787212 30.7898702,86.6177627 20.9079833,86.6177627 C11.0260963,86.6177627 2.98705476,78.5787212 2.98705476,68.6968342 L2.98705476,41.8154415 C2.98705476,32.4382807 10.2315551,24.7338565 19.4146309,23.9706419 L19.4146309,47.789026 L7.46711188,47.789026 C6.64281917,47.789026 5.97375951,48.4580857 5.97375951,49.2823784 C5.97375951,50.1066711 6.64281917,50.7757307 7.46711188,50.7757307 L40.3220891,50.7757307 C41.1463818,50.7757307 41.8154415,50.1066711 41.8154415,49.2823784 L41.8154415,41.8152665 C41.8154415,30.2863692 32.4368806,20.9078082 20.9078082,20.9078082 Z M38.8287367,47.789201 L22.4011606,47.789201 L22.4011606,23.9708169 C31.5840614,24.7340315 38.8287367,32.4384557 38.8287367,41.8156165 L38.8287367,47.789201 L38.8287367,47.789201 Z" id="Shape"></path>
            </g>
        </g>
    </g>
</svg>