<?xml version="1.0" encoding="UTF-8"?>
<svg width="22px" height="22px" viewBox="0 0 22 22" version="1.1" xmlns="http://www.w3.org/2000/svg" xmlns:xlink="http://www.w3.org/1999/xlink">
    <!-- Generator: Sketch 46.2 (44496) - http://www.bohemiancoding.com/sketch -->
    <title>ui/icn-share</title>
    <desc>Created with Sketch.</desc>
    <defs></defs>
    <g id="Exportable" stroke="none" stroke-width="1" fill="none" fill-rule="evenodd">
        <g id="ui/icn-share" fill-rule="nonzero" fill="#1C68A5">
            <g id="Group-10" transform="translate(1.000000, 0.000000)">
                <path d="M16.6791915,13.8983618 C15.4230371,13.8983618 14.3029282,14.4913107 13.5864214,15.4076862 L7.58681005,12.088071 C7.72739052,11.6882797 7.80448303,11.2570442 7.80448303,10.8123325 C7.80448303,10.3631289 7.72739052,9.93638537 7.5822752,9.53210206 L13.5773516,6.21697891 C14.2893237,7.13784645 15.4139673,7.73528734 16.6746566,7.73528734 C18.8241772,7.73528734 20.5791656,6.00136114 20.5791656,3.86764367 C20.5791656,1.7339262 18.8287121,0 16.6746566,0 C14.5206012,0 12.7701477,1.7339262 12.7701477,3.86764367 C12.7701477,4.31684735 12.8472402,4.74808288 12.9923555,5.14787415 L7.00181394,8.4629973 C6.28984193,7.53763772 5.16519824,6.94468887 3.90450894,6.94468887 C1.75498834,6.94468887 0,8.67861507 0,10.8123325 C0,12.94605 1.75498834,14.6799762 3.90904379,14.6799762 C5.16973309,14.6799762 6.29437678,14.0825353 7.01088365,13.1571757 L13.0059601,16.4767909 C12.8608448,16.8810742 12.7792174,17.3168018 12.7792174,17.7660055 C12.7792174,19.8952309 14.5296709,21.6336492 16.6837264,21.6336492 C18.8377818,21.6336492 20.5882353,19.899723 20.5882353,17.7660055 C20.5882353,15.632288 18.833247,13.8983618 16.6791915,13.8983618 Z M16.6791915,1.21734197 C18.1575538,1.21734197 19.35929,2.40773172 19.35929,3.87213571 C19.35929,5.3365397 18.1575538,6.52692945 16.6791915,6.52692945 C15.2008292,6.52692945 13.999093,5.3365397 13.999093,3.87213571 C13.999093,2.40773172 15.2053641,1.21734197 16.6791915,1.21734197 Z M3.90904379,13.4671263 C2.43068152,13.4671263 1.22894532,12.2767365 1.22894532,10.8123325 C1.22894532,9.34792855 2.43068152,8.1575388 3.90904379,8.1575388 C5.38740606,8.1575388 6.58914226,9.34792855 6.58914226,10.8123325 C6.58914226,12.2767365 5.38287121,13.4671263 3.90904379,13.4671263 Z M16.6791915,20.4163072 C15.2008292,20.4163072 13.999093,19.2259174 13.999093,17.7615134 C13.999093,16.2971095 15.2008292,15.1067197 16.6791915,15.1067197 C18.1575538,15.1067197 19.35929,16.2971095 19.35929,17.7615134 C19.35929,19.2259174 18.1575538,20.4163072 16.6791915,20.4163072 Z" id="Shape"></path>
            </g>
        </g>
    </g>
</svg>