<?xml version="1.0" encoding="UTF-8"?>
<svg width="100px" height="100px" viewBox="0 0 100 100" version="1.1" xmlns="http://www.w3.org/2000/svg" xmlns:xlink="http://www.w3.org/1999/xlink">
    <!-- Generator: Sketch 45.2 (43514) - http://www.bohemiancoding.com/sketch -->
    <title>ui/icn-earthglobal</title>
    <desc>Created with Sketch.</desc>
    <defs></defs>
    <g id="ui/icon" stroke="none" stroke-width="1" fill="none" fill-rule="evenodd">
        <g id="ui/icn-earthglobal" stroke="#4286C6">
            <g transform="translate(10.000000, 10.000000)">
                <path d="M77.1,37 C76.6,28.7 73.3,21.3 68.2,15.4" id="Shape"></path>
                <path d="M68.1,63.8 C73.2,58 76.5,50.5 77,42.2" id="Shape"></path>
                <path d="M42.8,76.5 C51.1,76 58.6,72.7 64.4,67.5" id="Shape"></path>
                <path d="M16,67.5 C21.8,72.7 29.3,75.9 37.6,76.4" id="Shape"></path>
                <path d="M3.3,42.2 C3.8,50.5 7.1,58 12.2,63.8" id="Shape"></path>
                <path d="M12.3,15.4 C7.2,21.2 3.9,28.7 3.3,37" id="Shape"></path>
                <path d="M37.6,2.8 C29.4,3.3 21.9,6.6 16,11.7" id="Shape"></path>
                <path d="M64.4,11.7 C58.6,6.6 51.1,3.3 42.8,2.8" id="Shape"></path>
                <path d="M58.8,21 C48.5,10.7 31.8,10.7 21.6,21 C11.3,31.3 11.3,48 21.6,58.2 C31.9,68.5 48.6,68.5 58.8,58.2 C69.1,47.9 69.1,31.3 58.8,21 Z" id="Shape"></path>
                <path d="M66.5,39.6 C66.5,25.1 54.7,13.3 40.2,13.3 C25.7,13.3 13.9,25.1 13.9,39.6 C13.9,54.1 25.7,65.9 40.2,65.9 C54.7,65.9 66.5,54.1 66.5,39.6 Z" id="Shape"></path>
                <path d="M45.8,64.7 C53.3,61.3 58.8,51.4 58.8,39.6 C58.8,27.9 53.4,17.9 45.8,14.5" id="Shape"></path>
                <path d="M34.5,14.5 C27,17.9 21.5,27.8 21.5,39.6 C21.5,51.3 26.9,61.3 34.4,64.7" id="Shape"></path>
                <path d="M44.6,62.9 C47.6,58.5 49.7,49.7 49.7,39.6 C49.7,29.5 47.6,20.7 44.6,16.3" id="Shape"></path>
                <path d="M35.7,16.3 C32.7,20.7 30.6,29.5 30.6,39.6 C30.6,49.6 32.6,58.3 35.6,62.8" id="Shape"></path>
                <path d="M15.2,31.2 L65.1,31.2" id="Shape"></path>
                <path d="M15.2,48 L65.1,48" id="Shape"></path>
                <path d="M40.1,17.5 L40.2,61.7" id="Shape"></path>
                <path d="M45.9,13.9 C42.1,13.1 38.2,13.1 34.4,13.9 C34.4,18.7 45.9,18.6 45.9,13.9 Z" id="Shape"></path>
                <path d="M34.4,65.3 C38.2,66.1 42.1,66.1 45.9,65.3 C45.9,60.4 34.4,60.6 34.4,65.3 Z" id="Shape"></path>
                <circle id="Oval" cx="40.2" cy="2.4" r="2.3"></circle>
                <path d="M42.5,76.8 C42.5,75.5 41.5,74.5 40.2,74.5 C38.9,74.5 37.9,75.5 37.9,76.8 C37.9,78.1 38.9,79.1 40.2,79.1 C41.5,79.1 42.5,78 42.5,76.8 Z" id="Shape"></path>
                <path d="M77.4,41.9 C78.7,41.9 79.7,40.9 79.7,39.6 C79.7,38.3 78.7,37.3 77.4,37.3 C76.1,37.3 75.1,38.3 75.1,39.6 C75.1,40.9 76.1,41.9 77.4,41.9 Z" id="Shape"></path>
                <path d="M3,41.9 C4.3,41.9 5.3,40.9 5.3,39.6 C5.3,38.3 4.3,37.3 3,37.3 C1.7,37.3 0.7,38.3 0.7,39.6 C0.7,40.9 1.7,41.9 3,41.9 Z" id="Shape"></path>
                <path d="M12.3,64.2 C11.4,65.1 11.4,66.6 12.3,67.5 C13.2,68.4 14.7,68.4 15.6,67.5 C16.5,66.6 16.5,65.1 15.6,64.2 C14.6,63.3 13.2,63.3 12.3,64.2 Z" id="Shape"></path>
                <path d="M64.8,11.7 C63.9,12.6 63.9,14.1 64.8,15 C65.7,15.9 67.2,15.9 68.1,15 C69,14.1 69,12.6 68.1,11.7 C67.2,10.8 65.8,10.8 64.8,11.7 Z" id="Shape"></path>
                <circle id="Oval" cx="13.9" cy="13.3" r="2.3"></circle>
                <path d="M68.1,64.2 C67.2,63.3 65.7,63.3 64.8,64.2 C63.9,65.1 63.9,66.6 64.8,67.5 C65.7,68.4 67.2,68.4 68.1,67.5 C69,66.6 69,65.1 68.1,64.2 Z" id="Shape"></path>
            </g>
        </g>
    </g>
</svg>