<?xml version="1.0" encoding="UTF-8"?>
<svg width="100px" height="100px" viewBox="0 0 100 100" version="1.1" xmlns="http://www.w3.org/2000/svg" xmlns:xlink="http://www.w3.org/1999/xlink">
    <!-- Generator: Sketch 46.2 (44496) - http://www.bohemiancoding.com/sketch -->
    <title>ui/icn-home</title>
    <desc>Created with Sketch.</desc>
    <defs></defs>
    <g id="Exportable" stroke="none" stroke-width="1" fill-rule="evenodd">
        <g id="ui/icn-home" fill-rule="nonzero">
            <path d="M95.8192482,49.3992096 C97.5231649,47.5252382 97.3586256,44.6530002 95.4518689,42.9855456 L53.4434727,6.22800743 C51.536716,4.56055284 48.4797159,4.59548298 46.6130982,6.30675345 L4.46191746,44.9453103 C2.59529979,46.6565808 2.50368477,49.5251419 4.25907752,51.3497822 L5.31586747,52.450388 C7.06911539,54.2750282 9.90305282,54.4925756 11.6415933,52.9348139 L14.7917404,50.1137454 L14.7917404,91.4146531 C14.7917404,93.9486203 16.8449586,96 19.3770874,96 L35.8077351,96 C38.3398639,96 40.393082,93.9486203 40.393082,91.4146531 L40.393082,62.5206862 L61.3505534,62.5206862 L61.3505534,91.4146531 C61.3140912,93.9467818 63.1258625,95.9981616 65.6579912,95.9981616 L83.0703598,95.9981616 C85.6024885,95.9981616 87.6557067,93.9467818 87.6557067,91.4128146 L87.6557067,50.6953016 C87.6557067,50.6953016 88.5258961,51.4576366 89.5992319,52.4010568 C90.6707293,53.3426386 92.9212721,52.5876573 94.6251889,50.7118475 L95.8192482,49.3992096 Z" id="Shape"></path>
        </g>
    </g>
</svg>
