<?xml version="1.0" encoding="UTF-8"?>
<svg width="88px" height="88px" viewBox="0 0 88 88" version="1.1" xmlns="http://www.w3.org/2000/svg" xmlns:xlink="http://www.w3.org/1999/xlink">
    <!-- Generator: Sketch 46.2 (44496) - http://www.bohemiancoding.com/sketch -->
    <title>icon-time-clock</title>
    <desc>Created with Sketch.</desc>
    <defs></defs>
    <g id="2_Product" stroke="none" stroke-width="1" fill="none" fill-rule="evenodd">
        <g id="icon-time-clock" stroke="#4286C6">
            <g id="Group-14" transform="translate(2.000000, 4.000000)">
                <g id="Group-12">
                    <path d="M12.6079119,28 L27.7660738,28" id="Line-3-Copy" stroke-linecap="square"></path>
                    <path d="M5.51133261,38 L27.7626337,38" id="Line-3-Copy-4" stroke-linecap="square"></path>
                    <path d="M0.535778574,48 L27.7660738,48" id="Line-3-Copy-5" stroke-linecap="square"></path>
                    <path d="M8.6201831,57 L27.7660738,57" id="Line-3-Copy-6" stroke-linecap="square"></path>
                    <path d="M16.6666667,67 L27.7660738,67" id="Line-3-Copy-7" stroke-linecap="square"></path>
                    <path d="M43,9.625 L43,13.5778471" id="Line-2" stroke-linecap="square"></path>
                    <path d="M40,2.52993701 L40,8.37753919" id="Line-2-Copy" stroke-linecap="square"></path>
                    <path d="M45,2.52993701 L45,8.37753919" id="Line-2-Copy-2" stroke-linecap="square"></path>
                    <path d="M60.25,13.6666667 L58.75,16.3333333" id="Line-3" stroke-linecap="square"></path>
                    <path d="M73.3333333,26.75 L70.6666667,28.25" id="Line-4" stroke-linecap="square"></path>
                    <path d="M78.5778471,44 L74.625,44" id="Line-4-Copy" stroke-linecap="square"></path>
                    <path d="M73.375,63.3333333 L69.625,60.6666667" id="Line-4-Copy-2" stroke-linecap="square"></path>
                    <path d="M62.3333333,74.3333333 L59.6666667,71.6666667" id="Line-4-Copy-3" stroke-linecap="square"></path>
                    <path d="M43,79.375 L43,75.625" id="Line-4-Copy-4" stroke-linecap="square"></path>
                    <path d="M68.7,19.3 L74.3,13.7" id="Line-5" stroke-linecap="square"></path>
                    <rect id="Rectangle-5" transform="translate(77.656854, 10.656854) rotate(45.000000) translate(-77.656854, -10.656854) " x="74.1568542" y="7.15685425" width="7" height="7"></rect>
                    <path d="M33.6666667,2 L52.5228475,2" id="Line-6" stroke-linecap="square"></path>
                    <path d="M19.6428571,19 L27.7744283,19" id="Line-3" stroke-linecap="square"></path>
                    <path d="M44.2814069,50.9848746 C45.7128604,50.8734966 47.0178069,50.143352 47.8648533,48.9786957 L60.7396838,31.180218 C61.1343305,30.6343283 61.0752022,29.8808081 60.596676,29.4022952 C60.1181498,28.9251574 59.3646085,28.8660309 58.8187036,29.2592914 L41.016978,42.1378871 C39.8564144,42.9821598 39.1262494,44.2870698 39.0148683,45.7184832 C38.9034872,47.1498967 39.4218906,48.5510593 40.4353212,49.5644615 C41.3579967,50.4884863 42.6024399,51 43.8963858,51 C44.0242678,51 44.1521498,50.9944999 44.2814069,50.9848746 Z" id="Shape" fill-rule="nonzero"></path>
                </g>
                <path d="M32.0004832,10.8937915 C35.6000884,9.66613717 39.4594315,9 43.4746174,9 C63.0948577,9 79,24.9051423 79,44.5253826 C79,64.1453813 63.0948577,80.0507652 43.4746174,80.0507652 C39.4594315,80.0507652 35.5996052,79.384628 32,78.1567321" id="Page-1"></path>
            </g>
        </g>
    </g>
</svg>