<?xml version="1.0" encoding="UTF-8"?>
<svg width="100px" height="100px" viewBox="0 0 100 100" version="1.1" xmlns="http://www.w3.org/2000/svg" xmlns:xlink="http://www.w3.org/1999/xlink">
    <!-- Generator: Sketch 45.2 (43514) - http://www.bohemiancoding.com/sketch -->
    <title>nav/icn-wechat</title>
    <desc>Created with Sketch.</desc>
    <defs></defs>
    <g id="Page-1" stroke="none" stroke-width="1" fill="black" fill-rule="evenodd">
        <g id="nav/icn-wechat" fill="black">
            <g id="wechat" transform="translate(6.000000, 14.000000)">
                <path d="M20.7124839,11.574871 C18.3115161,11.5574516 16.3750645,13.4764839 16.3750645,15.894871 C16.3750645,18.3655161 18.2940968,20.3513226 20.573129,20.3193871 C23.0960323,20.2845484 24.8437742,18.2958387 24.9279677,16.0835806 C25.0499032,13.5955161 23.130871,11.6097097 20.7124839,11.574871 M43.3489355,20.3861613 C45.9211935,20.421 47.6166774,18.2958387 47.7705484,16.0835806 C47.9273226,13.8393871 45.387,11.3164839 43.2792581,11.3687419 C40.9450645,11.4180968 38.7182903,13.7000323 38.8199032,16.0342258 C38.8895806,18.3306774 40.9624839,20.6474516 43.3489355,20.3861613 M31.5647419,53.7500323 C28.1157097,53.6687419 24.6811935,53.2797097 21.3802258,52.2432581 C20.4889355,51.9674516 19.7602258,52.2113226 19.0634516,52.6003548 C16.7815161,53.8951935 14.5460323,55.2713226 12.2960323,56.5980968 C11.7444194,56.9232581 11.0824839,57.0364839 10.5628065,56.6793871 C10.0460323,56.3251935 9.94732258,55.8055161 10.0779677,55.0768065 C10.4176452,53.1839032 11.2595806,51.4506774 11.6166774,49.554871 C11.8576452,48.2600323 11.6805484,47.6939032 10.6295806,46.9651935 C6.19345161,43.8732581 3.13054839,39.744871 1.287,34.6758387 C0.395709677,32.2313226 0.137322581,29.7229355 0.0240967742,27.1303548 C-0.170419355,23.0687419 0.866032258,19.3584194 2.75893548,15.8455161 C3.65022581,14.1790645 4.78248387,12.6722903 5.99893548,11.214871 C8.60603226,8.10551613 11.8576452,5.82358065 15.3066774,3.83196774 C17.0079677,2.84487097 18.9182903,2.26132258 20.7966774,1.64583871 C22.8028065,0.983903226 24.8757097,0.449709677 26.9660323,0.301645161 C29.1202258,0.141967742 31.2715161,-0.200612903 33.4750645,0.156483871 C35.0282903,0.400354839 36.6482903,0.368419355 38.2189355,0.594870968 C40.257,0.902612903 42.2021613,1.5326129 44.1589355,2.09874194 C47.8692581,3.13519355 51.1876452,4.96712903 54.1663548,7.34487097 C58.9740968,11.151 62.3099032,15.9442258 63.5728065,22.0468065 C63.7034516,22.6942258 63.5089355,22.8568065 62.9428065,22.8742258 C61.9063548,22.9061613 60.8844194,22.7435806 59.8334516,22.8074516 C57.2902258,22.9700323 54.8311935,23.4722903 52.3866774,24.1197097 C49.1466774,24.9616452 46.1040968,26.207129 43.3518387,28.1842258 C39.6444194,30.8551935 36.7121613,34.127129 34.7844194,38.3193871 C33.443129,41.2487419 32.7144194,44.2942258 32.7782903,47.4993871 C32.8102258,49.2819677 33.1005484,51.0616452 33.6347419,52.7774516 C33.9279677,53.7180968 33.5563548,53.7819677 32.8421613,53.7819677 C32.453129,53.7326129 32.0002258,53.7500323 31.5647419,53.7500323" id="Fill-1"></path>
                <path d="M71.837129,35.9747419 C69.8106774,35.8818387 67.9874516,37.3944194 67.9700323,39.7866774 C67.9497097,41.5373226 69.2387419,43.7292581 71.874871,43.7292581 C74.0116452,43.7292581 75.7042258,42.0337742 75.7042258,39.8244194 C75.7042258,37.6702258 73.9564839,35.847 71.837129,35.9747419 M51.5029355,43.7118387 C53.8603548,43.7118387 55.5732581,42.0715161 55.5558387,39.807 C55.5384194,37.7602258 53.6222903,36.0676452 51.4477742,35.937 C49.8103548,35.847 47.6532581,37.8357097 47.7839032,39.7315161 C47.9116452,42.0540968 49.3313226,43.7118387 51.5029355,43.7118387 M61.8413226,24.750871 C66.681,24.3473226 71.3116452,25.560871 75.6345484,27.7295806 C81.594871,30.7257097 85.967129,35.243129 87.8919677,41.8015161 C89.1403548,46.043129 88.6700323,50.220871 87.0993871,54.2679677 C85.6593871,57.9928065 83.1655161,60.9540968 80.0387419,63.3666774 C78.6161613,64.467 78.4680968,64.6934516 78.9064839,66.4440968 C79.2316452,67.707 79.5539032,68.9699032 79.8790645,70.2473226 C80.0068065,70.7495806 80.1374516,71.2837742 79.6351935,71.6553871 C79.1329355,72.0299032 78.5987419,71.9166774 78.1139032,71.640871 C76.4126129,70.6682903 74.6968065,69.7624839 73.0768065,68.6766774 C72.0577742,67.9973226 71.0851935,67.8695806 69.9529355,68.2092581 C67.8480968,68.8392581 65.6793871,69.0657097 63.4758387,69.210871 C59.4113226,69.4866774 55.4455161,69.0192581 51.6393871,67.6895806 C46.9942258,66.0724839 42.7990645,63.6744194 39.6926129,59.6911935 C37.7329355,57.1973226 36.2116452,54.4624839 35.5293871,51.3850645 C34.4116452,46.3828065 35.1084194,41.5721613 37.6661613,37.0895806 C39.887129,33.1876452 43.2200323,30.4179677 47.0900323,28.313129 C49.5839032,26.9544194 52.1735806,25.7379677 54.9926129,25.1718387 C57.2106774,24.7363548 59.4780968,24.5882903 61.8413226,24.750871" id="Fill-4"></path>
            </g>
        </g>
    </g>
</svg>