<?xml version="1.0" encoding="UTF-8"?>
<svg width="100px" height="100px" viewBox="0 0 100 100" version="1.1" xmlns="http://www.w3.org/2000/svg" xmlns:xlink="http://www.w3.org/1999/xlink">
    <!-- Generator: Sketch 46.1 (44463) - http://www.bohemiancoding.com/sketch -->
    <title>ui/icn-sparkline-up</title>
    <desc>Created with Sketch.</desc>
    <defs>
        <path d="M89.7329177,8.52500927 C89.4809939,8.50206286 89.2292787,8.47209345 88.9767291,8.47501391 C88.7983729,8.47709994 88.7284211,8.41396254 88.7364871,8.23324217 C88.747265,7.99153996 88.7387818,7.74907287 88.738295,7.50688392 C88.7380864,7.39639347 88.7246662,7.30474689 88.5797562,7.28910161 C87.8676525,7.21212683 86.934568,7.65867792 86.8975756,8.4227239 C86.8815826,8.75301317 86.8715001,9.12342388 86.4903115,9.30115427 C86.1055071,9.73066939 85.7182691,10.1578203 85.3395837,10.5923419 C85.2907009,10.6483868 85.2703273,10.7415631 85.263791,10.8197895 C85.2489802,10.9977285 85.1583071,11.1014741 84.9892685,11.1686445 C84.9297469,10.8553912 84.8994994,10.5458928 84.6583534,10.3299184 C84.5375719,10.2217226 84.456425,10.0780642 84.4206147,9.91987298 C84.3592156,9.64889672 84.194071,9.4455776 83.9529946,9.30525681 C83.614987,9.14379752 83.3986649,8.85529854 83.1682969,8.57569998 C83.0622566,8.44706101 82.8670731,8.38454942 82.7802244,8.24867884 C82.492977,7.79934637 82.2354905,7.33096143 81.9704942,6.86765251 C81.9436538,6.82071667 81.9357964,6.75896996 81.9321806,6.70327276 C81.9066614,6.31200167 81.8725199,5.92086965 81.863689,5.52918135 C81.8398387,4.47642778 81.5252642,4.08348785 80.4946922,3.91444929 C79.8746523,3.81272019 78.9440015,4.11540423 78.7294178,4.87924161 C78.6236557,5.2556323 78.4918181,5.63709902 78.4713054,6.02148619 C78.4501669,6.41734656 78.2912108,6.46914982 77.9465279,6.46289171 C77.2089746,6.449402 76.665979,6.91716113 76.5487437,7.62856944 C76.4552893,8.19576303 76.3848507,8.76671148 76.3041211,9.33606063 C76.1941869,10.2630957 76.0861997,11.1904089 75.9709114,12.1167486 C75.9597858,12.2064482 76.0061654,12.3405108 75.8584044,12.3722186 C75.6449332,12.4181114 75.4314621,12.478537 75.2153486,12.492583 C75.079339,12.5014139 74.9634248,12.4346607 74.9522993,12.2455961 C74.9304654,11.8737252 74.8777582,11.5037317 74.8418784,11.1325561 C74.7870851,10.5656406 74.3946319,10.0775774 73.8421797,9.93906453 C73.4865798,9.84992119 73.3532125,9.67789264 73.3747682,9.32340534 C73.4182969,8.96064343 73.2433479,8.69842852 72.9741795,8.49017245 C72.5356944,8.15105229 72.0301085,8.07400797 71.4950399,8.14667161 C70.8348785,8.23637122 70.6974782,8.16488967 70.5223206,7.55256814 C70.4148201,7.17652513 70.2293019,6.87342388 69.8709902,6.70167347 C69.7230901,6.63081773 69.6850547,6.52491656 69.674555,6.37152327 C69.6030039,5.33253755 69.3940525,4.32268682 69.0773225,3.32813369 C68.930535,2.86739755 68.6718663,2.56478305 68.2464537,2.37495364 C67.4897089,2.03729371 66.5021092,2.29185982 66.1090998,2.91968756 C65.9762887,3.1319071 65.9864408,3.38723809 65.8665631,3.60641109 C65.8409049,3.34934174 65.8651724,3.09262006 65.8365937,2.84187836 C65.7637215,2.20202114 65.7572548,1.55444558 65.6821574,0.914866494 C65.6207584,0.391966438 65.1733034,0 64.646857,0 L63.3312627,0 C62.759619,0 62.2945021,0.460040794 62.288105,1.03161506 C62.2847673,1.33214352 62.2884526,1.63329779 62.2632811,1.93292231 C62.1862368,2.8516132 62.1660022,3.77670128 62.1176062,4.69907751 C62.0443862,6.09519284 62.0095494,7.49339421 61.9685935,8.89103931 C61.9600408,9.18259781 61.9635175,9.46087521 61.7716021,9.71217319 C61.6681346,9.84755702 61.6312813,10.0276516 61.6207816,10.2038522 C61.5288569,11.7472418 61.4318561,13.2904228 61.3472325,14.8342296 C61.2884758,15.9066614 61.2518311,16.9803449 61.194465,18.0528463 C61.1785416,18.350941 61.106921,18.6461153 61.0921101,18.9442101 C61.0788986,19.211501 60.9798118,19.2771417 60.732825,19.188346 C60.3792416,19.0612368 60.0194001,19.1051826 59.6809753,19.2349342 C59.5136056,19.2991146 59.3753709,19.2984888 59.2179446,19.2414704 C58.827786,19.1001066 58.4243464,19.0846699 58.0212544,19.1563601 C57.4468292,19.2585759 57.0196783,19.5693955 56.7914658,20.1525125 C56.6774986,19.9688717 56.643079,19.8109587 56.5258437,19.6866308 C56.0156685,19.1453736 55.2040608,18.9675042 54.5190061,19.2660161 C53.9700306,19.5052151 53.6466253,19.8832746 53.6830614,20.5254265 C53.7012099,20.8453551 53.6398109,21.1691081 53.6284767,21.4916095 C53.6223577,21.6657241 53.537595,21.7046635 53.3846885,21.6971537 C53.1997265,21.6880447 53.0128175,21.6803959 52.8288986,21.6963888 C52.3847812,21.7349805 51.9744576,21.8934498 51.7262887,22.2676154 C51.5783191,22.4906128 51.4264556,22.5303171 51.1928194,22.5338633 C50.3782218,22.5463796 49.8082468,23.1114871 49.8049091,23.9150287 C49.7981643,25.5467968 49.7988596,27.1786343 49.7303681,28.8094289 C49.7258483,28.918181 49.7298118,29.0272807 49.7298118,29.2045244 C49.6533933,29.1111394 49.6263443,29.0775542 49.5986696,29.0443862 C49.0592203,28.3979232 48.3619275,28.3167068 47.6137354,28.5374096 C46.8933571,28.7499768 46.6394864,29.3009688 46.670916,30.0130725 C46.6766874,30.1435194 46.6309336,30.213054 46.50598,30.2767476 C46.2165075,30.4241609 45.9350315,30.6000139 45.8166837,30.9271741 C45.75299,31.1031661 45.6915214,31.1412016 45.4990497,31.0696505 C44.8944465,30.8450538 44.315293,30.9361441 43.7898201,31.3083627 C43.4909605,31.520165 43.3274152,31.8058826 43.3257463,32.1907565 C43.3230345,32.8258854 43.3134387,33.4603885 43.2793668,34.0964213 C43.2105971,35.3780132 43.2709531,36.6632208 43.208511,37.9480113 C43.1450955,39.2526887 43.2149777,40.5626507 43.1284767,41.8686492 C43.1208279,41.9842156 43.1383506,42.1010337 43.0066521,42.1669525 C42.4693584,42.4357037 42.349898,42.9382301 42.2940617,43.4686399 C42.0999212,45.3110977 41.8520304,47.1466716 41.5985073,48.9815502 C41.5802893,49.1133877 41.5569952,49.1975941 41.4150751,49.0829316 C40.8704107,48.6428472 40.2343779,48.6621778 39.6030039,48.7614037 C39.0937326,48.841438 38.545522,49.2929955 38.5103375,49.8642917 C38.4930234,50.1463935 38.4529714,50.4385778 38.4308594,50.7228352 C38.3652188,51.5637169 38.2420731,52.3906221 38.0514092,53.2130076 C37.9005887,53.8635036 37.9538522,54.5467504 37.7937836,55.2048952 C37.7884294,54.7874791 37.6378175,54.436399 37.3517523,54.1408075 C37.3203226,54.1083349 37.2856249,54.0674485 37.2774893,54.0255887 C37.1658168,53.4552661 36.7651585,53.1725385 36.2558873,53.0063508 C36.1084044,52.9582329 36.1019377,52.8620666 36.1002689,52.7399638 C36.0893519,51.9540145 36.0766966,51.1687604 36.0429724,50.3826024 C35.989987,49.1478769 35.9481967,47.9121778 35.9032079,46.676896 C35.8611394,45.5224828 35.8491795,44.3672353 35.7505099,43.2152559 C35.6993325,42.6178148 35.6695021,42.0179399 35.5974643,41.4230716 C35.5001159,40.619669 34.5808687,40.0886334 33.6799787,40.2921611 C32.9753152,40.4513953 32.5321018,40.8395374 32.4899638,41.3850362 C32.4010986,42.5346514 32.2347024,43.6775913 32.2002828,44.8318654 C32.1862368,45.305674 32.1670452,45.3128361 31.6871871,45.3414148 C31.5620944,45.348855 31.4302568,45.3674903 31.3164982,45.4160949 C31.066591,45.522761 31.0327276,45.4160254 31.0174995,45.190942 C30.9575607,44.30528 30.86355,43.4217736 30.8096607,42.535764 C30.7642546,41.7888235 30.3885592,41.3411598 29.6743,41.1632904 C29.5527536,41.1329733 29.5095031,41.062952 29.4919803,40.9457862 C29.3025681,39.678588 29.2276099,38.4013768 29.1312349,37.1252781 C29.0966762,36.6669757 29.1862368,36.1656314 28.8519841,35.7615659 C28.3249119,35.124351 27.190038,35.0016225 26.5092945,35.4814806 C26.1696876,35.7208187 26.1258808,36.1452577 25.8897413,36.4060124 C25.4792787,36.8593084 25.502086,37.3710134 25.4637029,37.8924532 C25.4277536,38.3799601 25.4059892,38.8685796 25.3733775,39.437303 C25.2235305,38.9892917 25.253639,38.6084508 25.2478676,38.2310866 C25.2396625,37.6933757 24.9864871,37.3189319 24.5133738,37.0670777 C24.2798767,36.9428194 24.0277443,36.8926154 23.7820786,36.8773874 C23.1149638,36.8359447 22.4865103,36.9399685 22.0544224,37.5386612 C21.993371,37.6233543 22.0043575,37.8094289 21.8529807,37.77042 C21.7386659,37.7409373 21.7481921,37.5753755 21.7174578,37.4691962 C21.6180929,37.1256953 21.5849944,36.7334508 21.2933664,36.5020397 C21.0242676,36.2885685 20.953829,36.0381745 20.9337335,35.7287456 C20.9023039,35.245063 20.7408446,34.8259086 20.2807343,34.5819117 C20.2081402,34.5433896 20.1414565,34.5017384 20.114338,34.4155155 C19.9900102,34.0202809 19.694975,33.7910254 19.3374281,33.6246291 C19.2271463,33.5733126 19.1497543,33.5090627 19.1322316,33.3722186 C18.9917022,32.2749629 18.8434545,31.178333 18.7821945,30.0729418 C18.7292092,29.116285 18.5057945,28.7284211 17.7393149,28.5312906 C17.3518682,28.4316475 17.286158,28.2237391 17.2483312,27.8867745 C17.1893658,27.3610235 17.0985537,26.8285973 16.757278,26.3960922 C16.6470656,26.2564667 16.5465186,26.1219868 16.5050065,25.9520443 C16.4558455,25.7506722 16.3513351,25.5791304 16.1863295,25.4692657 C15.9102772,25.2856249 15.8499907,25.0382208 15.8552058,24.7261496 C15.8630632,24.2587382 15.6851242,23.8671889 15.2608242,23.6244437 C15.1488735,23.5604024 15.1049972,23.4820369 15.0890738,23.3516596 C15.0581309,23.0993186 15.0640413,22.8393983 15.0153671,22.595471 C14.8685101,21.8595865 15.0569488,21.0527072 14.5611673,20.3894864 C14.548651,20.3727285 14.5485815,20.3453319 14.5464955,20.3225246 C14.498308,19.794479 14.432876,19.2671982 14.4080521,18.7381096 C14.3851057,18.2497682 14.1830382,17.8804005 13.7439273,17.6852169 C12.9240451,17.3207862 12.0791999,17.3395605 11.2522946,17.6548303 C10.9452995,17.7719266 10.7066568,18.0347673 10.6272483,18.3615103 C10.5586872,18.6438207 10.3649638,18.7999258 10.1887632,19.0031059 C10.0944743,18.4108798 10.1002457,17.8360375 10.0802893,17.2618209 C10.0679816,16.9099759 10.0531708,16.5480484 9.776145,16.2619831 C8.90897923,15.3665168 7.43727981,15.6583534 6.91604858,16.8610931 C6.88941684,16.4863017 6.67810124,16.2400797 6.41310495,16.0572733 C6.20512702,15.9138235 6.14052939,15.7441591 6.12189412,15.5085064 C6.09102077,15.1184869 6.04033006,14.7288151 5.9742722,14.3430373 C5.84208696,13.5708557 4.95517337,13.0531012 4.08967643,13.2352818 C3.33571296,13.3939598 2.81378639,13.843779 2.84605044,14.6866772 C2.86976173,15.3050482 2.7643473,15.927939 2.72408678,16.5493 C2.71657704,16.6656314 2.6822965,16.7420499 2.57848136,16.8001113 C2.22976544,16.9950862 2.01504265,17.2862971 1.88383089,17.6703365 C1.79739941,17.9234424 1.60826534,18.2471954 1.36489431,18.2596421 C0.902419803,18.2832839 0.468315409,18.3946783 0.0263536065,18.4925134 C0.0137678472,18.5567634 0.0125162247,18.5631606 0,18.6274105 C0.132532913,18.7286529 0.0763489709,18.8700862 0.0767661784,18.993371 C0.0808687187,20.2564667 0.0785740775,21.5196319 0.0803124421,22.7827276 C0.0805210458,22.9389023 0.0380354163,23.1194141 0.285787131,23.1477842 C0.760708326,23.2020907 1.56953458,22.813601 1.7469173,22.3675366 C1.97290469,21.7993696 2.29074726,21.3474643 2.85960968,21.0834415 C3.03240312,21.0031986 3.1485954,20.8136473 3.21750417,20.6264602 C3.24232802,20.5591508 3.29385314,20.5047052 3.36171889,20.4815502 C3.72677545,20.3572223 4.02035045,20.1425691 4.22123586,19.7907936 C4.31357779,20.1488967 4.28193955,20.498308 4.48804005,20.7865984 C4.83849434,21.2766086 5.33865659,21.4358428 5.9111348,21.4167903 C6.25261914,21.4054561 6.62511589,21.2947571 6.75285092,21.777188 C6.75973484,21.8031244 6.80347209,21.8245411 6.83434545,21.8381698 C7.18883275,21.9944141 7.26914519,22.3085018 7.30606805,22.6490821 C7.3308919,22.8782681 7.34507695,23.1096792 7.38749305,23.3356666 C7.44840534,23.6603236 7.42907473,24.0237808 7.70095494,24.2677081 C7.87819859,24.4267337 7.94230948,24.622404 7.99856295,24.8350408 C8.14827091,25.4003569 8.21523271,26.0144864 8.84924903,26.3013165 C8.88276469,26.3164751 8.90675413,26.373563 8.91732338,26.4157009 C9.14901261,27.3416234 10.6436584,27.5640645 11.4068005,27.0936631 C11.8103792,26.8449379 11.9264324,26.4526238 12.072455,26.0138606 C12.1666744,26.2915121 12.1744623,26.5203505 12.1807204,26.7522483 C12.1977564,27.3875162 12.2186167,28.0228537 12.2530363,28.6573568 C12.2949657,29.4307899 13.0758391,29.9820601 14.0034304,29.8842945 C14.1899221,29.8646162 14.2657148,29.8597487 14.2725292,30.0836501 C14.3078528,31.2498146 14.3625765,32.4153532 14.4061051,33.5813091 C14.4191081,33.9280085 14.5136751,34.2409837 14.7448081,34.5045197 C14.8139255,34.583372 14.8736557,34.6601381 14.9058502,34.7658307 C15.0736371,35.3173095 15.4571203,35.6338309 16.0155526,35.7396625 C16.2318747,35.7806184 16.3481365,35.8966716 16.34612,36.1142453 C16.3393056,36.8245411 16.7320369,37.1948823 17.3681393,37.4233034 C17.7391758,37.5565316 18.0267708,37.8660996 18.0882394,38.2672446 C18.1734888,38.824008 18.1997033,39.3912016 18.2271695,39.9550575 C18.257278,40.5715511 18.3110977,41.1644029 18.9388559,41.5040794 C18.992328,41.5330057 19.0329362,41.6065733 19.0553959,41.668181 C19.2279807,42.1413638 19.5974875,42.3996152 20.0592666,42.4811098 C20.8444511,42.6196227 21.6352679,42.6627341 22.3723345,42.2581124 C22.4292138,42.9978212 22.489987,43.7102726 22.5370619,44.4236279 C22.5811469,45.0904645 22.6300297,45.7487484 22.7962869,46.4068237 C23.0101057,47.2528509 23.5542833,47.5739616 24.3120712,47.6237484 C25.3275542,47.690432 25.908168,47.132417 26.019771,46.0936399 C26.0756073,45.5735908 25.9894539,44.9584183 26.6966206,44.7519701 C26.7957074,44.7230438 26.8458418,44.5251483 26.9757324,44.6130401 C27.1088216,44.7030873 27.2636056,44.7833302 27.2715325,45.004033 C27.306717,45.9848878 27.3743742,46.9646301 27.4047608,47.9454849 C27.4229789,48.532774 27.6853328,48.9316939 28.2152559,49.1599064 C28.3366633,49.2121964 28.4337335,49.2677545 28.5004172,49.3911784 C28.6472047,49.6627805 28.8647784,49.8695763 29.1495225,49.9939041 C29.292138,50.0562071 29.341577,50.1444465 29.3668181,50.3047933 C29.4841229,51.0507602 29.4109726,51.8036807 29.4757093,52.5529854 C29.5582468,53.5076256 29.5408632,54.4708187 29.5685379,55.4303263 C29.5820276,55.8953736 29.6775681,56.3234981 30.0956796,56.6113712 C30.3503848,56.7867374 30.6386056,56.8849898 30.9346838,56.9214955 C31.5332375,56.9954107 32.4995596,56.7420962 32.6691545,55.9277767 C32.711362,55.7250834 32.7250603,55.5166883 32.7613573,55.3125348 C32.8376368,54.8832978 32.8460504,54.4400844 33.0015993,53.9684313 C33.0926201,54.2405897 33.1042323,54.4565641 33.1076395,54.6773364 C33.1291257,56.0772761 33.1526284,57.4772158 33.1861441,58.876947 C33.204084,59.626043 33.5185889,60.0121686 34.2414704,60.2334276 C34.5499258,60.3278556 34.8677684,60.3153393 35.1702438,60.2643009 C35.4001252,60.2255702 35.4647923,60.2871778 35.4853746,60.4869507 C35.4911459,60.5430651 35.5206286,60.5966067 35.5378036,60.6518172 C35.7382023,61.2952207 36.0194697,61.9067773 35.9947154,62.6197849 C35.9824773,62.973855 36.0351845,63.354835 36.060356,63.7207259 C36.0902559,64.156082 36.1659095,64.5856666 36.2257093,65.0167115 C36.2973994,65.5333534 36.7374142,65.9187836 37.2589931,65.9187836 L38.5172909,65.9187836 C39.0365752,65.9187836 39.4760337,65.5366911 39.5493927,65.0226915 C39.8430373,62.9659976 40.3384016,60.9364222 40.5644586,58.8150612 C41.0354858,59.3274615 41.5788986,59.5010894 42.1967829,59.4493556 C42.8310773,59.3963008 43.585458,58.9480808 43.5470054,58.0653393 C43.5239199,57.5367374 43.5778092,57.0036853 43.6164704,56.4740404 C43.6378175,56.1819256 43.6772436,55.9128268 44.002735,55.7355832 C44.3120944,55.5671009 44.4971259,55.2494669 44.5054701,54.8717551 C44.5201419,54.213193 44.5321018,53.5554654 44.5682598,52.8969034 C44.6272946,51.8234981 44.6087984,50.7459206 44.6642175,49.6722372 C44.6861904,49.2458511 44.6774986,48.8149453 44.7327091,48.3940525 C44.7739431,48.0801038 44.743626,47.6598368 45.0899777,47.5107547 C45.6909651,47.252086 45.9550575,46.8227795 45.9786297,46.1951604 C45.9844011,46.0398897 45.9921889,45.8467921 46.1606712,45.7700955 C46.7327322,45.5096885 46.9133136,45.028092 46.9395281,44.4515112 C46.9443955,44.3443584 46.9431439,44.2308085 47.0698359,44.1965974 C47.3853143,44.1114871 47.641132,43.9238133 47.9153069,43.6769655 C47.9364454,44.3077137 47.936654,44.8824866 47.9747589,45.4569117 C48.0399128,46.4367931 47.9947154,47.4207769 48.0419294,48.4044131 C48.1163314,49.9523225 48.1047886,51.5042648 48.1307945,53.0544688 C48.1405989,53.638003 48.4494715,54.0448498 48.9976126,54.2621454 C49.3237298,54.3914102 49.6557575,54.3995457 49.9882023,54.3685333 C50.6957862,54.3024754 51.2255006,53.7791582 51.2495596,53.1208743 C51.3051873,51.5963286 51.3526794,50.0715047 51.3905757,48.5464723 C51.396208,48.3221537 51.435356,48.1444233 51.6189968,48.0018079 C51.8301734,47.8377063 51.9469219,47.6165863 51.9507463,47.3437326 C51.9582561,46.8124189 51.971259,46.2824958 52.0065131,45.751043 C52.0699981,44.7940386 52.041628,43.8325839 52.0661737,42.8731457 C52.1031661,41.4280085 52.1660949,39.982176 52.1570554,38.5358567 C52.1553171,38.2484702 52.1659559,37.9939737 52.4221908,37.7939227 C52.5555581,37.6898294 52.6282913,37.5129334 52.6448405,37.3347858 C52.6778695,36.9788383 52.7229974,36.6246987 52.7147228,36.2643705 C52.7010245,35.6699889 52.7109679,35.075051 52.7109679,34.398549 C53.0496013,34.7526887 53.4081216,34.8675598 53.7837475,34.9464816 C54.6234471,35.1228212 55.4268496,34.5897691 55.5741239,33.7434637 C55.7620758,32.6635917 55.8743742,31.5756536 55.9213796,30.4797191 C55.9376507,30.0999212 55.989593,29.7217226 55.9932088,29.3396996 C55.995712,29.0752596 56.1174671,28.9334786 56.4120156,29.0075329 C56.7865984,29.1016827 57.150751,29.0219266 57.4849342,28.8603282 C57.9398294,28.6404599 58.2530132,28.3047469 58.2142824,27.7479835 C58.2096236,27.6804654 58.2360467,27.611348 58.239593,27.5425783 C58.2534999,27.2738967 58.3254682,27.2013026 58.6353143,27.2773039 C59.300204,27.4405016 60.1828064,27.3371037 60.5697664,26.4718153 C60.6405526,26.3136241 60.7432551,26.3454014 60.8527026,26.3915724 C61.1199935,26.504427 61.4000093,26.5044966 61.6807204,26.4905897 C62.4038105,26.4547793 62.9961756,25.8877248 63.0497868,25.1657473 C63.1000603,24.4883414 63.2371825,23.8210875 63.4174161,23.1659327 C63.5960504,22.5165492 63.6335991,21.8333024 63.6883924,21.1594428 C63.7121732,20.8678148 63.9382301,20.6787502 63.9903115,20.3956749 C64.334021,18.5269331 64.3196273,16.6298211 64.4614083,14.7455034 C64.5332375,13.7903069 64.5609818,12.8318422 64.6081958,11.8747682 C64.6128546,11.7812442 64.6106295,11.678333 64.7155572,11.6402976 C64.8087335,11.6065038 64.8570601,11.697455 64.9183896,11.7454339 C65.4768218,12.1818329 66.1009642,12.241285 66.7471491,12.0157148 C67.1659559,11.8695531 67.5108474,11.5968385 67.5887261,11.1257417 C67.6618765,10.6832236 67.7049184,10.2336826 67.7271695,9.78553217 C67.7398248,9.53089653 67.8402327,9.50190061 68.0542602,9.54640274 C68.429886,9.62455961 68.8088494,9.63846653 69.1841276,9.53187002 C69.1882996,10.4116215 69.194071,11.2913035 69.1962266,12.1710551 C69.1983126,13.0173605 69.1961571,13.0116586 70.0652698,12.9398294 C70.3407658,12.9170916 70.5858752,12.9405943 70.7674995,13.2391758 C70.9690108,13.5702299 70.9560773,13.9268033 70.9995364,14.2732941 C71.0715047,14.8468153 71.3778046,15.2004682 71.8992444,15.3942611 C72.2670823,15.5309661 72.6430558,15.5411181 73.0262609,15.4592064 C73.221514,15.4174856 73.4339421,15.3941915 73.5399128,15.6178148 C73.9737391,16.5335157 75.7575793,16.5543065 76.3822084,15.9558919 C76.4550111,15.8860792 76.5376182,15.8146672 76.5807992,15.7274708 C76.6516549,15.5842991 76.8049091,15.5020397 76.9646301,15.5005795 C77.7328481,15.4935565 78.186005,15.1633367 78.4471074,14.4458789 C78.4800668,14.3552058 78.5286714,14.2838633 78.5980669,14.2189876 C78.8215511,14.0102448 78.9072177,13.7458743 78.9348925,13.4447895 C79.0196551,12.5236649 79.1302846,11.6047654 79.206425,10.6829455 C79.2339607,10.3498748 79.4623123,10.4629381 79.6328806,10.4351938 C79.86603,10.3972974 79.8236139,10.5762099 79.8310541,10.7043621 C79.8670035,11.3279483 79.9037178,11.9515344 79.9308363,12.5755377 C79.9562859,13.1620619 80.2817773,13.5155062 80.8073197,13.6987298 C81.3734007,13.896208 81.9475477,13.8924532 82.5011821,13.6535324 C82.7710458,13.5371315 82.8498285,13.6315594 82.8622752,13.9229789 C82.8788244,14.3119553 82.925343,14.6990543 82.9774244,15.0849017 C83.0400751,15.5493927 82.9382069,16.0653393 83.1949286,16.4652327 C83.4515808,16.8650566 83.4688949,17.2854626 83.528486,17.7146301 C83.515483,17.9835203 83.6180465,18.208117 83.7957074,18.4023271 C84.4455776,19.112901 85.780433,19.100941 86.4072872,18.3731921 C86.5670777,18.1876738 86.693283,17.9780966 86.6432181,17.7119878 C86.6814621,17.0092017 86.725547,16.3067634 86.7534999,15.6036992 C86.7599666,15.4412665 86.8192101,15.3578945 86.9596699,15.2875255 C87.379033,15.0774615 87.5820045,14.7224179 87.6130864,14.2595958 C87.6277582,14.0409095 87.6160764,13.8113063 87.6812998,13.6073614 C87.7796217,13.2997404 87.9113202,13.0033145 88.2824958,12.8984563 C88.7198683,12.7748934 89.0961895,12.5494623 89.2336594,12.0766271 C89.4973345,11.1698266 89.8173327,10.2753338 89.8742119,9.32020675 C89.912595,9.16577044 89.9573753,9.01251622 89.9876924,8.85655016 C90.0266317,8.65608196 89.979835,8.54746894 89.7329177,8.52500927" id="path-1"></path>
    </defs>
    <g id="ui/icon" stroke="none" stroke-width="1" fill="none" fill-rule="evenodd">
        <g id="ui/icn-sparkline-up">
            <g id="Rectangle-2" transform="translate(5.000000, 17.000000)">
                <mask id="mask-2" fill="white">
                    <use xlink:href="#path-1"></use>
                </mask>
                <use id="Mask" fill="#CBCBCB" xlink:href="#path-1"></use>
                <rect fill="#00CA91" mask="url(#mask-2)" x="61" y="-5" width="29" height="35"></rect>
            </g>
        </g>
    </g>
</svg>