<?xml version="1.0" encoding="UTF-8"?>
<svg width="100px" height="100px" viewBox="0 0 100 100" version="1.1" xmlns="http://www.w3.org/2000/svg" xmlns:xlink="http://www.w3.org/1999/xlink">
    <!-- Generator: Sketch 45.2 (43514) - http://www.bohemiancoding.com/sketch -->
    <title>ui/icn-fax</title>
    <desc>Created with Sketch.</desc>
    <defs></defs>
    <g id="Page-1" stroke="none" stroke-width="1"  fill-rule="evenodd">
        <g id="ui/icn-fax" fill-rule="nonzero">
            <g id="printer-" transform="translate(5.000000, 7.000000)">
                <path d="M22.5,68.3125 L22.5,85.1875 L67.5,85.1875 L67.5,68.3125 L67.5,57.0625 L22.5,57.0625 L22.5,68.3125 Z M28.125,62.6875 L61.875,62.6875 L61.875,68.3125 L28.125,68.3125 L28.125,62.6875 Z M28.125,73.9375 L61.875,73.9375 L61.875,79.5625 L28.125,79.5625 L28.125,73.9375 Z" id="Shape"></path>
                <polygon id="Shape" points="67.5 17.6875 67.5 0.8125 22.5 0.8125 22.5 17.6875 22.5 28.9375 67.5 28.9375"></polygon>
                <path d="M78.75,17.6875 L73.125,17.6875 L73.125,28.9375 L73.125,34.5625 L16.875,34.5625 L16.875,28.9375 L16.875,17.6875 L11.25,17.6875 C5.625,17.6875 0,23.3125 0,28.9375 L0,57.0625 C0,62.6875 5.625,68.3125 11.25,68.3125 L16.875,68.3125 L16.875,57.0625 L16.875,51.4375 L73.125,51.4375 L73.125,57.0625 L73.125,68.3125 L78.75,68.3125 C84.375,68.3125 90,62.6875 90,57.0625 L90,28.9375 C90,23.3125 84.375,17.6875 78.75,17.6875 Z" id="Shape"></path>
            </g>
        </g>
    </g>
</svg>