<?xml version="1.0" encoding="UTF-8"?>
<svg width="100px" height="100px" viewBox="0 0 100 100" version="1.1" xmlns="http://www.w3.org/2000/svg" xmlns:xlink="http://www.w3.org/1999/xlink">
    <!-- Generator: Sketch 45.2 (43514) - http://www.bohemiancoding.com/sketch -->
    <title>ui/icn-message</title>
    <desc>Created with Sketch.</desc>
    <defs></defs>
    <g id="Page-1" stroke="none" stroke-width="1" fill-rule="evenodd">
        <g id="ui/icn-message" fill-rule="nonzero">
            <g id="chat" transform="translate(5.000000, 7.000000)">
                <path d="M65.6505931,20.8551724 L8.83365517,20.8551724 C3.96248276,20.8551724 0,24.8176552 0,29.6888276 L0,61.1801379 C0,66.0513103 3.96248276,70.0137931 8.83216552,70.0137931 L17.8758621,70.0137931 L17.8758621,84.9103448 C17.8758621,85.5255724 18.2542345,86.0782345 18.8277517,86.3001931 C19.003531,86.3687172 19.185269,86.4 19.3655172,86.4 C19.7766621,86.4 20.1803586,86.2301793 20.4678621,85.9128828 L34.9204966,70.0137931 L65.6491034,70.0137931 C70.5202759,70.0137931 74.4827586,66.0513103 74.4827586,61.1801379 L74.4827586,29.6888276 C74.4827586,24.8176552 70.5202759,20.8551724 65.6505931,20.8551724 Z M17.8758621,52.137931 C14.5896828,52.137931 11.9172414,49.4654897 11.9172414,46.1793103 C11.9172414,42.893131 14.5896828,40.2206897 17.8758621,40.2206897 C21.1620414,40.2206897 23.8344828,42.893131 23.8344828,46.1793103 C23.8344828,49.4654897 21.1620414,52.137931 17.8758621,52.137931 Z M37.2413793,52.137931 C33.9552,52.137931 31.2827586,49.4654897 31.2827586,46.1793103 C31.2827586,42.893131 33.9552,40.2206897 37.2413793,40.2206897 C40.5275586,40.2206897 43.2,42.893131 43.2,46.1793103 C43.2,49.4654897 40.5275586,52.137931 37.2413793,52.137931 Z M56.6068966,52.137931 C53.3207172,52.137931 50.6482759,49.4654897 50.6482759,46.1793103 C50.6482759,42.893131 53.3207172,40.2206897 56.6068966,40.2206897 C59.8930759,40.2206897 62.5655172,42.893131 62.5655172,46.1793103 C62.5655172,49.4654897 59.8930759,52.137931 56.6068966,52.137931 Z" id="Shape"></path>
                <path d="M80.5456552,0 L23.7302069,0 C18.8590345,0 14.8965517,3.96248276 14.8965517,8.83365517 L14.8965517,17.8758621 L65.6505931,17.8758621 C72.1633655,17.8758621 77.462069,23.1760552 77.462069,29.6888276 L77.462069,49.1586207 L80.5456552,49.1586207 C85.4168276,49.1586207 89.3793103,45.1961379 89.3793103,40.3249655 L89.3793103,8.83365517 C89.3793103,3.96248276 85.4168276,0 80.5456552,0 Z" id="Shape"></path>
            </g>
        </g>
    </g>
</svg>