<?xml version="1.0" encoding="UTF-8"?>
<svg width="95px" height="95px" viewBox="0 0 95 95" version="1.1" xmlns="http://www.w3.org/2000/svg" xmlns:xlink="http://www.w3.org/1999/xlink">
    <!-- Generator: Sketch 46.2 (44496) - http://www.bohemiancoding.com/sketch -->
    <title>ui/icn-geometric-variety</title>
    <desc>Created with Sketch.</desc>
    <defs>
        <linearGradient x1="50%" y1="-92.378947%" x2="50%" y2="217.975439%" id="linearGradient-1">
            <stop stop-color="#68E0CF" offset="0%"></stop>
            <stop stop-color="#209CFF" offset="100%"></stop>
        </linearGradient>
        <linearGradient x1="70.5967665%" y1="111.611651%" x2="50%" y2="0%" id="linearGradient-2">
            <stop stop-color="#68E0CF" offset="0%"></stop>
            <stop stop-color="#209CFF" offset="100%"></stop>
        </linearGradient>
    </defs>
    <g id="Exportable" stroke="none" stroke-width="1" fill="none" fill-rule="evenodd">
        <g id="ui/icn-geometric-variety" fill-rule="nonzero">
            <g id="Group" transform="translate(19.000000, 19.000000)" fill="url(#linearGradient-1)">
                <path d="M25.9280918,44.8133194 L31.0719082,44.8133194 L28.5,40.9089281 L25.9280918,44.8133194 Z M32.9280918,45.8133194 L24.0719082,45.8133194 L28.5,39.0910719 L32.9280918,45.8133194 Z" id="Triangle"></path>
                <path d="M44.4031784,32.8148879 L45.7963612,33.5473274 L45.530287,31.9959955 L46.6573956,30.8973362 L45.0997698,30.6709999 L44.4031784,29.2595515 L43.7065869,30.6709999 L42.1489611,30.8973362 L43.2760698,31.9959955 L43.0099955,33.5473274 L44.4031784,32.8148879 Z M41.6818645,35.375343 L42.2015892,32.3451154 L40,30.1990963 L43.0425214,29.7569921 L44.4031784,27 L45.7638353,29.7569921 L48.8063568,30.1990963 L46.6047676,32.3451154 L47.1244923,35.375343 L44.4031784,33.9446636 L41.6818645,35.375343 Z" id="Star"></path>
                <polygon id="Line" points="13.1000004 17.5 13.1000004 20.5 14.1000004 20.5 14.1000004 17.5"></polygon>
                <polygon id="Line-Copy-2" points="44.0999985 17.5 44.0999985 20.5 45.0999985 20.5 45.0999985 17.5"></polygon>
                <polygon id="Line-Copy-4" points="28.0999985 5.5 28.0999985 8.5 29.0999985 8.5 29.0999985 5.5"></polygon>
                <polygon id="Line-Copy" points="13.1000004 23.5 13.1000004 26.5 14.1000004 26.5 14.1000004 23.5"></polygon>
                <polygon id="Line-Copy-3" points="44.0999985 23.5 44.0999985 26.5 45.0999985 26.5 45.0999985 23.5"></polygon>
                <polygon id="Line-Copy-5" points="28.0999985 11.5 28.0999985 14.5 29.0999985 14.5 29.0999985 11.5"></polygon>
                <path d="M7.02488453,25.0248845 L5.15047804,40.1257577 L20.2513512,38.2513512 L22.1257577,23.150478 L7.02488453,25.0248845 Z M6.12847753,24.1284775 L23.2762357,22 L21.1477582,39.1477582 L4,41.2762357 L6.12847753,24.1284775 Z" id="Rectangle-3-Copy" transform="translate(13.638118, 31.638118) rotate(45.000000) translate(-13.638118, -31.638118) "></path>
                <path d="M38.0248845,25.0248845 L36.150478,40.1257577 L51.2513512,38.2513512 L53.1257577,23.150478 L38.0248845,25.0248845 Z M37.1284775,24.1284775 L54.2762357,22 L52.1477582,39.1477582 L35,41.2762357 L37.1284775,24.1284775 Z" id="Rectangle-3-Copy-2" transform="translate(44.638118, 31.638118) rotate(45.000000) translate(-44.638118, -31.638118) "></path>
                <path d="M22.0248845,37.0248845 L20.150478,52.1257577 L35.2513512,50.2513512 L37.1257577,35.150478 L22.0248845,37.0248845 Z M21.1284775,36.1284775 L38.2762357,34 L36.1477582,51.1477582 L19,53.2762357 L21.1284775,36.1284775 Z" id="Rectangle-3-Copy-3" transform="translate(28.638118, 43.638118) rotate(45.000000) translate(-28.638118, -43.638118) "></path>
                <path d="M22.0248845,13.0248845 L20.150478,28.1257577 L35.2513512,26.2513512 L37.1257577,11.150478 L22.0248845,13.0248845 Z M21.1284775,12.1284775 L38.2762357,10 L36.1477582,27.1477582 L19,29.2762357 L21.1284775,12.1284775 Z" id="Rectangle-3-Copy-4" transform="translate(28.638118, 19.638118) rotate(45.000000) translate(-28.638118, -19.638118) "></path>
                <path d="M13.6000004,17 C12.2192885,17 11.1000004,15.8807119 11.1000004,14.5 C11.1000004,13.1192881 12.2192885,12 13.6000004,12 C14.9807123,12 16.1000004,13.1192881 16.1000004,14.5 C16.1000004,15.8807119 14.9807123,17 13.6000004,17 Z M13.6000004,16 C14.4284275,16 15.1000004,15.3284271 15.1000004,14.5 C15.1000004,13.6715729 14.4284275,13 13.6000004,13 C12.7715733,13 12.1000004,13.6715729 12.1000004,14.5 C12.1000004,15.3284271 12.7715733,16 13.6000004,16 Z" id="Oval-5"></path>
                <path d="M13.5,35.5 C11.290861,35.5 9.5,33.709139 9.5,31.5 C9.5,29.290861 11.290861,27.5 13.5,27.5 C15.709139,27.5 17.5,29.290861 17.5,31.5 C17.5,33.709139 15.709139,35.5 13.5,35.5 Z M13.5,34.5 C15.1568542,34.5 16.5,33.1568542 16.5,31.5 C16.5,29.8431458 15.1568542,28.5 13.5,28.5 C11.8431458,28.5 10.5,29.8431458 10.5,31.5 C10.5,33.1568542 11.8431458,34.5 13.5,34.5 Z" id="Oval-5-Copy-3"></path>
                <path d="M28.5,5 C27.1192881,5 26,3.88071187 26,2.5 C26,1.11928813 27.1192881,0 28.5,0 C29.8807119,0 31,1.11928813 31,2.5 C31,3.88071187 29.8807119,5 28.5,5 Z M28.5,4 C29.3284271,4 30,3.32842712 30,2.5 C30,1.67157288 29.3284271,1 28.5,1 C27.6715729,1 27,1.67157288 27,2.5 C27,3.32842712 27.6715729,4 28.5,4 Z" id="Oval-5-Copy-2"></path>
                <path d="M44.5999985,17 C43.2192866,17 42.0999985,15.8807119 42.0999985,14.5 C42.0999985,13.1192881 43.2192866,12 44.5999985,12 C45.9807103,12 47.0999985,13.1192881 47.0999985,14.5 C47.0999985,15.8807119 45.9807103,17 44.5999985,17 Z M44.5999985,16 C45.4284256,16 46.0999985,15.3284271 46.0999985,14.5 C46.0999985,13.6715729 45.4284256,13 44.5999985,13 C43.7715713,13 43.0999985,13.6715729 43.0999985,14.5 C43.0999985,15.3284271 43.7715713,16 44.5999985,16 Z" id="Oval-5-Copy"></path>
                <path d="M26,22 L31,22 L31,17 L26,17 L26,22 Z M25,16 L32,16 L32,23 L25,23 L25,16 Z" id="Rectangle-3"></path>
            </g>
            <path d="M48,91 C24.2541542,91 5,71.7507274 5,48 C5,24.2492726 24.2541542,5 48,5 C71.7458458,5 91,24.2492726 91,48 C91,71.7507274 71.7458458,91 48,91 Z M48,89.6756667 C71.0310932,89.6756667 89.6971404,71.014352 89.6971404,48 C89.6971404,24.985648 71.0310932,6.32433329 48,6.32433329 C24.9689068,6.32433329 6.3028596,24.985648 6.3028596,48 C6.3028596,71.014352 24.9689068,89.6756667 48,89.6756667 Z" id="Oval-Copy-3" fill="url(#linearGradient-2)"></path>
        </g>
    </g>
</svg>