<?xml version="1.0" encoding="UTF-8"?>
<svg width="100px" height="100px" viewBox="0 0 100 100" version="1.1" xmlns="http://www.w3.org/2000/svg" xmlns:xlink="http://www.w3.org/1999/xlink">
    <!-- Generator: Sketch 46.2 (44496) - http://www.bohemiancoding.com/sketch -->
    <title>icn-file-empty</title>
    <desc>Created with Sketch.</desc>
    <defs></defs>
    <g id="Exportable" stroke="none" stroke-width="1" fill-rule="evenodd">
        <g id="icn-file-empty" fill-rule="nonzero">
            <g id="folder" transform="translate(0.000000, 4.000000)">
                <path d="M99.4890856,35.6123571 C99.0868262,35.1456964 98.4992938,34.8766607 97.8783789,34.8766607 L93.3967754,34.8766607 L93.3967754,11.2397143 C93.3967754,9.62051786 92.0731584,8.30357143 90.4457605,8.30357143 L39.262009,8.30357143 L35.1142307,1.42655357 C34.5851177,0.546375 33.6153554,0 32.5838355,0 L9.55323377,0 C7.92583584,0 6.60221885,1.31694643 6.60221885,2.93614286 L6.60221885,34.875 L2.12228443,34.875 C1.50470778,34.875 0.917175397,35.142375 0.51491601,35.607375 C0.110987497,36.072375 -0.0692781209,36.6885 0.02419294,37.3013036 L8.23295504,91.20975 C8.39486027,92.2476964 9.27615884,93 10.3293774,93 L89.6696168,93 C90.7245045,93 91.6058031,92.2476964 91.7677083,91.2047679 L99.9748013,37.3079464 C100.069941,36.6984643 99.8930141,36.0806786 99.4890856,35.6123571 Z M10,3 L32.39,3 L36.5316667,9.97431579 C37.06,10.8669474 38.0283333,11.4210526 39.0583333,11.4210526 L90,11.4210526 L90,35 L86.6666667,35 L86.6666667,23.2105263 L13.3333333,23.2105263 L13.3333333,35 L10,35 L10,3 Z M84,35 L17,35 L17,27 L84,27 L84,35 Z M89.1539498,89 L11.8443798,89 L4,38 L7.06859575,38 L13.7503503,38 L87.2496497,38 L93.9314042,38 L97,38 L89.1539498,89 Z" id="Shape"></path>
            </g>
        </g>
    </g>
</svg>
