<?xml version="1.0" encoding="UTF-8"?>
<svg width="100px" height="100px" viewBox="0 0 100 100" version="1.1" xmlns="http://www.w3.org/2000/svg" xmlns:xlink="http://www.w3.org/1999/xlink">
    <!-- Generator: Sketch 45.2 (43514) - http://www.bohemiancoding.com/sketch -->
    <title>ui/icn-security</title>
    <desc>Created with Sketch.</desc>
    <defs></defs>
    <g id="ui/icon" stroke="none" stroke-width="1" fill="none" fill-rule="evenodd">
        <g id="ui/icn-security" fill-rule="nonzero">
            <g transform="translate(2.000000, 12.000000)">
                <g id="locked" transform="translate(37.000000, 0.000000)" stroke="#4286C6">
                    <rect id="Rectangle-path" x="0.0561542893" y="67.6066399" width="59.9139063" height="8.17007813"></rect>
                    <path d="M0.0561542893,29.4796086 L0.0561542893,64.8832805 L59.9700605,64.8832805 L59.9700605,29.4796086 L0.0561542893,29.4796086 Z M15.0346309,13.9578218 C15.0346309,6.74908958 21.4481422,0.884335167 29.3322676,0.884335167 C37.216393,0.884335167 43.6299043,6.74908958 43.6299043,13.9578218 L43.6299043,29.4796086 L15.0346309,29.4796086 L15.0346309,13.9578218 Z M35.4598262,53.989843 C35.4598262,56.9937084 33.0169728,59.4365617 30.0131074,59.4365617 C27.009242,59.4365617 24.5663887,56.9937084 24.5663887,53.989843 L24.5663887,45.8197649 C24.5663887,42.8158995 27.009242,40.3730461 30.0131074,40.3730461 C33.0169728,40.3730461 35.4598262,42.8158995 35.4598262,45.8197649 L35.4598262,53.989843 Z" id="Shape"></path>
                </g>
                <g id="Group-4" transform="translate(0.000000, 4.000000)" fill="#4286C6">
                    <path d="M33.8743808,65.7667671 C33.8224246,65.7667671 33.7691531,65.7595327 33.7158816,65.7437485 L0.410018656,56.0739862 C0.10880454,55.9865157 -0.0648210634,55.6721482 0.0226494113,55.3702764 L15.9791055,0.409223034 C16.0211965,0.264535031 16.1191898,0.142207901 16.251382,0.0698638996 C16.3835742,-0.00248010201 16.5394426,-0.0189219205 16.683473,0.0218537894 L49.989336,9.69161611 C50.2898924,9.77908659 50.4641757,10.0947695 50.3760475,10.3959836 L45.9624058,25.6007197 C45.8742776,25.9019339 45.5599101,26.0755595 45.2593536,25.988089 C44.9574818,25.9006185 44.7831985,25.5855933 44.8713267,25.2843791 L49.1264693,10.6255114 L16.9123431,1.27208967 L1.27222762,55.1414063 L33.4863539,64.494828 L36.1167246,54.8829065 C36.2041951,54.5823501 36.5185626,54.4060938 36.8210921,54.4955373 C37.1223062,54.5830077 37.2959318,54.8986906 37.2084613,55.1992471 L34.4195915,65.357037 C34.3479051,65.6049796 34.1210081,65.7667671 33.8743808,65.7667671 Z" id="Shape"></path>
                    <path d="M26.1354453,57.619927 C26.0834891,57.619927 26.0295599,57.6126926 25.9769461,57.5969084 L6.89062548,52.0566733 C6.58941137,51.9692028 6.41578576,51.6541776 6.50325624,51.3536211 C6.59072671,51.052407 6.90575195,50.8761507 7.20762374,50.9655942 L26.2932867,56.506487 C26.5945008,56.5932998 26.7681264,56.9089828 26.680656,57.2095392 C26.6089696,57.4581395 26.3814149,57.619927 26.1354453,57.619927 Z M26.1354453,53.9126257 C26.0834891,53.9126257 26.0295599,53.906049 25.9769461,53.8909225 L7.88371132,48.6374327 C7.58249721,48.5506199 7.4088716,48.2355946 7.49634208,47.9337228 C7.58381255,47.6331664 7.89752245,47.4575678 8.20005191,47.5470113 L26.2932867,52.7991858 C26.5945008,52.8859986 26.7681264,53.2016815 26.680656,53.5035533 C26.6089696,53.7514959 26.3814149,53.9126257 26.1354453,53.9126257 Z M26.1354453,50.2033515 C26.0834891,50.2033515 26.0295599,50.1967748 25.9769461,50.1816483 L8.87745483,45.2181921 C8.57624072,45.1307216 8.40261511,44.8156964 8.49008559,44.5144823 C8.57755606,44.2132681 8.89258131,44.0383272 9.1944531,44.127113 L26.2939444,49.0905692 C26.5951585,49.177382 26.7687841,49.4924072 26.6813136,49.7936214 C26.6089696,50.0422217 26.3814149,50.2033515 26.1354453,50.2033515 Z M26.1354453,46.4967079 C26.0834891,46.4967079 26.0295599,46.4894735 25.9769461,46.474347 L9.86856766,41.7969785 C9.56735354,41.7101657 9.39372794,41.3951405 9.48119841,41.0932687 C9.56932656,40.7927122 9.88369413,40.6171136 10.1855659,40.7065571 L26.2932867,45.383268 C26.5945008,45.4700808 26.7681264,45.7857637 26.680656,46.0876355 C26.6089696,46.3349204 26.3814149,46.4967079 26.1354453,46.4967079 Z M26.1367606,42.7880913 C26.0841468,42.7880913 26.0308753,42.7808569 25.9782615,42.7657304 L10.8623112,38.3783956 C10.5610971,38.2909251 10.3874714,37.9758999 10.4749419,37.6753434 C10.5624124,37.3734716 10.87678,37.1965577 11.1793094,37.2873165 L26.2946021,41.6746514 C26.5958162,41.7621218 26.7694418,42.0764894 26.6819713,42.3777035 C26.610285,42.6256462 26.3827302,42.7880913 26.1367606,42.7880913 Z" id="Shape"></path>
                    <path d="M15.9603284,34.3945259 C15.9077146,34.3945259 15.8544431,34.3866338 15.8018293,34.372165 C15.5006152,34.2853522 15.3269896,33.9696693 15.4138024,33.6684552 L16.0043925,31.6316427 C16.091863,31.3304286 16.4068882,31.1561453 16.7081023,31.2442735 C17.0099741,31.3317439 17.1835997,31.6467692 17.0961293,31.9479833 L16.5055391,33.9841381 C16.4338528,34.2327384 16.2069557,34.3945259 15.9603284,34.3945259 Z M19.6939366,21.5311047 C19.6413228,21.5311047 19.5880513,21.5238703 19.5347798,21.5080862 C19.2335657,21.4206157 19.0599401,21.1055905 19.1474105,20.8037187 L19.6590799,19.0418134 C19.7465504,18.7399416 20.060918,18.5669737 20.3627898,18.6544442 C20.6640039,18.7425723 20.8376295,19.0575976 20.750159,19.358154 L20.2384896,21.1213746 C20.167461,21.3693172 19.9405639,21.5311047 19.6939366,21.5311047 Z" id="Shape"></path>
                    <path d="M16.9883014,32.337366 C16.6588073,32.337366 16.3135291,32.2919866 15.9577282,32.1887319 C13.2803424,31.4107051 12.8423324,29.3929651 12.9850474,28.4340783 C13.0310845,28.122999 13.3217758,27.9099131 13.6302243,27.9546348 C13.9406459,28.0006719 14.1550472,28.2900479 14.1090101,28.6004695 C14.0859915,28.7793564 13.9445919,30.4195923 16.2740688,31.0963375 C17.5815222,31.4758147 18.4845068,30.715545 18.6528711,30.5590189 C19.4986382,29.7777037 19.255957,28.2334881 18.4746418,27.3752251 C17.8630061,26.7024259 17.4730062,26.4702674 17.0606454,26.2242978 C16.663411,25.9875357 16.2523656,25.7428814 15.7341194,25.1575527 C15.1448447,24.4926455 14.8133776,24.0631852 14.86073,22.9510606 C14.894929,22.1342311 15.1961431,21.4436747 15.7314887,20.9556815 C16.3424667,20.397975 17.1099708,20.2276378 17.6222979,20.2546024 C18.9876265,20.319712 19.7702571,20.5781774 20.7205942,21.2779411 C21.9806951,22.2052597 21.9188739,23.5817688 21.9162432,23.6403016 C21.8991437,23.9533539 21.6321286,24.1894584 21.3171033,24.1756472 C21.0053665,24.1585478 20.7666313,23.8935056 20.7811001,23.5824264 C20.7824154,23.5383624 20.7949112,22.7438937 20.0471373,22.1927639 C19.3730227,21.6968787 18.829785,21.4495937 17.5670534,21.3890878 C17.3500214,21.3759344 16.8758393,21.4509091 16.4983352,21.7948719 C16.187256,22.0783289 16.0188917,22.4834553 15.9971885,22.998413 C15.9669356,23.7054112 16.0978125,23.8540453 16.5858056,24.403202 C16.986986,24.8556809 17.2770197,25.0293065 17.6433434,25.2476538 C18.0872725,25.5120383 18.5910498,25.8125947 19.3164629,26.6103517 C20.481859,27.8914982 20.8041186,30.1196935 19.4256365,31.3922902 C18.8843719,31.8967252 18.0155862,32.337366 16.9883014,32.337366 Z" id="Shape"></path>
                </g>
            </g>
        </g>
    </g>
</svg>