<?xml version="1.0" encoding="UTF-8"?>
<svg width="52px" height="52px" viewBox="0 0 52 52" version="1.1" xmlns="http://www.w3.org/2000/svg" xmlns:xlink="http://www.w3.org/1999/xlink">
    <!-- Generator: Sketch 46.2 (44496) - http://www.bohemiancoding.com/sketch -->
    <title>ui/icn-handshake copy</title>
    <desc>Created with Sketch.</desc>
    <defs></defs>
    <g id="ui/icon" stroke="none" stroke-width="1" fill="" fill-rule="evenodd">
        <g id="ui/icn-handshake-copy" fill-rule="nonzero">
            <g id="schedule" transform="translate(1.000000, 1.000000)">
                <path d="M37.5685322,34.4844705 L37.5685322,29.4422287 C37.5685322,29.0342461 37.2378917,28.7037037 36.8300071,28.7037037 C36.4221225,28.7037037 36.0914821,29.0342461 36.0914821,29.4422287 L36.0914821,34.4844705 C35.2235633,34.7900163 34.5997283,35.6175486 34.5997283,36.5885904 C34.5997283,37.008042 34.7162807,37.4007327 34.9185076,37.7361763 L32.6021622,40.2575913 C32.3261221,40.5579418 32.3459232,41.0250339 32.6462737,41.301074 C32.7880188,41.43135 32.9671116,41.4957529 33.1457143,41.4957529 C33.3451964,41.4957529 33.5440904,41.4153719 33.6897564,41.2568644 L36.056683,38.6803591 C36.297728,38.7697584 36.5582801,38.8187713 36.8300071,38.8187713 C38.0597385,38.8187713 39.060286,37.8182238 39.060286,36.5884924 C39.060286,35.6176466 38.4362549,34.7900163 37.5685322,34.4844705 Z M36.8300071,37.3417212 C36.4146726,37.3417212 36.0767783,37.0038269 36.0767783,36.5884924 C36.0766803,36.1731578 36.4146726,35.8352635 36.8300071,35.8352635 C37.2453417,35.8352635 37.583236,36.1731578 37.583236,36.5884924 C37.583236,37.0039249 37.2453417,37.3417212 36.8300071,37.3417212 Z" id="Shape"></path>
                <path d="M47.086508,28.1116889 L47.086508,14.5205349 C47.1025842,14.4599551 47.1118966,14.3967286 47.1118966,14.3311494 L47.1118966,6.33774836 C47.1118966,5.92976573 46.7812562,5.59922335 46.3733716,5.59922335 L46.3479829,5.59922335 L41.7593057,5.59922335 L41.7593057,2.93047587 C41.7593057,1.31462157 40.4446841,0 38.8289279,0 C37.2130736,0 35.89855,1.31462157 35.89855,2.93047587 L35.89855,5.59932137 L11.2388332,5.59932137 L11.2388332,2.93047587 C11.2388332,1.31462157 9.92421167,0 8.3084554,0 C6.69269912,0 5.37807755,1.3147196 5.37807755,2.93047587 L5.37807755,5.59932137 L0.763913647,5.59932137 L0.738525012,5.59932137 C0.330640412,5.59932137 0,5.92986376 0,6.33784638 L0,42.0318169 C0,42.4397996 0.330640412,42.7703419 0.738525012,42.7703419 L25.0199609,42.7703419 C27.2409274,47.0497484 31.7141304,49.9805183 36.8593971,49.9805183 C44.209456,49.9805183 50.1891168,44.0007595 50.1891168,36.6508966 C50.1891168,33.4044842 49.0222199,30.4260738 47.086508,28.1116889 Z M37.3756981,2.93047587 C37.3756981,2.12901841 38.0277645,1.47705002 38.8290259,1.47705002 C39.6304833,1.47705002 40.2823537,2.12911644 40.2823537,2.93047587 L40.2823537,8.70506705 C40.2823537,8.80524923 40.272159,8.9030788 40.252848,8.9975755 C40.1170825,9.65924842 39.5302031,10.1584929 38.8290259,10.1584929 C38.0275684,10.1584929 37.3756981,9.50642648 37.3756981,8.70506705 L37.3756981,2.93047587 L37.3756981,2.93047587 Z M6.85512757,2.93047587 C6.85512757,2.12901841 7.50709596,1.47705002 8.3084554,1.47705002 C9.10981483,1.47705002 9.76178322,2.12911644 9.76178322,2.93047587 L9.76178322,8.70506705 C9.76178322,9.50652451 9.10971681,10.1584929 8.3084554,10.1584929 C7.50719399,10.1584929 6.85512757,9.50642648 6.85512757,8.70506705 L6.85512757,2.93047587 L6.85512757,2.93047587 Z M1.50243866,7.07627337 L5.37817557,7.07627337 L5.37817557,8.70506705 C5.37817557,10.3209214 6.69269912,11.6355429 8.30855342,11.6355429 C9.92440772,11.6355429 11.2389313,10.3209214 11.2389313,8.70506705 L11.2389313,7.07627337 L35.8988441,7.07627337 L35.8988441,8.70506705 C35.8988441,10.3209214 37.2134657,11.6355429 38.8292219,11.6355429 C40.4450762,11.6355429 41.7595998,10.3209214 41.7595998,8.70506705 L41.7595998,7.07627337 L45.60985,7.07627337 L45.60985,13.5927224 L1.50243866,13.5927224 L1.50243866,7.07627337 Z M1.476952,41.2931939 L1.476952,15.0696744 L45.609556,15.0696744 L45.609556,26.5959188 C44.6253787,25.739567 43.5263155,25.0370174 42.3501061,24.5051304 C42.3060926,24.4851331 42.261589,24.4661162 42.2172814,24.4466091 C42.1723857,24.4269059 42.127686,24.4068107 42.0825942,24.3875976 C42.0036836,24.3538768 41.9242828,24.3213323 41.844588,24.2890819 C41.8344914,24.2849648 41.8243947,24.2807497 41.8142001,24.2766326 C41.1551738,24.0117674 40.4702688,23.7983657 39.7644844,23.6408385 L39.7644844,19.3014404 C39.7644844,18.8934578 39.433844,18.5629154 39.0259594,18.5629154 L34.2677958,18.5629154 C33.8599112,18.5629154 33.5292708,18.8934578 33.5292708,19.3014404 L33.5292708,23.742197 C27.7853616,25.2249325 23.5297755,30.4501881 23.5297755,36.6507986 C23.5297755,36.7602932 23.5313439,36.8694938 23.5338925,36.9784983 C23.5344807,37.0034948 23.535559,37.0283933 23.5363432,37.0532918 C23.5388918,37.1403386 23.5420287,37.2273853 23.5463418,37.314138 C23.547322,37.3349194 23.5485964,37.3557008 23.5497727,37.3764823 C23.554772,37.4717632 23.5609476,37.566946 23.5679074,37.6618348 C23.5685936,37.6709512 23.5692798,37.6801656 23.569966,37.689282 C23.6646587,38.9284239 23.9286417,40.134335 24.3606406,41.2931939 L1.476952,41.2931939 Z M38.2874343,20.0399654 L38.2874343,23.3210789 L35.0062228,23.3210789 L35.0062228,20.0399654 L38.2874343,20.0399654 Z M36.8593971,48.5033703 C30.73309,48.5033703 25.6774187,43.8313712 25.0682875,37.8630814 C25.0679935,37.8602387 25.0677974,37.857396 25.0675033,37.8545532 C25.0580929,37.7607427 25.0496627,37.666442 25.0423108,37.5720434 C25.0407423,37.5517521 25.0396641,37.5312647 25.0381937,37.5109734 C25.0325082,37.4317687 25.0272148,37.352564 25.0229997,37.2729672 C25.0207451,37.2280715 25.0192747,37.1830777 25.0175103,37.138084 C25.0151577,37.080739 25.012511,37.02359 25.0109426,36.966147 C25.0082959,36.8612596 25.0067275,36.7560781 25.0067275,36.6507986 C25.0067275,30.1152346 30.3239311,24.7980309 36.8594952,24.7980309 C36.9648727,24.7980309 37.0700542,24.7995013 37.1750396,24.802246 C37.1933704,24.8027361 37.2116032,24.8038144 37.229934,24.8043046 C37.3177649,24.8070493 37.4055959,24.8102841 37.4931328,24.8148913 C37.5070524,24.8155775 37.520678,24.8167538 37.5345976,24.817538 C37.6275259,24.8228314 37.7203561,24.828909 37.8130884,24.8363589 C37.8197541,24.8369471 37.8265179,24.8376333 37.8332816,24.8381234 C39.1977983,24.9505588 40.5222224,25.2978635 41.7516597,25.8552372 C41.7940068,25.8745483 41.8358637,25.8945455 41.8780147,25.9143467 C41.921244,25.9345399 41.9645714,25.9546352 42.0076046,25.9753186 C42.0831824,26.0119802 42.158466,26.0493279 42.2331615,26.0875579 C42.2405135,26.0912829 42.2479634,26.0949099 42.2553153,26.0987328 C46.0856664,28.0653228 48.7123609,32.057024 48.7123609,36.6505045 C48.7121648,43.1862646 43.3950592,48.5033703 36.8593971,48.5033703 Z" id="Shape"></path>
                <path d="M43.4885638,44.0437502 C43.2379123,43.721834 42.773761,43.664195 42.452139,43.9150425 C40.9042164,45.1210517 39.0463369,45.7586103 37.0789627,45.7586103 C32.2541417,45.7586103 28.3289019,41.8333705 28.3289019,37.0085495 C28.3289019,35.0885217 28.9388173,33.2664215 30.0926768,31.7392804 C30.3385251,31.4137373 30.2740242,30.9506643 29.9485792,30.7048161 C29.6231341,30.4589678 29.1599631,30.5235667 28.9142128,30.8489137 C27.5650863,32.6346464 26.8518519,34.7646451 26.8518519,37.0086476 C26.8518519,42.6478654 31.4396469,47.2356604 37.0788647,47.2356604 C39.3782516,47.2356604 41.5502052,46.4903716 43.3598562,45.080175 C43.6816743,44.8294255 43.7393134,44.3653722 43.4885638,44.0437502 Z" id="Shape"></path>
                <path d="M37.2018921,26.8518519 C34.8622166,26.8518519 32.6602671,27.6209609 30.8339518,29.0757591 C30.5148784,29.3299395 30.4623367,29.7945809 30.7165171,30.1134583 C30.9705996,30.4324336 31.435143,30.4849754 31.7543144,30.230893 C33.3163526,28.9863597 35.2001109,28.3287058 37.2018921,28.3287058 C42.026713,28.3287058 45.9520509,32.2539457 45.9520509,37.0787666 C45.9520509,39.0830965 45.2927306,40.9688153 44.0453546,42.5320298 C43.7909781,42.8508091 43.8432258,43.3154506 44.1619071,43.5698271 C44.2979666,43.6784394 44.4605911,43.7310792 44.6220393,43.7310792 C44.83897,43.7310792 45.0539402,43.6359944 45.1997043,43.4531766 C46.6581295,41.625685 47.4289049,39.4213829 47.4289049,37.0787666 C47.4290029,31.4397449 42.8411099,26.8518519 37.2018921,26.8518519 Z" id="Shape"></path>
                <path d="M12.904096,18.5185185 L8.14593242,18.5185185 C7.73804782,18.5185185 7.40740741,18.8490609 7.40740741,19.2570435 L7.40740741,24.015109 C7.40740741,24.4230917 7.73804782,24.7536341 8.14593242,24.7536341 L12.904096,24.7536341 C13.3119806,24.7536341 13.642621,24.4230917 13.642621,24.015109 L13.642621,19.2570435 C13.642621,18.8491589 13.3119806,18.5185185 12.904096,18.5185185 Z M12.1655709,23.2766821 L8.88445743,23.2766821 L8.88445743,19.9956666 L12.165669,19.9956666 L12.165669,23.2766821 L12.1655709,23.2766821 Z" id="Shape"></path>
                <path d="M21.2374293,18.5185185 L16.4792658,18.5185185 C16.0713812,18.5185185 15.7407407,18.8490609 15.7407407,19.2570435 L15.7407407,24.015109 C15.7407407,24.4230917 16.0713812,24.7536341 16.4792658,24.7536341 L21.2374293,24.7536341 C21.6453139,24.7536341 21.9759543,24.4230917 21.9759543,24.015109 L21.9759543,19.2570435 C21.9758563,18.8491589 21.6453139,18.5185185 21.2374293,18.5185185 Z M20.4989043,23.2766821 L17.2176927,23.2766821 L17.2176927,19.9956666 L20.4989043,19.9956666 L20.4989043,23.2766821 L20.4989043,23.2766821 Z" id="Shape"></path>
                <path d="M30.4966885,18.5185185 L25.738525,18.5185185 C25.3306404,18.5185185 25,18.8490609 25,19.2570435 L25,24.015109 C25,24.4229936 25.3306404,24.7536341 25.738525,24.7536341 L30.4966885,24.7536341 C30.9045731,24.7536341 31.2352136,24.4230917 31.2352136,24.015109 L31.2352136,19.2570435 C31.2352136,18.8490609 30.9045731,18.5185185 30.4966885,18.5185185 Z M29.7582616,23.276486 L26.47705,23.276486 L26.47705,19.9953725 L29.7582616,19.9953725 L29.7582616,23.276486 L29.7582616,23.276486 Z" id="Shape"></path>
                <path d="M12.904096,28.7037037 L8.14593242,28.7037037 C7.73804782,28.7037037 7.40740741,29.0342461 7.40740741,29.4422287 L7.40740741,34.2003923 C7.40740741,34.6083749 7.73804782,34.9389173 8.14593242,34.9389173 L12.904096,34.9389173 C13.3119806,34.9389173 13.642621,34.6083749 13.642621,34.2003923 L13.642621,29.4422287 C13.642621,29.0342461 13.3119806,28.7037037 12.904096,28.7037037 Z M12.1655709,33.4618672 L8.88445743,33.4618672 L8.88445743,30.1806557 L12.165669,30.1806557 L12.165669,33.4618672 L12.1655709,33.4618672 Z" id="Shape"></path>
                <path d="M21.2374293,28.7037037 L16.4792658,28.7037037 C16.0713812,28.7037037 15.7407407,29.0342461 15.7407407,29.4422287 L15.7407407,34.2003923 C15.7407407,34.6083749 16.0713812,34.9389173 16.4792658,34.9389173 L21.2374293,34.9389173 C21.6453139,34.9389173 21.9759543,34.6083749 21.9759543,34.2003923 L21.9759543,29.4422287 C21.9758563,29.0342461 21.6453139,28.7037037 21.2374293,28.7037037 Z M20.4989043,33.4618672 L17.2176927,33.4618672 L17.2176927,30.1806557 L20.4989043,30.1806557 L20.4989043,33.4618672 L20.4989043,33.4618672 Z" id="Shape"></path>
            </g>
        </g>
    </g>
</svg>
