<?xml version="1.0" encoding="UTF-8"?>
<svg width="100px" height="100px" viewBox="0 0 100 100" version="1.1" xmlns="http://www.w3.org/2000/svg" xmlns:xlink="http://www.w3.org/1999/xlink">
    <!-- Generator: Sketch 46.2 (44496) - http://www.bohemiancoding.com/sketch -->
    <title>icn-downlaod</title>
    <desc>Created with Sketch.</desc>
    <defs></defs>
    <g id="Exportable" stroke="none" stroke-width="1" fill-rule="evenodd">
        <g id="icn-downlaod" fill-rule="nonzero" >
            <g id="Group" transform="translate(1.000000, 4.000000)">
                <path d="M96.1636248,46.4074402 C94.5878608,46.4074402 93.3272496,47.6297609 93.3272496,49.1576616 L93.3272496,74.1744907 C93.3272496,80.9787422 87.6124788,86.4995571 80.6160866,86.4995571 L18.3839134,86.4995571 C11.366511,86.4995571 5.67275042,80.9583702 5.67275042,74.1744907 L5.67275042,48.7502214 C5.67275042,47.2223206 4.41213922,46 2.83637521,46 C1.26061121,46 0,47.2223206 0,48.7502214 L0,74.1744907 C0,84.0141718 8.2570034,92 18.3839134,92 L80.6160866,92 C90.7640068,92 99,83.9937998 99,74.1744907 L99,49.1576616 C99,47.6501329 97.7393888,46.4074402 96.1636248,46.4074402 Z" id="Shape"></path>
                <path d="M47.0020136,67.1844078 C47.5517241,67.7145427 48.2917191,68 49.0105714,68 C49.7294236,68 50.4694186,67.7349325 51.0191291,67.1844078 L69.1595771,49.689955 C70.280141,48.6092954 70.280141,46.8761619 69.1595771,45.7955022 C68.0390133,44.7148426 66.2418827,44.7148426 65.1213189,45.7955022 L51.8648377,58.6002999 L51.8648377,2.75262369 C51.8648377,1.22338831 50.5962749,0 49.0105714,0 C47.4248679,0 46.1563051,1.22338831 46.1563051,2.75262369 L46.1563051,58.6002999 L32.8786811,45.7955022 C31.7581173,44.7148426 29.9609867,44.7148426 28.8404229,45.7955022 C27.719859,46.8761619 27.719859,48.6092954 28.8404229,49.689955 L47.0020136,67.1844078 Z" id="Shape"></path>
            </g>
        </g>
    </g>
</svg>
