<?xml version="1.0" encoding="UTF-8"?>
<svg width="100px" height="100px" viewBox="0 0 100 100" version="1.1" xmlns="http://www.w3.org/2000/svg" xmlns:xlink="http://www.w3.org/1999/xlink">
    <!-- Generator: Sketch 45.2 (43514) - http://www.bohemiancoding.com/sketch -->
    <title>ui/icn-exchange</title>
    <desc>Created with Sketch.</desc>
    <defs></defs>
    <g id="ui/icon" stroke="none" stroke-width="1" fill="none" fill-rule="evenodd">
        <g id="ui/icn-exchange" fill-rule="nonzero">
            <g transform="translate(6.000000, 4.000000)">
                <g id="Group-5">
                    <g id="i-electronic-movement-funds" transform="translate(26.132680, 66.642968) rotate(82.000000) translate(-26.132680, -66.642968) translate(4.632680, 43.642968)">
                        <path d="M8.98485066,45.6542696 C8.83251908,45.6542696 8.6919401,45.5733576 8.61464425,45.442271 L3.63019246,36.9632335 C3.55199258,36.8307909 3.55063651,36.6667068 3.62702831,36.5333602 C3.70296808,36.3995615 3.84399909,36.3168414 3.99768673,36.3159373 L13.8517766,36.2585305 C13.8526806,36.2585305 13.8535847,36.2585305 13.8544887,36.2585305 C14.0072723,36.2585305 14.1478513,36.3398945 14.2251472,36.4714331 C14.302895,36.6043277 14.3037991,36.7679598 14.2274073,36.9013064 L11.9975804,40.8094927 C14.9144814,42.3133715 18.0253001,43.0763854 21.2446041,43.0763854 C26.6159871,43.0763854 31.6610099,40.9898497 35.4498623,37.2009973 C39.2387146,33.412145 41.3252504,28.3675742 41.3252504,22.9957392 C41.3252504,21.9791406 41.2303256,20.8644532 41.0436404,19.6828665 C41.0070265,19.4482668 41.1665905,19.2285839 41.4011901,19.1915181 C41.6362418,19.1544522 41.8559247,19.3144682 41.8929906,19.5490678 C42.0864562,20.7749528 42.1845451,21.9348424 42.1845451,22.9961912 C42.1845451,28.5976537 40.0089609,33.8578391 36.0573805,37.8089676 C32.1067041,41.760096 26.8456146,43.9361322 21.2446041,43.9361322 C17.8747766,43.9361322 14.6206668,43.1356004 11.5717753,41.5571379 L9.35822122,45.4382028 C9.28228144,45.5715495 9.14125043,45.6542696 8.98756279,45.6547216 C8.98665875,45.6542696 8.9857547,45.6542696 8.98485066,45.6542696 Z M4.74894808,37.1707118 L8.97897436,44.3669096 L13.1122678,37.1223454 L4.74894808,37.1707118 Z" id="Shape" fill="#4286C6"></path>
                        <path d="M8.98756279,45.6768707 L8.98485066,45.6768707 C8.82528672,45.6768707 8.67611931,45.5918905 8.59520729,45.4540236 L3.6107555,36.9749861 C3.52848741,36.8357632 3.52713134,36.6626386 3.60759134,36.5225116 C3.6871473,36.3819326 3.83676673,36.2942403 3.99768673,36.2933362 L13.8517766,36.2359294 C14.0140527,36.2359294 14.1636721,36.3213616 14.2450362,36.4596805 C14.3268522,36.5993554 14.3277563,36.77248 14.2472963,36.912155 L12.029222,40.8004523 C14.9370826,42.2957426 18.0375047,43.0537843 21.2450561,43.0537843 C26.6105629,43.0537843 31.6497094,40.9695087 35.4344935,37.1851766 C39.2188257,33.4003924 41.3031013,28.3612459 41.3031013,22.9957392 C41.3031013,21.9809487 41.2081765,20.8676174 41.0214913,19.6864827 C40.9830694,19.4401304 41.1521258,19.2077909 41.398026,19.1689169 C41.4215312,19.1653007 41.4454883,19.1630406 41.4689935,19.1630406 C41.6927446,19.1630406 41.880334,19.3235086 41.9155917,19.5449996 C42.1090573,20.7722406 42.2071462,21.9330343 42.2071462,22.9957392 C42.2071462,28.6030779 40.0293019,33.8695917 36.0736533,37.8243363 C32.1189087,41.779985 26.8528469,43.9578292 21.2450561,43.9578292 C17.8788448,43.9578292 14.6274472,43.1600096 11.5808157,41.5865194 L9.37765818,45.4485993 C9.29810223,45.5882743 9.14893481,45.6759667 8.98756279,45.6768707 Z M13.8544887,36.2811316 L3.99813876,36.3385385 C3.85303954,36.3394425 3.71833685,36.4185464 3.6469173,36.5446607 C3.5745937,36.670775 3.57594977,36.8267227 3.64962943,36.951933 L8.6336292,45.4309705 C8.70685684,45.5548246 8.84110751,45.6316685 8.98439863,45.6316685 L8.98711077,45.6542696 L8.98711077,45.6316685 C9.13220998,45.6307644 9.26691268,45.5521125 9.33833223,45.4264502 L11.5627348,41.5264004 L11.5817198,41.5363449 C14.6274472,43.1129992 17.8783928,43.912627 21.2441521,43.912627 C26.8397383,43.912627 32.0944995,41.7388509 36.0406557,37.7922427 C39.9872639,33.8460866 42.1610399,28.5913253 42.1610399,22.9957392 C42.1610399,21.9352945 42.062951,20.7767609 41.8694854,19.552232 C41.8382959,19.3533421 41.6692395,19.2086949 41.4676374,19.2086949 C41.4463924,19.2086949 41.4246953,19.210503 41.4034503,19.2136672 C41.1819592,19.2489249 41.0300797,19.4577593 41.0648854,19.6792503 C41.2515707,20.8630972 41.3464954,21.9786886 41.3464954,22.9957392 C41.3464954,28.3729985 39.2576996,33.4234456 35.464327,37.2168181 C31.6709544,41.0101907 26.6223155,43.0989865 21.2450561,43.0989865 C18.02304,43.0989865 14.9081531,42.3359726 11.9876359,40.8298337 L11.9668429,40.8189852 L11.9785955,40.7986442 L14.2084223,36.8904579 C14.2807459,36.7647957 14.2798419,36.6083959 14.2066142,36.4831857 C14.1329346,36.3584275 13.9982319,36.2811316 13.8544887,36.2811316 Z M8.97942639,44.4121118 L8.95998942,44.3786622 L4.71007415,37.1485627 L4.74894808,37.1485627 L13.1515938,37.0997443 L13.1321568,37.133646 L8.97942639,44.4121118 Z M4.78827404,37.193313 L8.97897436,44.3221594 L13.0733939,37.1453986 L4.78827404,37.193313 Z M1.02111876,26.7710308 C0.797367639,26.7710308 0.609778313,26.6105629 0.574520561,26.3890719 C0.375630673,25.1265731 0.282966067,24.0484995 0.282966067,22.9957392 C0.282966067,17.3884004 2.46126235,12.1223386 6.41645898,8.16714201 C10.3716556,4.21194539 15.6377174,2.0336491 21.2450561,2.0336491 C24.4982619,2.0336491 27.8052583,2.83418089 30.8093996,4.34981224 L32.9415896,0.655884605 C33.0220496,0.516209662 33.1721211,0.42987337 33.3330411,0.42987337 C33.4939611,0.42987337 33.6444845,0.516209662 33.7249445,0.655884605 L38.6515375,9.19187695 C38.7324495,9.33155189 38.7324495,9.5046765 38.6515375,9.64389942 C38.5710775,9.78357436 38.421006,9.86991065 38.260086,9.86991065 L28.4059961,9.86991065 C28.2450761,9.86991065 28.0950047,9.78357436 28.0145447,9.64389942 C27.9336326,9.5046765 27.9336326,9.33109987 28.0145447,9.19187695 L30.3564731,5.13452325 C27.4897466,3.69754381 24.340054,2.93814606 21.2450561,2.93814606 C15.8795494,2.93814606 10.8404029,5.02242168 7.05561875,8.8067538 C3.27128662,12.591538 1.18701101,17.6306845 1.18701101,22.9957392 C1.18701101,24.0001331 1.27651146,25.0334565 1.46862101,26.2480408 C1.50704292,26.4943931 1.33843854,26.7262806 1.09208629,26.7656066 C1.0681291,26.7692228 1.04417191,26.7710308 1.02111876,26.7710308 Z M21.2450561,2.07885134 C15.649922,2.07885134 10.3951608,4.25262741 6.44855257,8.1992356 C2.50194438,12.1458438 0.328168314,17.400605 0.328168314,22.9957392 C0.328168314,24.0457874 0.420832921,25.1220529 0.619270785,26.3818395 C0.650912358,26.5807294 0.819968762,26.7258286 1.02111876,26.7258286 C1.0419118,26.7258286 1.06360887,26.7240205 1.08530595,26.7204043 C1.30679696,26.6855986 1.45867651,26.4767642 1.42432281,26.2552732 C1.23176123,25.0384287 1.14226078,24.0023932 1.14226078,22.9957392 C1.14226078,17.6184799 3.23105662,12.5680328 7.0244292,8.77511223 C10.8168977,4.98173965 15.8677968,2.89294381 21.2450561,2.89294381 C24.3549707,2.89294381 27.5200321,3.65776584 30.3980592,5.10468977 L30.4193042,5.1155383 L30.4075516,5.13633134 L28.0538706,9.21447807 C27.981547,9.34014032 27.981547,9.49608807 28.0538706,9.62175032 C28.1266462,9.74696054 28.261801,9.82516043 28.4064481,9.82516043 L38.260538,9.82516043 C38.4051852,9.82516043 38.5403399,9.74696054 38.6131155,9.62175032 C38.6854391,9.49608807 38.6854391,9.34014032 38.6131155,9.21447807 L33.6860706,0.678033707 C33.613295,0.55237146 33.4781403,0.474171572 33.3330411,0.474171572 C33.1883939,0.474171572 33.0532391,0.55237146 32.9804635,0.678033707 L30.8270285,4.40902718 L30.8080435,4.39953471 C27.8052583,2.88164325 24.4982619,2.07885134 21.2450561,2.07885134 Z M37.555383,9.01106796 L29.1111512,9.01106796 L29.1310402,8.97716627 L33.3330411,1.69598831 L33.352478,1.72989 L37.555383,9.01106796 Z M29.1898031,8.96586571 L37.4767311,8.96586571 L33.3330411,1.78639281 L29.1898031,8.96586571 Z" id="Shape" fill="#FFFFFF"></path>
                    </g>
                    <g id="i-electronic-movement-funds-copy" transform="translate(56.668584, 30.119546) rotate(240.000000) translate(-56.668584, -30.119546) translate(35.168584, 7.119546)">
                        <path d="M8.98485066,45.6542696 C8.83251908,45.6542696 8.6919401,45.5733576 8.61464425,45.442271 L3.63019246,36.9632335 C3.55199258,36.8307909 3.55063651,36.6667068 3.62702831,36.5333602 C3.70296808,36.3995615 3.84399909,36.3168414 3.99768673,36.3159373 L13.8517766,36.2585305 C13.8526806,36.2585305 13.8535847,36.2585305 13.8544887,36.2585305 C14.0072723,36.2585305 14.1478513,36.3398945 14.2251472,36.4714331 C14.302895,36.6043277 14.3037991,36.7679598 14.2274073,36.9013064 L11.9975804,40.8094927 C14.9144814,42.3133715 18.0253001,43.0763854 21.2446041,43.0763854 C26.6159871,43.0763854 31.6610099,40.9898497 35.4498623,37.2009973 C39.2387146,33.412145 41.3252504,28.3675742 41.3252504,22.9957392 C41.3252504,21.9791406 41.2303256,20.8644532 41.0436404,19.6828665 C41.0070265,19.4482668 41.1665905,19.2285839 41.4011901,19.1915181 C41.6362418,19.1544522 41.8559247,19.3144682 41.8929906,19.5490678 C42.0864562,20.7749528 42.1845451,21.9348424 42.1845451,22.9961912 C42.1845451,28.5976537 40.0089609,33.8578391 36.0573805,37.8089676 C32.1067041,41.760096 26.8456146,43.9361322 21.2446041,43.9361322 C17.8747766,43.9361322 14.6206668,43.1356004 11.5717753,41.5571379 L9.35822122,45.4382028 C9.28228144,45.5715495 9.14125043,45.6542696 8.98756279,45.6547216 C8.98665875,45.6542696 8.9857547,45.6542696 8.98485066,45.6542696 Z M4.74894808,37.1707118 L8.97897436,44.3669096 L13.1122678,37.1223454 L4.74894808,37.1707118 Z" id="Shape" fill="#4286C6"></path>
                        <path d="M8.98756279,45.6768707 L8.98485066,45.6768707 C8.82528672,45.6768707 8.67611931,45.5918905 8.59520729,45.4540236 L3.6107555,36.9749861 C3.52848741,36.8357632 3.52713134,36.6626386 3.60759134,36.5225116 C3.6871473,36.3819326 3.83676673,36.2942403 3.99768673,36.2933362 L13.8517766,36.2359294 C14.0140527,36.2359294 14.1636721,36.3213616 14.2450362,36.4596805 C14.3268522,36.5993554 14.3277563,36.77248 14.2472963,36.912155 L12.029222,40.8004523 C14.9370826,42.2957426 18.0375047,43.0537843 21.2450561,43.0537843 C26.6105629,43.0537843 31.6497094,40.9695087 35.4344935,37.1851766 C39.2188257,33.4003924 41.3031013,28.3612459 41.3031013,22.9957392 C41.3031013,21.9809487 41.2081765,20.8676174 41.0214913,19.6864827 C40.9830694,19.4401304 41.1521258,19.2077909 41.398026,19.1689169 C41.4215312,19.1653007 41.4454883,19.1630406 41.4689935,19.1630406 C41.6927446,19.1630406 41.880334,19.3235086 41.9155917,19.5449996 C42.1090573,20.7722406 42.2071462,21.9330343 42.2071462,22.9957392 C42.2071462,28.6030779 40.0293019,33.8695917 36.0736533,37.8243363 C32.1189087,41.779985 26.8528469,43.9578292 21.2450561,43.9578292 C17.8788448,43.9578292 14.6274472,43.1600096 11.5808157,41.5865194 L9.37765818,45.4485993 C9.29810223,45.5882743 9.14893481,45.6759667 8.98756279,45.6768707 Z M13.8544887,36.2811316 L3.99813876,36.3385385 C3.85303954,36.3394425 3.71833685,36.4185464 3.6469173,36.5446607 C3.5745937,36.670775 3.57594977,36.8267227 3.64962943,36.951933 L8.6336292,45.4309705 C8.70685684,45.5548246 8.84110751,45.6316685 8.98439863,45.6316685 L8.98711077,45.6542696 L8.98711077,45.6316685 C9.13220998,45.6307644 9.26691268,45.5521125 9.33833223,45.4264502 L11.5627348,41.5264004 L11.5817198,41.5363449 C14.6274472,43.1129992 17.8783928,43.912627 21.2441521,43.912627 C26.8397383,43.912627 32.0944995,41.7388509 36.0406557,37.7922427 C39.9872639,33.8460866 42.1610399,28.5913253 42.1610399,22.9957392 C42.1610399,21.9352945 42.062951,20.7767609 41.8694854,19.552232 C41.8382959,19.3533421 41.6692395,19.2086949 41.4676374,19.2086949 C41.4463924,19.2086949 41.4246953,19.210503 41.4034503,19.2136672 C41.1819592,19.2489249 41.0300797,19.4577593 41.0648854,19.6792503 C41.2515707,20.8630972 41.3464954,21.9786886 41.3464954,22.9957392 C41.3464954,28.3729985 39.2576996,33.4234456 35.464327,37.2168181 C31.6709544,41.0101907 26.6223155,43.0989865 21.2450561,43.0989865 C18.02304,43.0989865 14.9081531,42.3359726 11.9876359,40.8298337 L11.9668429,40.8189852 L11.9785955,40.7986442 L14.2084223,36.8904579 C14.2807459,36.7647957 14.2798419,36.6083959 14.2066142,36.4831857 C14.1329346,36.3584275 13.9982319,36.2811316 13.8544887,36.2811316 Z M8.97942639,44.4121118 L8.95998942,44.3786622 L4.71007415,37.1485627 L4.74894808,37.1485627 L13.1515938,37.0997443 L13.1321568,37.133646 L8.97942639,44.4121118 Z M4.78827404,37.193313 L8.97897436,44.3221594 L13.0733939,37.1453986 L4.78827404,37.193313 Z M1.02111876,26.7710308 C0.797367639,26.7710308 0.609778313,26.6105629 0.574520561,26.3890719 C0.375630673,25.1265731 0.282966067,24.0484995 0.282966067,22.9957392 C0.282966067,17.3884004 2.46126235,12.1223386 6.41645898,8.16714201 C10.3716556,4.21194539 15.6377174,2.0336491 21.2450561,2.0336491 C24.4982619,2.0336491 27.8052583,2.83418089 30.8093996,4.34981224 L32.9415896,0.655884605 C33.0220496,0.516209662 33.1721211,0.42987337 33.3330411,0.42987337 C33.4939611,0.42987337 33.6444845,0.516209662 33.7249445,0.655884605 L38.6515375,9.19187695 C38.7324495,9.33155189 38.7324495,9.5046765 38.6515375,9.64389942 C38.5710775,9.78357436 38.421006,9.86991065 38.260086,9.86991065 L28.4059961,9.86991065 C28.2450761,9.86991065 28.0950047,9.78357436 28.0145447,9.64389942 C27.9336326,9.5046765 27.9336326,9.33109987 28.0145447,9.19187695 L30.3564731,5.13452325 C27.4897466,3.69754381 24.340054,2.93814606 21.2450561,2.93814606 C15.8795494,2.93814606 10.8404029,5.02242168 7.05561875,8.8067538 C3.27128662,12.591538 1.18701101,17.6306845 1.18701101,22.9957392 C1.18701101,24.0001331 1.27651146,25.0334565 1.46862101,26.2480408 C1.50704292,26.4943931 1.33843854,26.7262806 1.09208629,26.7656066 C1.0681291,26.7692228 1.04417191,26.7710308 1.02111876,26.7710308 Z M21.2450561,2.07885134 C15.649922,2.07885134 10.3951608,4.25262741 6.44855257,8.1992356 C2.50194438,12.1458438 0.328168314,17.400605 0.328168314,22.9957392 C0.328168314,24.0457874 0.420832921,25.1220529 0.619270785,26.3818395 C0.650912358,26.5807294 0.819968762,26.7258286 1.02111876,26.7258286 C1.0419118,26.7258286 1.06360887,26.7240205 1.08530595,26.7204043 C1.30679696,26.6855986 1.45867651,26.4767642 1.42432281,26.2552732 C1.23176123,25.0384287 1.14226078,24.0023932 1.14226078,22.9957392 C1.14226078,17.6184799 3.23105662,12.5680328 7.0244292,8.77511223 C10.8168977,4.98173965 15.8677968,2.89294381 21.2450561,2.89294381 C24.3549707,2.89294381 27.5200321,3.65776584 30.3980592,5.10468977 L30.4193042,5.1155383 L30.4075516,5.13633134 L28.0538706,9.21447807 C27.981547,9.34014032 27.981547,9.49608807 28.0538706,9.62175032 C28.1266462,9.74696054 28.261801,9.82516043 28.4064481,9.82516043 L38.260538,9.82516043 C38.4051852,9.82516043 38.5403399,9.74696054 38.6131155,9.62175032 C38.6854391,9.49608807 38.6854391,9.34014032 38.6131155,9.21447807 L33.6860706,0.678033707 C33.613295,0.55237146 33.4781403,0.474171572 33.3330411,0.474171572 C33.1883939,0.474171572 33.0532391,0.55237146 32.9804635,0.678033707 L30.8270285,4.40902718 L30.8080435,4.39953471 C27.8052583,2.88164325 24.4982619,2.07885134 21.2450561,2.07885134 Z M37.555383,9.01106796 L29.1111512,9.01106796 L29.1310402,8.97716627 L33.3330411,1.69598831 L33.352478,1.72989 L37.555383,9.01106796 Z M29.1898031,8.96586571 L37.4767311,8.96586571 L33.3330411,1.78639281 L29.1898031,8.96586571 Z" id="Shape" fill="#FFFFFF"></path>
                    </g>
                </g>
                <g id="exchange-(2)" transform="translate(10.106475, 17.000000)" stroke="#4286C6">
                    <path d="M41.5095304,17.7897789 C28.4305683,17.7897789 17.7897789,28.4305683 17.7897789,41.5095304 C17.7897789,54.5884924 28.4307073,65.2292819 41.5095304,65.2292819 C54.5883535,65.2292819 65.2292819,54.5883535 65.2292819,41.5095304 C65.2292819,28.4307073 54.5883535,17.7897789 41.5095304,17.7897789 Z M40.768197,40.0270025 L42.2507249,40.0270025 C45.1114047,40.0270025 47.439364,42.3549618 47.439364,45.2156417 C47.439364,47.8226782 45.5000002,49.9660686 42.9919193,50.3293692 L42.9919193,51.8868088 C42.9919193,52.7062504 42.3288331,53.3693367 41.5093914,53.3693367 C40.6899497,53.3693367 40.0270025,52.7062504 40.0270025,51.8868088 L40.0270025,50.4042809 L37.0620857,50.4042809 C36.242644,50.4042809 35.5795578,49.7411946 35.5795578,48.921753 C35.5795578,48.1023113 36.242644,47.439225 37.0620857,47.439225 L42.2507249,47.439225 C43.4755789,47.439225 44.4744472,46.4417466 44.4744472,45.2155027 C44.4744472,43.9892588 43.4754399,42.9917803 42.2507249,42.9917803 L40.768197,42.9917803 C37.9075171,42.9919193 35.5795578,40.66396 35.5795578,37.8032801 C35.5795578,35.1962436 37.5189216,33.0528532 40.0270025,32.6895526 L40.0270025,31.132113 C40.0270025,30.3126714 40.6900887,29.6495851 41.5095304,29.6495851 C42.3289721,29.6495851 42.9920583,30.3126714 42.9920583,31.132113 L42.9920583,32.614641 L45.9569751,32.614641 C46.7764168,32.614641 47.439503,33.2777272 47.439503,34.0971689 C47.439503,34.9166105 46.7764168,35.5796968 45.9569751,35.5796968 L40.7683359,35.5796968 C39.5434819,35.5796968 38.5446136,36.5771752 38.5446136,37.8034191 C38.5444746,39.029524 39.5434819,40.0270025 40.768197,40.0270025 Z" id="Shape"></path>
                    <path d="M13.4059882,37.628162 C13.5537268,37.675972 13.7071636,37.6990431 13.8576818,37.6990431 C14.1211929,37.6990431 14.384704,37.628162 14.6162491,37.4905692 C14.9810786,37.2733393 15.2358338,36.9100387 15.314081,36.4930907 C15.8873844,33.4786961 17.0284319,30.6670771 18.5437597,28.0935354 C14.801374,27.7214789 11.8598063,24.5924236 11.8598063,20.7548347 C11.0403646,20.7548347 10.3772784,20.0917485 10.3772784,19.2723068 C10.3772784,18.4528651 11.0403646,17.7897789 11.8598063,17.7897789 C11.8598063,13.7028552 15.1838542,10.3774173 19.2721678,10.3774173 L22.2372236,10.3774173 C23.0566653,10.3774173 23.7197515,11.0405036 23.7197515,11.8599452 C23.7197515,12.679248 23.0566653,13.3423342 22.2372236,13.3423342 L19.2723068,13.3423342 C16.819819,13.3423342 14.8248621,15.3372911 14.8248621,17.7897789 L19.2723068,17.7897789 C20.0917485,17.7897789 20.7548347,18.4528651 20.7548347,19.2723068 C20.7548347,20.0917485 20.0917485,20.7548347 19.2723068,20.7548347 L14.8248621,20.7548347 C14.8248621,23.2073225 16.819819,25.2022794 19.2723068,25.2022794 L20.4852084,25.2022794 C24.4004885,20.1772228 30.0420721,16.5415757 36.4946195,15.3128301 C36.9115675,15.2331931 37.2734783,14.9784379 37.4907082,14.6149983 C37.707938,14.2501688 37.7571379,13.8100108 37.6296908,13.4047374 C35.0669898,5.38696742 27.6893739,0 19.2723068,0 C8.64583254,0 0,8.64583254 0,19.2723068 C0,27.6909027 5.38849623,35.0685186 13.4059882,37.628162 Z" id="Shape"></path>
                </g>
            </g>
        </g>
    </g>
</svg>