<?xml version="1.0" encoding="UTF-8"?>
<svg width="45px" height="48px" viewBox="0 0 45 48" version="1.1" xmlns="http://www.w3.org/2000/svg" xmlns:xlink="http://www.w3.org/1999/xlink">
    <!-- Generator: Sketch 46.2 (44496) - http://www.bohemiancoding.com/sketch -->
    <title>ui/icn-security</title>
    <desc>Created with Sketch.</desc>
    <defs></defs>
    <g id="ui/icon" stroke="none" stroke-width="1" fill="" fill-rule="evenodd">
        <g id="ui/icn-security" fill-rule="nonzero" fill="">
            <g id="security" transform="translate(1.000000, 0.000000)">
                <path d="M33.5161655,21.7530174 C33.1130425,21.6840427 32.7295209,21.9549487 32.6602688,22.3583491 L31.5082246,29.0787612 C31.4391574,29.482254 31.7101559,29.8654058 32.1135563,29.9346579 C32.1559952,29.9418698 32.1980642,29.9452908 32.239671,29.9452908 C32.5940679,29.9452908 32.9075053,29.6902877 32.9694531,29.3293262 L34.1214973,22.6089141 C34.1906569,22.2055137 33.9195659,21.8223619 33.5161655,21.7530174 Z" id="Shape"></path>
                <path d="M35.4622512,11.1142681 L30.69301,9.46331286 C30.3061598,9.3295241 29.8839902,9.53459907 29.7502014,9.92126431 C29.6162277,10.308022 29.8213951,10.7300992 30.2081528,10.8639804 L34.38288,12.3093059 L33.7444478,16.0333859 C33.6753806,16.4368788 33.9463792,16.8200306 34.3497796,16.8892827 C34.3922184,16.8964945 34.4342875,16.8999155 34.4758942,16.8999155 C34.8302911,16.8999155 35.1437285,16.6449125 35.2056763,16.2839509 L35.9503444,11.9399306 C36.011645,11.5822976 35.8050906,11.2328935 35.4622512,11.1142681 Z" id="Shape"></path>
                <path d="M28.715858,8.77883587 L25.5530066,7.68402402 C25.1659715,7.55014279 24.7439868,7.75521776 24.610198,8.14197546 C24.4763168,8.52882563 24.6813917,8.95090282 25.0681494,9.08478405 L28.2310009,10.1795959 C28.3113481,10.2073337 28.3930822,10.2206479 28.4734294,10.2206479 C28.7805796,10.2206479 29.0677585,10.0283323 29.1738095,9.72164445 C29.3077831,9.33488675 29.1027082,8.91262463 28.715858,8.77883587 Z" id="Shape"></path>
                <path d="M22.6970279,20.672999 C24.8558626,20.0834778 26.4478287,18.1064183 26.4478287,15.7632195 C26.4478287,12.9567067 24.1645436,10.6735141 21.3581232,10.6735141 C18.5517028,10.6735141 16.2684177,12.9567067 16.2684177,15.7632195 C16.2684177,18.1063259 17.8603838,20.0834778 20.0192186,20.672999 C16.3227839,21.3105991 13.5012001,24.5376174 13.5012001,28.4134233 L13.5012001,32.3666177 C13.5012001,32.776028 13.8330369,33.1078648 14.2424472,33.1078648 L28.4737993,33.1078648 C28.8832095,33.1078648 29.2150463,32.7761204 29.2150463,32.3666177 L29.2150463,28.4134233 C29.2149539,24.5376174 26.3934626,21.3106916 22.6970279,20.672999 Z M17.7508194,15.763312 C17.7508194,13.7742328 19.369044,12.1560082 21.3581232,12.1560082 C23.3472025,12.1560082 24.965427,13.7742328 24.965427,15.763312 C24.965427,17.7523912 23.3472025,19.3706158 21.3581232,19.3706158 C19.369044,19.3706158 17.7508194,17.7522988 17.7508194,15.763312 Z M27.7325522,31.6253707 L14.9836018,31.6253707 L14.9836018,28.4134233 C14.9836018,24.8985789 17.8431864,22.0389019 21.3581232,22.0389019 C24.8730601,22.0389019 27.7326447,24.8984864 27.7326447,28.4134233 L27.7326447,31.6253707 L27.7325522,31.6253707 Z" id="Shape"></path>
                <path d="M38.8095591,9.1354518 L21.6003669,3.17838461 C21.4434633,3.12392602 21.2725058,3.12392602 21.1155098,3.17838461 L3.90640999,9.1354518 C3.5635705,9.25407722 3.35701618,9.60348133 3.41840923,9.96111432 L7.52813746,33.9347293 C7.5615153,34.1297262 7.671542,34.30318 7.83362334,34.4167202 L20.9329024,43.586197 C21.0604964,43.6754204 21.2092636,43.7200783 21.3579383,43.7200783 C21.5067055,43.7200783 21.6553802,43.6754204 21.7829742,43.586197 L34.8824382,34.4167202 C35.044612,34.3032725 35.1545463,34.1297262 35.1880166,33.9347293 L39.2977448,9.96111432 C39.3590454,9.60348133 39.1524911,9.25398476 38.8095591,9.1354518 Z M33.7792126,33.3794181 L21.3580308,42.0741159 L8.93694145,33.3794181 L4.98568866,10.3304897 L21.3580308,4.66309778 L37.7302804,10.3304897 L33.7792126,33.3794181 Z" id="Shape"></path>
                <path d="M42.1569595,7.15654309 L21.6004593,0.0408670583 C21.4432784,-0.013591533 21.2725983,-0.013591533 21.1156022,0.0408670583 L0.55910204,7.15654309 C0.216262555,7.27516852 0.00961577843,7.62448016 0.0710088253,7.98220561 L4.81482367,35.6543818 C4.84820152,35.8493787 4.95822821,36.0228326 5.12030955,36.1363727 L20.9329949,47.2052432 C21.0605889,47.2944665 21.2093561,47.3391244 21.3580308,47.3391244 C21.506798,47.3391244 21.6554727,47.2944665 21.7830667,47.2052432 L37.5958445,36.1363727 C37.7580183,36.022925 37.8679525,35.8493787 37.9014228,35.6543818 L42.6452377,7.98220561 C42.7064458,7.62448016 42.4998915,7.27516852 42.1569595,7.15654309 Z M36.4924339,35.0991631 L21.3580308,45.6932545 L6.22372013,35.0991631 L1.63838071,8.3516734 L21.3580308,1.52558023 L41.0775884,8.35158094 L36.4924339,35.0991631 Z" id="Shape"></path>
            </g>
        </g>
    </g>
</svg>
