<?xml version="1.0" encoding="UTF-8"?>
<svg width="100px" height="100px" viewBox="0 0 100 100" version="1.1" xmlns="http://www.w3.org/2000/svg" xmlns:xlink="http://www.w3.org/1999/xlink">
    <!-- Generator: Sketch 45.2 (43514) - http://www.bohemiancoding.com/sketch -->
    <title>ui/icn-handshake</title>
    <desc>Created with Sketch.</desc>
    <defs></defs>
    <g id="ui/icon" stroke="none" stroke-width="1" fill="none" fill-rule="evenodd">
        <g id="ui/icn-handshake" stroke="#4286C6">
            <g transform="translate(4.000000, 26.000000)">
                <path d="M44.5192664,45.9844575 L45.7590435,46.9988205 C46.9988205,48.2385976 48.9148396,48.2385976 50.0419096,46.9988205 C50.8308586,46.2098715 51.1689796,44.9700944 50.8308586,43.8430244 C52.0706357,44.4065594 53.6485337,44.1811454 54.6628968,43.1667824 C55.7899668,42.0397124 56.0153808,40.2364003 55.1137248,38.8839163 C56.5789158,40.0109863 58.7203489,40.0109863 60.0728329,38.5457952 C61.31261,37.3060182 61.538024,35.3899991 60.6363679,33.9248081 C61.763438,34.3756361 63.003215,34.1502221 63.9048711,33.2485661 C65.1446481,32.008789 65.1446481,30.09277 63.9048711,28.9656999" id="Shape"></path>
                <path d="M19.9491396,31.670668 L24.1192988,31.670668" id="Shape"></path>
                <path d="M46.0971645,3.26850311 L19.9491396,3.26850311" id="Shape"></path>
                <g id="Group" transform="translate(23.668471, 25.922611)">
                    <path d="M21.3016237,14.7646175 C20.1745536,13.6375474 18.3712416,13.6375474 17.2441716,14.7646175 L14.7646175,17.2441716 C13.6375474,18.3712416 13.6375474,20.1745536 14.7646175,21.3016237 C15.8916875,22.4286937 17.6949996,22.4286937 18.8220696,21.3016237 L21.3016237,18.8220696 C22.4286937,17.5822926 22.4286937,15.7789805 21.3016237,14.7646175 Z" id="Shape"></path>
                    <path d="M12.8485984,5.52264318 C11.6088214,4.28286614 9.58009531,4.28286614 8.34031827,5.52264318 L5.63535018,8.22761126 C4.39557314,9.4673883 4.39557314,11.4961144 5.63535018,12.7358914 C6.87512722,13.9756684 8.90385329,13.9756684 10.1436303,12.7358914 L12.8485984,10.0309233 C14.0883755,8.79114628 14.0883755,6.76242022 12.8485984,5.52264318 Z" id="Shape"></path>
                    <path d="M17.3568786,10.0309233 C16.1171015,8.79114628 14.0883755,8.79114628 12.8485984,10.0309233 L10.1436303,12.7358914 C8.90385329,13.9756684 8.90385329,16.0043945 10.1436303,17.2441716 C11.3834074,18.4839486 13.4121334,18.4839486 14.6519105,17.2441716 L17.3568786,14.5392035 C18.5966556,13.2994264 18.5966556,11.2707004 17.3568786,10.0309233 Z" id="Shape"></path>
                    <path d="M8.22761126,1.57789805 C7.10054123,0.450828014 5.29722917,0.450828014 4.17015913,1.57789805 L1.69060505,4.05745213 C0.563535018,5.18452217 0.563535018,6.98783422 1.69060505,8.11490426 C2.81767509,9.2419743 4.62098715,9.2419743 5.74805718,8.11490426 L8.22761126,5.63535018 C9.3546813,4.50828014 9.3546813,2.70496809 8.22761126,1.57789805 Z" id="Shape"></path>
                </g>
                <path d="M71.7943613,3.25976571 L61.988852,3.25976571 C61.988852,3.25976571 61.988852,3.25976571 56.9170368,1.34989601 C52.9722917,-0.110592586 49.2529606,0.114097967 44.7446804,4.60790903 L31.896082,17.4152705 C35.7281201,21.2350099 40.4618143,19.7745214 44.2938524,15.954782 L47.5623555,12.6967689 L63.9213122,28.986834 C64.3721403,29.4362151 64.6980806,30.1102868 64.8107876,30.7843584 L71.7943613,30.7843584" id="Shape"></path>
                <g id="Group" transform="translate(72.132482, 0.000000)">
                    <path d="M0.225414007,32.008789 C0.225414007,32.572324 0.676242022,33.0231521 1.23977704,33.0231521 L8.00219726,33.0231521 C8.56573228,33.0231521 9.01656029,32.572324 9.01656029,32.008789 L9.01656029,1.35248404 C9.01656029,0.788949025 8.56573228,0.338121011 8.00219726,0.338121011 L1.23977704,0.338121011 C0.676242022,0.338121011 0.225414007,0.788949025 0.225414007,1.35248404 L0.225414007,32.008789 Z" id="Shape"></path>
                    <rect id="Rectangle-path" x="8.90385329" y="3.26850311" width="10.4817513" height="27.0496809"></rect>
                </g>
                <g id="Group">
                    <path d="M19.9491396,32.008789 C19.9491396,32.572324 19.4983116,33.0231521 18.9347766,33.0231521 L12.1723564,33.0231521 C11.6088214,33.0231521 11.1579934,32.572324 11.1579934,32.008789 L11.1579934,1.35248404 C11.1579934,0.788949025 11.6088214,0.338121011 12.1723564,0.338121011 L18.9347766,0.338121011 C19.4983116,0.338121011 19.9491396,0.788949025 19.9491396,1.35248404 L19.9491396,32.008789 Z" id="Shape"></path>
                    <rect id="Rectangle-path" x="0.788949025" y="3.26850311" width="10.3690443" height="27.0496809"></rect>
                </g>
                <path d="M47.3369415,12.9613054 L50.1546166,10.1436303" id="Shape"></path>
            </g>
        </g>
    </g>
</svg>