<?xml version="1.0" encoding="UTF-8"?>
<svg width="100px" height="100px" viewBox="0 0 100 100" version="1.1" xmlns="http://www.w3.org/2000/svg" xmlns:xlink="http://www.w3.org/1999/xlink">
    <!-- Generator: Sketch 45.2 (43514) - http://www.bohemiancoding.com/sketch -->
    <title>ui/icn-member</title>
    <desc>Created with Sketch.</desc>
    <defs></defs>
    <g id="Page-1" stroke="none" stroke-width="1" fill-rule="evenodd">
        <g id="ui/icn-member" fill-rule="nonzero">
            <g id="Icons-/-Glyph-/-member" transform="translate(5.000000, 5.000000)">
                <path d="M76.5682857,13.1166471 C59.0797272,-4.3722157 30.6232054,-4.3722157 13.1346469,13.1166471 C6.99863619,19.2526578 2.80136997,26.9613883 0.996195602,35.4097747 C-0.761209957,43.6360514 -0.185550103,52.1589816 2.66080187,60.0566575 C3.00279007,61.0050358 4.04914009,61.4967199 4.99721414,61.1550359 C5.94589671,60.8130477 6.43758082,59.767002 6.09559262,58.8186237 C3.48047822,51.5623278 2.9516744,43.731589 4.56668629,36.1722502 C6.22399032,28.4148381 10.0795726,21.3347088 15.7162927,15.6979886 C31.7815231,-0.367241778 57.9214095,-0.367241778 73.9866399,15.6979886 C81.6372568,23.3489097 85.92002,33.5187991 86.0456794,44.3349366 C86.1713388,55.1312972 82.147805,65.3824239 74.7168638,73.1994709 C74.6289327,73.291966 74.5419144,73.3850695 74.454896,73.4781731 C74.3009405,73.6427777 74.1472892,73.8076866 73.9866399,73.9683359 C57.9214095,90.0335663 31.7815231,90.0335663 15.7162927,73.9683359 C15.6307957,73.8828388 15.5474284,73.7958205 15.464974,73.7088021 C15.4607143,73.5402421 15.4570632,73.3741161 15.4570632,73.2104243 C15.4570632,72.8428782 15.4640612,72.4768535 15.4774486,72.1120458 C15.4820125,71.9900376 15.4911403,71.8692464 15.4972255,71.7475424 C15.5090917,71.5050472 15.5203493,71.262552 15.5379964,71.0212738 C15.5486455,70.8773589 15.5641627,70.7349652 15.5769416,70.5916588 C15.59611,70.3741129 15.6140614,70.156567 15.6377936,69.9402382 C15.6545279,69.7874997 15.6764347,69.6359782 15.695603,69.4838482 C15.7214651,69.2784728 15.7461102,69.0724888 15.7765362,68.8680261 C15.7996599,68.712245 15.8270433,68.5579852 15.8526012,68.4031168 C15.885157,68.2038266 15.9168,68.0045363 15.9536155,67.806463 C15.9825202,67.6497692 16.0156845,67.4945966 16.0473276,67.3388155 C16.0865771,67.1443934 16.1252181,66.949667 16.168423,66.7564619 C16.2034129,66.599768 16.2423582,66.4439869 16.2797822,66.2882058 C16.3254212,66.0980433 16.3707559,65.9078809 16.420046,65.7192397 C16.4611211,65.5628501 16.5055431,65.4076775 16.548748,65.2522006 C16.6007764,65.0659935 16.6525006,64.8794822 16.7081802,64.6944921 C16.754732,64.5393195 16.8046306,64.385364 16.8539207,64.2314085 C16.9123386,64.0485482 16.9707565,63.8653837 17.0325213,63.6840448 C17.084854,63.531002 17.1396208,63.378872 17.1943876,63.226742 C17.259195,63.0466201 17.3243066,62.8664983 17.3924609,62.6875934 C17.4502703,62.5363762 17.5102095,62.3866803 17.5704529,62.2366801 C17.6413455,62.0599051 17.7128466,61.88313 17.787086,61.7078763 C17.8503721,61.5587889 17.9154837,61.4109186 17.9812039,61.2630482 C18.0581817,61.0893158 18.1360722,60.9161919 18.2163968,60.744285 C18.2848553,60.597936 18.3548351,60.4524997 18.4257277,60.3073677 C18.5090949,60.1366778 18.5933749,59.9662923 18.6797848,59.797428 C18.7531114,59.6544258 18.8276551,59.5120321 18.9034158,59.370247 C18.9928683,59.2022955 19.083842,59.0349525 19.1766413,58.8685223 C19.2548361,58.7285627 19.3339437,58.5892117 19.4142683,58.4507734 C19.509806,58.2861687 19.6068649,58.1224769 19.7057494,57.9593935 C19.7888123,57.8224765 19.8727881,57.6861681 19.9579809,57.5504681 C20.0596037,57.3892104 20.1627478,57.2288654 20.2674133,57.0697374 C20.3550401,56.9361673 20.4432755,56.8032057 20.5330322,56.6711568 C20.640436,56.5129417 20.7502738,56.356552 20.8610245,56.2004667 C20.9532152,56.0705477 21.045406,55.9409329 21.1397266,55.8128395 C21.2532156,55.6582754 21.3691386,55.5052327 21.4856702,55.3531027 C21.5821206,55.227139 21.6782667,55.1011754 21.776847,54.9767331 C21.8964211,54.8255159 22.0187336,54.6761242 22.1413504,54.5273411 C22.2414519,54.4056371 22.3415535,54.2839332 22.4437848,54.1637505 C22.5697484,54.0158801 22.6984504,53.8701396 22.8274566,53.7247033 C22.9315135,53.607259 23.0349619,53.4895104 23.1408444,53.3738916 C23.2728932,53.2296724 23.4076804,53.0881915 23.5427718,52.9467106 C23.6504798,52.8335259 23.7575793,52.7200369 23.8671129,52.6083735 C24.0055512,52.4678054 24.1470321,52.3302799 24.2882087,52.1921459 C24.3989593,52.0841336 24.5087972,51.9749043 24.6213734,51.8684133 C24.7668096,51.7308878 24.9155928,51.5967091 25.0637674,51.4622262 C25.1769521,51.3596906 25.2886155,51.255938 25.4033215,51.1549237 C25.5563642,51.0201365 25.7133624,50.8893047 25.8694477,50.7575602 C25.9838495,50.6611098 26.0970342,50.563138 26.2129573,50.4682089 C26.3745193,50.3361601 26.5400367,50.2080667 26.7049456,50.0790604 C26.8199559,49.9893037 26.9331406,49.8974172 27.0493679,49.8091818 C27.2231003,49.6774373 27.4004839,49.5502566 27.5775632,49.4224674 C27.6892266,49.3415343 27.7987602,49.2587756 27.9119449,49.1793637 C28.1072798,49.0421425 28.3071786,48.9097894 28.5064689,48.7768278 C28.6047448,48.7114119 28.700891,48.6435619 28.7997755,48.5790588 C29.0596135,48.4101945 29.3240154,48.2468069 29.5902429,48.0855491 C29.6316222,48.0605998 29.6717845,48.033825 29.7134681,48.0088756 C30.0213792,47.8244941 30.33355,47.6455892 30.6493718,47.4715525 C30.7573841,47.4122218 30.868439,47.3565423 30.9776683,47.2984286 C31.1873034,47.1864609 31.39633,47.0735805 31.6096163,46.966481 C31.746229,46.8977182 31.8861886,46.8332151 32.0240183,46.7665822 C32.198055,46.6823022 32.3714832,46.5971094 32.5476497,46.515872 C35.8564768,49.6765245 40.2703762,51.4658774 44.8519227,51.4658774 C49.4334693,51.4658774 53.8476728,49.6762202 57.1565,46.5152635 C63.6156348,49.5046176 68.9021517,54.8684165 71.7722359,61.3911417 C72.1781187,62.3136579 73.2548947,62.7332324 74.1783237,62.3270453 C75.1011442,61.9208583 75.5201102,60.8434737 75.1139231,59.9209575 C71.9745688,52.7860613 66.509147,47.0845339 59.5911882,43.6427451 C61.5983912,40.6984215 62.684295,37.2216428 62.684295,33.6338093 C62.684295,23.80104 54.684692,15.801437 44.8519227,15.801437 C43.8439094,15.801437 43.0263629,16.6189836 43.0263629,17.6269968 C43.0263629,18.6350101 43.8439094,19.4525566 44.8519227,19.4525566 C52.6717081,19.4525566 59.0331754,25.8143282 59.0331754,33.6338093 C59.0331754,37.1303648 57.7336811,40.4973056 55.3744493,43.1136371 C55.3741451,43.1139413 55.3738408,43.1142456 55.3735366,43.1145498 C52.6796188,46.1017742 48.8447262,47.815062 44.8516185,47.815062 C40.8585107,47.815062 37.0233138,46.1017742 34.3297003,43.1145498 C34.3293961,43.1139413 34.3287876,43.1136371 34.328179,43.1133328 C31.9692515,40.4960886 30.6700615,37.1300606 30.6700615,33.6341136 C30.6700615,29.8174766 32.1642822,26.2369453 34.8776725,23.5527639 C35.594509,22.8435339 35.6005942,21.6876503 34.8913642,20.9711181 C34.1824385,20.2539774 33.0265549,20.2485007 32.3097184,20.9571221 C28.8980514,24.3313651 27.0189419,28.8334999 27.0189419,33.6328965 C27.0189419,37.2170789 28.1021074,40.6914235 30.1059635,43.6342259 C30.0880122,43.6430494 30.0706693,43.6527857 30.0530223,43.6619135 C29.9106286,43.7331103 29.7715818,43.8085668 29.6304052,43.8812849 C29.4140763,43.9932526 29.197139,44.1046118 28.9838528,44.2211433 C28.8329398,44.3032935 28.6853737,44.3897033 28.5359821,44.4739834 C28.3366918,44.5868638 28.1370973,44.6991357 27.9405453,44.8156673 C27.7881111,44.9063368 27.6381109,45.0000488 27.487198,45.0928481 C27.2985568,45.2090754 27.1099156,45.3249985 26.9240128,45.4445726 C26.7721871,45.5422401 26.6230997,45.6426459 26.4730995,45.7424432 C26.2926734,45.8626258 26.1125515,45.983417 25.9348636,46.1069466 C25.785472,46.2110035 25.6379059,46.3171902 25.4903398,46.423377 C25.3169117,46.5484278 25.144092,46.6740872 24.9734022,46.8021806 C24.8270531,46.9120185 24.6825296,47.0233776 24.5383104,47.1353453 C24.3709674,47.2652643 24.2048415,47.3960961 24.0405411,47.5290577 C23.8981474,47.6440679 23.7569708,47.7605995 23.6164027,47.8777396 C23.4548407,48.012831 23.2944957,48.1494437 23.135672,48.2875778 C22.9978422,48.4071519 22.8609252,48.5276389 22.7252253,48.6496471 C22.5685314,48.7905195 22.4139673,48.9329131 22.260316,49.0765239 C22.1276587,49.2003577 21.9953056,49.3244957 21.8644738,49.4507636 C21.7126481,49.5974169 21.5632565,49.7462 21.4141691,49.8955917 C21.2869884,50.0230766 21.1598077,50.1502573 21.0350612,50.2795678 C20.8874951,50.4326105 20.7426673,50.5883916 20.5981439,50.7441727 C20.4773526,50.874396 20.3556487,51.0040107 20.2369873,51.1363638 C20.0924638,51.2970131 19.9518957,51.4610092 19.8107191,51.6243968 C19.6972301,51.7558371 19.5828284,51.8860604 19.4714692,52.019022 C19.3281628,52.1903203 19.1894202,52.3649656 19.0497649,52.5390023 C18.9460122,52.668617 18.8401298,52.7964062 18.7382027,52.9275422 C18.5915494,53.1161834 18.4497642,53.3084757 18.3073706,53.5001595 C18.2179181,53.6206464 18.1260316,53.7390036 18.0384048,53.8607075 C17.8582829,54.1102007 17.6839419,54.363345 17.5111222,54.6177063 C17.4657875,54.6846435 17.4177144,54.7497552 17.372684,54.8169966 C17.1575722,55.1382951 16.9485456,55.4632448 16.7449957,55.7918455 C16.6747116,55.9053345 16.6086872,56.0212576 16.5399244,56.135355 C16.4081799,56.354118 16.2758268,56.5725766 16.1489504,56.7943821 C16.0698428,56.9328204 15.9949948,57.0736928 15.9180171,57.2133481 C15.8069622,57.4141597 15.6952988,57.6143627 15.5888078,57.8176084 C15.5097002,57.9682171 15.4348522,58.1206513 15.3578745,58.272477 C15.2586857,58.4684205 15.1591927,58.6640596 15.0639593,58.8621328 C14.9881986,59.0197395 14.916089,59.1791717 14.8427624,59.3376912 C14.7527014,59.5333303 14.6623362,59.7286652 14.5759264,59.9261299 C14.5047295,60.088909 14.4365753,60.2532094 14.3681168,60.4172055 C14.2856624,60.6140617 14.2038164,60.8109179 14.1253174,61.0092954 C14.0592929,61.1760299 13.9960069,61.3436771 13.9327208,61.5113244 C13.8578728,61.7103104 13.7839377,61.9096007 13.7127408,62.110108 C13.6524974,62.2801893 13.5940795,62.4511834 13.5362701,62.6224818 C13.4684201,62.8235976 13.4023957,63.025322 13.3385011,63.2282633 C13.2840386,63.4007787 13.2314016,63.5739027 13.1796774,63.7473308 C13.1188254,63.9520978 13.0601032,64.1574733 13.0032066,64.3637615 C12.9551335,64.5377982 12.9079732,64.7121392 12.8626385,64.8873929 C12.8087845,65.095811 12.7576688,65.3051419 12.7077702,65.5150812 C12.6660866,65.690335 12.6247072,65.8652845 12.5860662,66.0411467 C12.5392102,66.2538244 12.495701,66.4677192 12.4531046,66.6819182 C12.4181147,66.857172 12.3825163,67.0324257 12.3502647,67.2085922 C12.3104067,67.4270509 12.274504,67.6467266 12.2389056,67.8667065 C12.2109137,68.0401347 12.1814004,68.2132586 12.1561469,68.3872953 C12.1229825,68.6142733 12.0949906,68.8424682 12.0663902,69.0706632 C12.0453962,69.2398317 12.0222725,69.408696 12.0037126,69.5784731 C11.9775463,69.8176214 11.9574651,70.058291 11.9364712,70.2989607 C11.9224752,70.4593057 11.9057409,70.6190422 11.894179,70.7802999 C11.8747064,71.0489615 11.8619275,71.3188401 11.8488443,71.5890229 C11.8424548,71.7232016 11.8324143,71.8564674 11.8275461,71.9909503 C11.8129416,72.3962246 11.8047266,72.8030202 11.8047266,73.2113371 C11.8047266,73.6522098 11.8196353,74.0690459 11.8375867,74.5293912 C11.8418463,74.6358822 11.8567551,74.7393306 11.8780533,74.8403449 C11.8798788,74.8482557 11.8807916,74.8561664 11.8826172,74.8640772 C11.9051324,74.9635702 11.9367754,75.0591078 11.9748079,75.1516029 C11.978459,75.1607307 11.9818059,75.1698585 11.9857613,75.1789863 C12.0250108,75.2702642 12.0718669,75.3572826 12.1248081,75.4400413 C12.1315018,75.4503861 12.1378913,75.460731 12.144585,75.4707716 C12.1990475,75.552009 12.2595953,75.6283782 12.3256197,75.6995751 C12.3304878,75.7047475 12.3338347,75.7111369 12.3387028,75.7163094 L12.5796767,75.9728005 C12.7616242,76.1675269 12.9435717,76.3616447 13.1334299,76.5511987 C21.8778613,85.2956301 33.3639792,89.6678458 44.8504014,89.6678458 C56.3368236,89.6678458 67.8229416,85.2956301 76.567373,76.5511987 C76.7572312,76.3616447 76.9391786,76.1672226 77.1211261,75.9728005 L77.3621,75.7163094 C85.4520682,67.2058539 89.8321947,56.0468154 89.6955819,44.2938615 C89.5595777,32.5174795 84.897098,21.4454594 76.5682857,13.1166471 Z" id="Shape"></path>
            </g>
        </g>
    </g>
</svg>