<?xml version="1.0" encoding="UTF-8"?>
<svg width="30px" height="30px" viewBox="0 0 30 30" version="1.1" xmlns="http://www.w3.org/2000/svg" xmlns:xlink="http://www.w3.org/1999/xlink">
    <!-- Generator: Sketch 46.2 (44496) - http://www.bohemiancoding.com/sketch -->
    <title>icn-briefcase</title>
    <desc>Created with Sketch.</desc>
    <defs></defs>
    <g id="1_about-------------" stroke="none" stroke-width="1"  fill-rule="evenodd">
        <g id="icn-briefcase" fill-rule="nonzero" >
            <g id="portfolio" transform="translate(2.000000, 3.000000)">
                <path d="M24.7735503,3.56380402 L18.5927531,3.56380402 L18.112553,1.66617176 C17.8642263,0.685108489 16.975914,0 15.9524433,0 L11.0475567,0 C10.024086,0 9.1357737,0.685160585 8.88739431,1.66622385 L8.40724689,3.56380402 L2.2265024,3.56380402 C0.998843748,3.56380402 0,4.55049361 0,5.76332995 L0,21.8004741 C0,23.0133104 0.998843748,24 2.2265024,24 L24.7734976,24 C26.001209,24 27,23.0132583 27,21.8004741 L27,5.76332995 C27.0000527,4.55049361 26.001209,3.56380402 24.7735503,3.56380402 Z M9.70767912,1.86887552 C9.86176926,1.26029538 10.4127918,0.835247845 11.0476095,0.835247845 L15.952496,0.835247845 C16.5873136,0.835247845 17.1382835,1.26029538 17.2924264,1.86882342 L17.7213159,3.56380402 L16.7334936,3.56380402 L16.362612,2.09825219 C16.3156256,1.9123232 16.1465061,1.78192806 15.952496,1.78192806 L11.0476095,1.78192806 C10.8536521,1.78192806 10.6845326,1.9123232 10.6374934,2.09825219 L10.2667173,3.56380402 L9.27889508,3.56380402 L9.70767912,1.86887552 Z M15.8619509,3.56380402 L11.1381018,3.56380402 L11.3776746,2.6171759 L15.6223782,2.6171759 L15.8619509,3.56380402 Z M2.2265024,4.39905186 L24.7734976,4.39905186 C25.1956371,4.39905186 25.5738488,4.58732515 25.8273961,4.88307155 L23.0825666,13.0177385 C22.8328161,13.757912 22.1344007,14.2552161 21.3445964,14.2552161 L15.2755962,14.2552161 L15.2755962,13.336407 C15.2755962,12.8604621 14.8836736,12.473288 14.4018914,12.473288 L12.5981086,12.473288 C12.1163264,12.473288 11.7244038,12.8604621 11.7244038,13.336407 L11.7244038,14.2552161 L5.65540362,14.2552161 C4.86565208,14.2552161 4.16718392,13.757912 3.91743343,13.0177906 L1.17260385,4.88307155 C1.42615122,4.58732515 1.8043629,4.39905186 2.2265024,4.39905186 Z M12.5699484,15.1462061 L12.5699484,13.3364591 C12.5699484,13.3210909 12.5825519,13.30864 12.5981086,13.30864 L14.4018914,13.30864 C14.4174481,13.30864 14.4300516,13.3210909 14.4300516,13.3364591 L14.4300516,15.1462061 L12.5699484,15.1462061 Z M14.4301044,15.981454 L14.4301044,16.9002631 C14.4301044,16.9156313 14.4175008,16.9280821 14.4019441,16.9280821 L12.5981613,16.9280821 C12.5826047,16.9280821 12.5700011,16.9156313 12.5700011,16.9002631 L12.5700011,15.981454 L14.4301044,15.981454 Z M26.1545608,21.8004741 C26.1545608,22.5527337 25.5350362,23.1647522 24.7735503,23.1647522 L2.2265024,23.1647522 C1.46501653,23.1647522 0.845491886,22.5527337 0.845491886,21.8004741 L0.845491886,6.55502592 L3.11528929,13.281915 C3.48031734,14.363679 4.50109863,15.090516 5.65540362,15.090516 L11.7244565,15.090516 L11.7244565,16.9002631 C11.7244565,17.376208 12.1163791,17.763382 12.5981613,17.763382 L14.4019441,17.763382 C14.8837263,17.763382 15.275649,17.376208 15.275649,16.9002631 L15.275649,15.090516 L21.3447018,15.090516 C22.4990068,15.090516 23.5197354,14.3637311 23.8848162,13.281915 L26.1546136,6.55502592 L26.1546136,21.8004741 L26.1545608,21.8004741 Z" id="Shape"></path>
            </g>
        </g>
    </g>
</svg>
