<?xml version="1.0" encoding="UTF-8"?>
<svg width="100px" height="100px" viewBox="0 0 100 100" version="1.1" xmlns="http://www.w3.org/2000/svg" xmlns:xlink="http://www.w3.org/1999/xlink">
    <!-- Generator: Sketch 46.1 (44463) - http://www.bohemiancoding.com/sketch -->
    <title>ui/icn-sparkline-down</title>
    <desc>Created with Sketch.</desc>
    <defs>
        <path d="M1.48676324,24.2788162 C1.64091806,24.591341 1.83187654,24.8676234 2.22168002,24.9666859 C2.51695063,25.0416918 2.6822517,25.3282692 2.88814196,25.5422567 C3.18803932,25.8541512 3.51327864,25.9158158 3.90644703,25.6725191 C4.41644078,25.3569479 4.77722193,24.9406334 4.99205023,24.3796645 C5.20204147,23.8311966 5.59794385,23.4681426 6.20152409,23.4364174 C6.80731255,23.4045872 7.21625393,23.7488372 7.50437412,24.2522384 C7.59932759,24.4181129 7.63970648,24.5721168 7.92624936,24.4778866 C8.854438,24.1725052 9.67326715,24.6742257 9.85854736,25.6698929 C9.917959,25.989456 10.0299473,26.1661507 10.3279519,26.2765586 C10.7029288,26.4154352 10.9668637,26.7004368 11.1597149,27.0442666 C11.5006221,27.6520879 12.0454216,28.1466649 12.6576244,28.2681031 C13.2222979,28.3801919 13.8745642,28.0978165 14.4749898,27.9394006 C14.5809844,27.9114572 14.6151592,27.6351748 14.6947603,27.4799104 C15.098444,26.6918227 16.0052865,26.4738432 16.7763761,26.9417374 C17.4770129,27.3668762 18.3454744,27.5196194 19.1457966,27.7742615 C19.3086791,27.8261563 19.32645,27.6517727 19.3480065,27.5344315 C19.4490588,26.9849131 19.7368635,26.5668128 20.2335028,26.3075485 C20.4012224,26.2200416 20.4839781,26.0739165 20.5876593,25.9340945 C20.8703115,25.553287 21.2404513,25.2306774 21.7178475,25.2711218 C22.1362527,25.3065237 22.1497124,25.0679544 22.1726358,24.8246578 C22.2300495,24.2173617 22.2742139,23.6074394 22.2876736,22.9977272 C22.3082836,22.0557407 22.3314174,21.1100775 22.4969287,20.1854243 C22.671273,19.2108723 23.1695947,18.8733455 24.1805391,18.8899434 C24.4034642,18.8936202 25.2110419,18.1513344 25.2374354,17.9040459 C25.2800225,17.505695 25.313987,17.1063986 25.3430094,16.7068922 C25.4295506,15.5160414 26.4842387,14.8670404 27.5255723,15.4053184 C27.9368271,15.6178352 27.8845659,15.2611893 27.9625897,15.1169551 C28.4238974,14.2646817 29.3817393,13.9253691 29.9976225,14.5624994 C30.5060389,15.0882764 31.2224487,15.4450274 31.5042597,16.1846869 C31.5256058,16.2407838 31.5808113,16.2840645 31.6894348,16.4196845 C31.8068911,15.730134 31.6664062,15.0961552 31.8707191,14.5289884 C32.277242,13.4003274 32.1356004,12.1434 32.7365518,11.0612764 C33.2203624,10.1899888 34.2103812,9.6804946 35.1720086,10.6896082 C35.7161772,11.2606619 36.0030356,11.874261 36.0640245,12.631674 C36.0767481,12.7890394 35.9905223,13.0497744 36.2381585,13.046938 C36.425752,13.044837 36.3779073,12.8015404 36.3863195,12.6507932 C36.4218614,12.0106164 36.5308002,11.4020597 37.0375342,10.9377372 C37.1542545,10.8306909 37.1860108,10.6687032 37.2269154,10.5134388 C37.5520496,9.27836187 38.5076833,8.89797456 39.5866618,9.57744021 C39.6975986,9.44055961 39.6393436,9.27972752 39.6393436,9.13454794 C39.6394488,7.42128182 39.7778306,5.71211266 39.7742554,3.99779604 C39.7728884,3.34784953 39.9813023,2.75105851 40.4099074,2.16813413 C40.6271542,1.87252245 40.7793111,1.52596135 40.875947,1.15555383 C41.0554438,0.468419501 41.6933041,0 42.4041407,0 L43.3287541,0 C44.0920623,0 44.7249803,0.580823373 44.8013217,1.33970709 C44.8125731,1.4505352 44.8490613,1.57428451 44.9182522,1.6322723 C45.6574803,2.25101885 45.6784058,3.10728424 45.7502255,3.96827689 C45.8338224,4.97234811 45.8621087,5.98776477 46.1477052,6.96599361 C46.3355091,7.60890174 46.3540161,8.26599167 46.3897682,8.93085532 C46.4976556,10.9402584 46.4626395,12.9499766 46.4782022,14.9595897 C46.9425594,15.9489539 47.0493952,16.8378899 47.3030251,17.6827048 C47.4436151,18.1511243 47.62185,18.6017903 47.6298417,19.0945815 C47.6339427,19.3449165 47.6854678,19.4018538 47.9662273,19.3580478 C48.8493051,19.2204318 49.5464718,19.7391705 49.7197646,20.6266358 C49.7829617,20.9501909 49.8237612,21.2827803 49.8300704,21.6121131 C49.8677153,23.5661546 50.0186104,25.5134729 50.1671921,27.4605811 C50.2840174,28.9922152 50.3660371,30.5242695 50.3665628,32.0602106 C50.366668,32.3094951 50.3969521,32.5205412 50.5714016,32.7347389 C50.8757154,33.1087181 51.0125199,33.5598043 50.996852,34.0534359 C50.9425929,35.7661768 51.1661489,37.4718793 51.0967477,39.2147696 C51.4860254,39.1845151 51.7979103,38.9419538 52.1827715,39.0648627 C52.9257851,39.3022765 53.3806785,39.9155605 53.4123297,40.8209894 C53.4349376,41.4656834 53.3900372,42.1119531 53.5052852,42.754441 C53.5375673,42.9348125 53.5610165,43.1120324 53.7006602,43.221705 C54.14283,43.5688964 54.3207495,44.0800714 54.6053996,44.5318929 C54.9941515,45.1488536 55.0867916,45.7723274 55.1085584,46.4649244 C55.181009,48.7682583 55.2560885,51.0719074 55.3401061,53.3744009 C55.3840602,54.5793284 55.3197063,55.7895084 55.4373729,56.986242 C55.5458912,58.090006 55.3616625,59.2244447 55.7718657,60.3013158 C55.8490483,60.5039579 55.8369557,60.7496707 55.8288589,60.9741633 C55.7873233,62.1266706 55.951678,63.2691982 55.9511522,64.4233864 C56.5285493,64.3197017 56.717615,64.0613829 56.7854389,63.3470405 C56.9351773,61.7689742 57.1768197,60.2042493 57.519199,58.6568576 C57.69817,57.848075 58.3579021,57.3028637 59.0186858,57.3665242 C59.7063887,57.4327059 60.2869404,58.1549271 60.3639126,58.95394 C60.5488774,60.8740503 60.3867309,62.799308 60.4761112,64.7191031 C60.5483516,66.2735331 60.5674895,67.8273328 60.5649658,69.382183 C60.5645452,69.6393463 60.6444618,69.7166633 60.912708,69.7733905 C61.5599268,69.909956 62.1632968,70.2180686 62.6882223,70.598666 C63.2562607,71.0106735 63.2827594,71.6979129 63.3139899,72.3583644 C63.3365979,72.8387597 63.4180917,73.3022418 63.7287147,73.7279058 C64.1616311,74.3210201 64.005268,75.074126 64.1387076,75.7513856 C64.1744598,75.9331227 64.1050586,76.1356598 64.2806647,76.3627786 C64.9847715,75.5574627 66.5929458,75.2726712 67.6666667,75.3948447 C67.6680687,75.5884875 67.6934733,77.1572279 67.7428805,80.1010659 C67.2972829,80.6362853 66.8800205,80.9760997 66.4910933,81.1205089 C66.2398819,81.2137936 66.0844653,81.3371227 66.0298907,81.6184475 C65.884043,82.3707131 65.6479737,83.0609989 64.8721523,83.4406509 C64.6889751,83.5303638 64.6176812,83.8427836 64.4885528,84.0487873 C64.1025349,84.6651177 63.555422,84.9571577 63.023977,84.8352993 C62.4978947,84.7147015 61.9066174,84.0673812 61.8374265,83.4896043 C61.7505699,82.7638115 61.6890552,82.034762 61.6260683,81.3063429 C61.5166037,80.0397509 61.4218605,78.7718982 61.3054557,77.5060416 C61.2566646,76.974907 60.7153351,76.5353763 60.2003992,76.580548 C59.34729,76.6553438 58.6809332,76.407425 58.2283532,75.3948447 C57.9564266,74.786183 57.6491685,74.2192263 57.6265606,73.5411263 C57.620041,73.3462579 57.4806077,73.3245125 57.3308693,73.3337569 C56.7214005,73.37147 56.2913233,73.0935067 56.0004691,72.5773944 C55.9110888,72.4187684 55.8002571,72.3698149 55.6149769,72.3949219 C54.7107633,72.5172005 53.9288429,71.9121105 53.8529222,70.9937604 C53.8229535,70.6309165 53.7583894,70.3380361 53.5000276,70.05398 C53.2427173,69.7710794 53.1179003,69.3894315 53.1045458,68.9918159 C53.056701,67.5777332 53.0228417,66.1625999 52.970265,64.7495677 C52.9344077,63.7870964 53.0318848,62.7936353 52.6636378,61.8579518 C52.6075911,61.7156086 52.5876119,61.5517301 52.584247,61.397096 C52.5415548,59.4402181 52.5199983,57.4827099 52.4627949,55.5262522 C52.3966534,53.2625223 52.300333,50.9996327 52.2129505,48.6233939 C51.991077,49.103474 51.7220947,49.4334371 51.727773,49.9188748 C51.7356595,50.5792213 51.8062174,51.2466061 51.6339762,51.9025405 C51.4266138,52.692309 50.8389117,53.1879365 50.1174545,53.1587325 C49.4779119,53.1327851 48.9572976,52.5770688 48.7884213,51.8088356 C48.6257491,51.0687559 48.6830577,50.3153348 48.6076627,49.5696874 C48.4692809,48.2003561 48.4595016,46.818734 48.3628657,45.4444653 C48.1959873,43.0731638 48.1546621,40.6993411 48.1526642,38.3235224 C48.1522435,37.9552159 48.0658075,37.6185295 47.8308949,37.3013825 C47.4906187,36.8421024 47.5156452,36.2802932 47.5308924,35.7368677 C47.5404613,35.3921975 47.5706404,35.1245292 47.0387747,35.2690785 C46.4678972,35.4243429 45.8038537,34.9969981 45.5753555,34.4070354 C45.4569528,34.1011288 45.3560056,33.7706404 45.3388656,33.4463499 C45.2468564,31.7038798 45.1862881,29.9598339 45.1086849,28.2165234 C45.0884955,27.7643867 45.0357085,27.3136157 45.018884,26.861479 C45.0117335,26.6713379 44.923615,26.5755319 44.7662005,26.5090351 C43.9199263,26.1515487 43.6583047,25.4408831 43.646843,24.6031066 C43.6298082,23.360466 43.6714489,22.1163548 43.626969,20.8750799 C43.5281249,18.1132012 43.5853283,15.3494316 43.5054118,12.5890236 C43.4679772,11.2967993 43.5085664,10.0016335 43.4154005,8.7140314 C43.363665,8.00010924 43.1434739,7.29826786 42.9790141,6.49190139 C42.557244,7.26465175 42.6380018,8.018388 42.6088743,8.7303142 C42.549042,10.1937706 42.6356884,11.6637401 42.2751175,13.1050309 C42.1937289,13.4304769 42.1563994,13.8247308 41.9093942,14.0138214 C41.1861494,14.5673317 41.2758452,15.3846234 41.1129627,16.1227072 C41.0454543,16.429139 40.9979249,16.7388275 40.8486072,17.0218331 C40.404124,17.8638116 39.5968617,18.0766436 38.5025307,17.6060181 C38.4367047,18.3998836 38.2312351,19.1173774 37.5127222,19.5807545 C37.405571,19.6498777 37.3846455,19.8576672 37.3316482,20.0041074 C37.122393,20.5817793 36.535427,21.0750957 36.0313218,21.0930593 C35.4733781,21.1129138 34.9400403,20.7338922 34.6758951,20.0995982 C34.5565461,19.8131259 34.4802047,19.50869 34.3630639,19.1465814 C34.0174248,19.9253197 33.7359293,20.6214883 33.7317232,21.4548527 C33.7232057,23.1430118 33.6147926,24.8324315 33.3278291,26.5032573 C33.1688373,27.4288559 32.4903878,28.0298489 31.6898554,27.9404511 C31.064929,27.8708027 30.4467324,27.0942706 30.394997,26.2893748 C30.3491501,25.5758728 30.3121362,24.8614254 30.2943652,24.1468729 C30.2885818,23.913346 30.2398958,23.7367564 30.0211768,23.6350676 C29.6447278,23.4600538 29.5757472,22.9398444 29.2577635,22.8122083 C28.9154893,22.6749075 28.7629118,23.2833591 28.3750011,23.3088863 C27.5823551,23.2525793 26.8859245,23.3671893 26.2582641,23.7988411 C26.1830795,23.8505259 26.0535306,23.8415966 25.9514267,23.8328775 C25.22345,23.7712129 25.180968,23.7671159 25.1520509,24.4509937 C25.1152472,25.323752 24.9946363,26.1860052 24.9191362,27.053511 C24.8574112,27.762811 24.6442653,28.3923777 23.9525666,28.7409348 C23.7329012,28.8515528 23.6952563,29.0431646 23.6561393,29.2573623 C23.4803229,30.2184679 23.0567652,30.6112511 22.0809421,30.6698692 C21.6528628,30.6956066 21.5560165,31.0587656 21.4833556,31.3027976 C21.2201567,32.1864811 20.4624217,32.507515 19.7739827,32.8759265 C19.1969011,33.1848796 18.5693459,32.9518779 18.2003628,32.3386991 C18.0036208,32.0116773 17.7739659,32.0351036 17.4713346,32.0347884 C17.1259058,32.0343682 17.1090813,32.2726224 17.0037176,32.4917574 C16.5700652,33.3935096 15.6107512,33.922228 14.6447073,32.9338093 C14.4990699,32.7848479 14.3525913,32.6252764 14.1768801,32.520016 C13.9511158,32.3847111 13.74144,32.3332364 13.4823422,32.5720159 C12.7373307,33.258625 11.8253357,33.1031504 11.3490961,32.198772 C11.1315338,31.7855039 10.9028253,31.5763487 10.4217487,31.6046072 C9.93394231,31.633286 9.4817829,31.3668783 9.23309522,30.9466769 C8.78440587,30.1883184 8.20206661,29.6788243 7.23581246,29.7961655 C6.91151952,29.8355594 6.58123284,29.6666384 6.35336553,29.4019115 C6.17187084,29.1909704 5.99216376,29.2385583 5.7362205,29.2354067 C5.10298702,29.2274229 4.63568552,29.6131678 4.07605938,29.755511 C3.72800179,29.8441735 3.38688431,29.8518422 3.0397731,29.7756807 C2.97163373,29.7606585 2.89697485,29.7232606 2.83535498,29.7380727 C1.97583148,29.9450218 1.36888634,29.6160042 0.850375157,28.9287648 C0.690752369,28.7171934 0.290223251,28.6869389 0,28.5736946 C0,26.8579073 0,25.1420149 0,23.4262276 C0.683181328,23.3839973 1.17855877,23.6541868 1.48676324,24.2788162 Z M83.8350426,87.2423399 C83.8693018,88.8478082 83.9400615,90.4524161 83.9969467,92.0573466 C84.0043108,92.2653434 84.0364355,93 83.5111277,93 L80.9496923,93 C80.8929138,91.1716934 80.8377362,89.3459679 80.7770088,87.524867 C80.7715658,87.3630081 80.8299452,87.1539359 80.503042,87.2155605 C79.4419673,87.4154913 78.7567834,87.0101449 78.5844201,85.943812 C78.439699,85.0482644 78.2849456,84.1634715 78.0241061,83.2962089 C77.9945428,83.1980181 78.0142872,83.0847706 78.0111922,82.9785138 C78.0291222,82.7106131 77.9184469,82.6205959 77.6404244,82.6000543 C76.8261014,82.5399353 76.3375076,82.1285663 76.1547918,81.3140019 C75.9987577,80.6180624 75.9084671,79.906636 75.8034483,79.1998342 C75.7608644,78.9127901 75.751259,78.7039329 75.3344921,78.8104049 C74.7512319,78.9593581 74.3057556,78.6540309 73.9773582,78.1785636 C73.7023241,77.7803154 73.5122442,77.338403 73.3692308,76.8285205 C72.9048639,77.120727 72.6561912,77.5190827 72.5139248,78.0048745 C72.4238476,78.3125678 72.342949,78.6285422 72.2053785,78.9152637 C71.9471004,79.4536462 71.5193407,79.7941414 70.9025684,79.7665017 C70.3467369,79.7415507 69.7752166,79.8874926 69.2396632,79.5521596 C68.9850138,79.3926668 68.8807919,79.7694976 68.5162711,79.7859678 C68.2732573,79.7969479 68.0168291,79.9004731 67.7469867,80.0965434 L67.6666667,75.3910265 C68.084484,74.8431481 68.4225316,74.5692089 68.6808097,74.5692089 C69.4993558,74.5692089 69.8337027,74.0032491 70.4341459,74.9518176 C70.6332975,74.6540187 70.8573164,74.416769 70.9670312,74.1343494 C71.1901963,73.5601536 71.4791048,73.074792 72.0899005,72.8601273 C72.2351552,72.8090422 72.2113552,72.6536362 72.2661059,72.5481321 C72.3976996,72.2951805 72.5164862,72.0353459 72.6367669,71.7764792 C73.1581258,70.6536839 74.8981943,70.7034783 75.4470886,71.476852 C75.5810303,71.6654902 75.6631029,71.7467961 75.9320537,71.6027901 C76.9587624,71.0527924 78.0838729,71.6046184 78.2686164,72.7758101 C78.4073609,73.6555482 78.4401259,74.5545373 78.4807887,75.4467509 C78.4982918,75.831018 78.5187833,76.1331187 78.9882731,76.2002284 C79.1698148,76.2261473 79.3587207,76.3265966 79.4522131,76.5233009 C80.4553352,77.2018177 80.7560905,78.2752488 80.7612133,79.3605101 C80.7651622,80.1927122 81.1836367,80.6070926 81.7839732,80.7592722 C82.9955321,81.0666428 83.2015142,81.9591791 83.3110156,82.9745345 C83.7635359,84.3626494 83.8043054,85.799806 83.8350426,87.2423399 Z" id="path-1"></path>
    </defs>
    <g id="ui/icon" stroke="none" stroke-width="1" fill="none" fill-rule="evenodd">
        <g id="ui/icn-sparkline-down">
            <g id="Rectangle" transform="translate(5.000000, 4.000000)">
                <mask id="mask-2" fill="white">
                    <use xlink:href="#path-1"></use>
                </mask>
                <use id="Mask" fill="#CCCCCC" xlink:href="#path-1"></use>
                <rect fill="#D0021B" mask="url(#mask-2)" x="69" y="69" width="16" height="25"></rect>
            </g>
        </g>
    </g>
</svg>