<?xml version="1.0" encoding="UTF-8"?>
<svg width="54px" height="28px" viewBox="0 0 54 28" version="1.1" xmlns="http://www.w3.org/2000/svg" xmlns:xlink="http://www.w3.org/1999/xlink">
    <!-- Generator: Sketch 45.2 (43514) - http://www.bohemiancoding.com/sketch -->
    <title>logo-glymph</title>
    <desc>Created with Sketch.</desc>
    <defs></defs>
    <g id="ui/icon" stroke="none" stroke-width="1" fill-rule="evenodd">
        <g id="logo-glymph">
            <path d="M4.82202564,13.7267583 C4.74917889,11.6017683 5.7308959,8.19477024 9.14826525,5.33720419 C12.5656346,2.44326911 15.9465806,2.47963813 15.9465806,2.47963813 C11.9472943,2.14971914 8.49393008,4.20153816 6.31238433,6.21612223 C4.16769047,8.23157223 0.677474376,14.1662174 5.22182571,20.2480704 C9.76617705,26.3290576 15.9465806,25.2301936 15.9465806,25.2301936 C14.9284402,25.1202206 11.4022292,24.6075905 8.52992494,21.8595645 C5.65804916,19.0756024 4.8580205,15.8513154 4.82202564,13.7267583 M49.4530835,7.49856324 C44.9087322,1.38034113 38.7283287,2.51600715 38.7283287,2.51600715 C39.7460406,2.62598015 43.27268,3.13904315 46.1445558,5.8866362 C49.0168601,8.63422926 49.8164602,11.8948853 49.889307,13.9830734 C49.9617252,16.1080634 48.9804367,19.5150615 45.5630674,22.4094295 C42.1452695,25.3033646 38.7647521,25.2665626 38.7647521,25.2665626 C42.7636098,25.5964816 46.2174025,23.5450955 48.3620964,21.5300785 C50.5072188,19.5514305 53.9974349,13.5799834 49.4530835,7.49856324" id="Fill-1"></path>
            <path d="M27.3736209,3.57659713 C17.0585218,3.57659713 8.69614407,8.1855048 8.69614407,13.8698964 C8.69614407,19.555154 17.0585218,24.1640616 27.3736209,24.1640616 C37.6891484,24.1640616 46.0510977,19.555154 46.0510977,13.8698964 C46.0510977,8.1855048 37.6891484,3.57659713 27.3736209,3.57659713 M27.3736209,4.20266387 C37.3274858,4.20266387 44.7904205,8.5396698 44.7904205,13.8698964 C44.7904205,19.200989 37.3274858,23.5379949 27.3736209,23.5379949 C17.4201845,23.5379949 9.94010936,19.200989 9.94010936,13.8698964 C9.94010936,8.5396698 17.4201845,4.20266387 27.3736209,4.20266387" id="Fill-4"></path>
            <path d="M15.6370676,14.1918489 L15.6370676,16.8957125 C15.6452093,18.0512949 15.6160706,18.1565053 16.738339,18.2309752 L16.7070577,18.6890517 C16.0197273,18.6721661 14.7479088,18.3825128 12.9160274,18.5201955 L12.9048862,18.1565053 C13.1817038,18.1188374 13.5742192,18.1625668 13.7619067,17.8200918 C13.797473,17.3758702 13.9123138,12.7639318 13.9324538,10.4367473 C13.6556362,10.2462429 13.4268117,10.2678911 13.1949876,10.2865086 L13.1949876,9.81717501 C13.8690343,9.8331947 16.1512799,9.60285756 16.8810329,9.58597194 L16.8767478,9.94533252 C15.5303685,10.0566044 15.6370676,10.3705037 15.6370676,11.7196213 L15.6370676,13.7164538 L16.0844323,13.7082275 C16.0844323,13.7082275 18.2466951,10.9450477 18.9361681,10.1258787 C18.8714631,9.74746772 18.7986163,9.78903232 18.3315401,9.75699294 L18.3315401,9.40196201 C18.888175,9.4166828 21.666207,9.1980357 22.1538517,9.18115009 L22.1469955,9.63619583 C20.9733059,9.71542834 20.1454241,9.76218852 19.6076437,10.3311039 L17.5615072,12.8401335 L19.3779622,15.546595 C19.5455097,15.7578817 20.5975024,17.63435 21.2565512,18.1248989 C21.5376539,18.3418141 22.1838474,18.3214648 22.521942,18.3535042 L22.5262271,18.9029362 C21.7831903,18.8899472 18.4810902,18.8059521 17.7680491,18.8185081 L17.7680491,18.3535042 C18.0200132,18.3535042 18.3941026,18.392038 18.3941026,17.9214055 C18.3941026,17.6165985 16.0822898,14.1918489 16.0822898,14.1918489 L15.6370676,14.1918489 Z" id="Fill-6"></path>
            <path d="M27.2574946,20.6347511 L22.9098295,10.0847038 C22.0258128,8.25845933 22.1972169,7.85060672 20.632726,7.85060672 L20.6224417,7.30333952 C22.1372255,7.30333952 25.603445,7.12452516 26.7878474,7.10547472 L26.8139865,7.62676404 C25.7877044,7.62676404 25.1565088,7.65101006 25.5880186,8.61522212 C25.7140006,8.90920505 29.0019599,16.641086 29.0019599,16.641086 C29.0019599,16.641086 31.9214003,9.61190652 32.1463682,8.81784953 C32.4343271,7.79388836 31.7847055,7.86532751 31.0330985,7.80644433 L30.9842484,7.17994462 C31.7757068,7.19509838 34.9291138,7.3548623 35.7827063,7.32975036 L35.8007037,7.96447639 C34.2632089,7.83069035 33.8835488,8.18702017 32.9476824,10.2397051 L28.4667506,20.6247929 L27.2574946,20.6347511 Z" id="Fill-8"></path>
            <path d="M37.4781071,16.2315449 C37.4781071,16.7216607 37.4849633,17.4464434 37.700504,17.8560279 C37.9156161,18.2664783 38.413545,18.3439789 38.5600956,18.3465767 C39.5465262,18.3790491 40.1802929,17.7750635 40.2111456,16.4107922 C40.2381417,15.3456994 39.8434838,14.6473276 39.0314568,14.2451035 C38.3762647,13.9190812 37.4862488,14.1693347 37.4862488,14.1693347 L37.4781071,16.2315449 Z M37.4566816,13.4991056 L37.6889342,13.6593025 C37.7934907,13.6930737 38.5960904,13.8125719 39.1492972,13.4839518 C39.747069,13.0925519 39.8130596,12.5517791 39.7869204,11.9638133 C39.7389273,10.9874782 38.8887629,10.1934212 38.2695656,10.0514088 C38.0861632,10.0059476 37.5869488,9.90117014 37.4781071,10.1665774 C37.4485399,10.2536033 37.4485399,10.6532296 37.4485399,10.770563 L37.4566816,13.4991056 Z M35.6230862,12.2409106 C35.6230862,11.7815352 35.5639518,10.6792074 35.4323991,10.2925701 C35.2781355,9.78989825 34.7973469,9.90117014 34.3426976,9.90117014 L34.3144159,9.50327571 C34.9991753,9.51842947 35.7216436,9.47253523 36.4098311,9.48422527 C36.9758931,9.47253523 37.5406696,9.49418346 38.1110168,9.51842947 C39.6030895,9.58077637 41.4765364,10.3168161 41.50139,11.8663962 C41.5181019,13.0505543 40.8029183,13.2640058 40.0474547,13.7272779 L40.0431696,13.8043456 C40.5659521,13.9446261 40.9070463,14.0706188 41.4079748,14.5343238 C41.6577962,14.7633621 42.0931627,15.4444153 42.0503116,16.2731095 C41.9933198,17.2520423 41.5600959,17.8772431 40.7720655,18.3630294 C40.0294572,18.8167762 39.4625382,18.9042351 38.63937,18.9042351 C38.0133165,18.892545 37.4031178,18.9215536 36.7749218,18.9042351 C35.9770357,18.9215536 35.133299,18.928914 34.3234146,19.0172388 L34.3144159,18.6518167 C34.7703508,18.6518167 35.1525819,18.6085203 35.4825349,18.1950391 C35.678364,17.9413219 35.6230862,16.7342167 35.6230862,16.2731095 L35.6230862,12.2409106 Z" id="Fill-10"></path>
        </g>
    </g>
</svg>