<?xml version="1.0" encoding="UTF-8"?>
<svg width="100px" height="100px" viewBox="0 0 100 100" version="1.1" xmlns="http://www.w3.org/2000/svg" xmlns:xlink="http://www.w3.org/1999/xlink">
    <!-- Generator: Sketch 45.2 (43514) - http://www.bohemiancoding.com/sketch -->
    <title>ui/icn-phone</title>
    <desc>Created with Sketch.</desc>
    <defs></defs>
    <g id="Page-1" stroke="none" stroke-width="1" fill-rule="evenodd">
        <g id="ui/icn-phone" fill-rule="nonzero">
            <g id="call-answer-(1)" transform="translate(5.000000, 5.000000)">
                <path d="M87.7494842,70.9383095 L73.8871633,57.0744413 C71.1260458,54.3244126 66.5535817,54.4079656 63.6962751,57.2663037 L56.7123782,64.2486533 C56.2711461,64.0054728 55.8144413,63.7514613 55.3342693,63.4819771 C50.9240115,61.0383095 44.8878223,57.6889685 38.5359885,51.3324928 C32.1653295,44.9626074 28.812894,38.9171347 26.3617479,34.5040401 C26.1030946,34.0365043 25.8552722,33.5857307 25.6105444,33.1576504 L30.297765,28.4773926 L32.6021777,26.1701433 C35.4638682,23.3076791 35.5427794,18.7365043 32.7881089,15.9784814 L18.925788,2.1130659 C16.1711175,-0.641088825 11.5965903,-0.557535817 8.73489971,2.30492837 L4.82802292,6.23424069 L4.9347851,6.34022923 C3.62475645,8.01180516 2.53005731,9.93971347 1.71541547,12.0187393 C0.964469914,13.9977077 0.496934097,15.8861605 0.283151862,17.7784814 C-1.54727794,32.9531519 5.38710602,46.8216619 24.2061318,65.6409456 C50.2197421,91.6527507 71.1832951,89.6877077 72.0876791,89.5917765 C74.0573639,89.3563324 75.945043,88.885702 77.8634097,88.1406877 C79.924384,87.3355874 81.8510029,86.2424355 83.5215473,84.9352436 L83.6069054,85.0110602 L87.5648424,81.1353868 C90.4206017,78.2734384 90.5028653,73.7007163 87.7494842,70.9383095 Z" id="Shape"></path>
            </g>
        </g>
    </g>
</svg>