<?xml version="1.0" encoding="UTF-8"?>
<svg width="100px" height="100px" viewBox="0 0 100 100" version="1.1" xmlns="http://www.w3.org/2000/svg" xmlns:xlink="http://www.w3.org/1999/xlink">
    <!-- Generator: Sketch 45.2 (43514) - http://www.bohemiancoding.com/sketch -->
    <title>nav/icn-rate</title>
    <desc>Created with Sketch.</desc>
    <defs></defs>
    <g id="Page-1" stroke="none" stroke-width="1" fill-rule="evenodd">
        <g id="nav/icn-rate" fill-rule="nonzero">
            <g id="Icons-/-Glyph-/-rate" transform="translate(5.000000, 5.000000)">
                <path d="M6.91595002,82.9914002 L6.91595002,3.45797501 C6.91595002,1.54818815 5.36776187,0 3.45797501,0 C1.54818815,0 0,1.54818815 0,3.45797501 L0,86.4493752 C0,87.4042687 0.387047037,88.2687624 1.01281743,88.8945328 C1.63858783,89.5203032 2.50308158,89.9073503 3.45797501,89.9073503 L86.4493752,89.9073503 C88.3591621,89.9073503 89.9073503,88.3591621 89.9073503,86.4493752 C89.9073503,84.5395884 88.3591621,82.9914002 86.4493752,82.9914002 L6.91595002,82.9914002 Z" id="Combined-Shape"></path>
                <path d="M35.1482924,42.8091116 L45.8650801,60.1293626 C47.3551859,62.5376407 50.9499562,62.2316069 52.0115201,59.6060973 L67.4289732,21.4749294 L78.2791469,46.1872716 C79.0469128,47.9359344 81.0868813,48.7311083 82.8355441,47.9633424 C84.5842068,47.1955765 85.3793808,45.155608 84.6116148,43.4069452 L70.463972,11.1842914 C69.2338637,8.38259837 65.2388652,8.44150358 64.0918942,11.278246 L48.1569185,50.6893751 L37.9639007,34.2156301 C36.5826737,31.9833194 33.315528,32.0436018 32.0175902,34.3253461 L13.7602251,66.4213651 C12.8159518,68.0813753 13.3961713,70.1925642 15.0561815,71.1368374 C16.7161917,72.0811107 18.8273805,71.5008913 19.7716538,69.840881 L35.1482924,42.8091116 Z" id="Path-4"></path>
            </g>
        </g>
    </g>
</svg>