<?xml version="1.0" encoding="UTF-8"?>
<svg width="100px" height="100px" viewBox="0 0 100 100" version="1.1" xmlns="http://www.w3.org/2000/svg" xmlns:xlink="http://www.w3.org/1999/xlink">
    <!-- Generator: Sketch 46.2 (44496) - http://www.bohemiancoding.com/sketch -->
    <title>ui/icn-switch</title>
    <desc>Created with Sketch.</desc>
    <defs></defs>
    <g id="Exportable" stroke="none" stroke-width="1" fill-rule="evenodd">
        <g id="ui/icn-switch" fill-rule="nonzero">
            <g id="Icons-/-Glyph-/-switch" transform="translate(5.000000, 30.000000)">
                <path d="M42.0046838,-16.4964871 L28.234192,-2.72599532 C27.3348946,-1.82669789 25.8922717,-1.82669789 24.9929742,-2.72599532 C24.0936768,-3.62529274 24.0936768,-5.06791569 24.9929742,-5.96721311 L42.6978923,-23.6721311 C43.559719,-24.5339578 45.0772834,-24.5339578 45.9391101,-23.6721311 L63.6440281,-5.96721311 C64.5433255,-5.06791569 64.5433255,-3.62529274 63.6440281,-2.72599532 C63.1943794,-2.2763466 62.6135831,-2.05152225 62.0140515,-2.05152225 C61.4145199,-2.05152225 60.8337237,-2.2763466 60.3840749,-2.72599532 L46.6135831,-16.4964871 L46.6135831,56.4871194 L60.4028103,42.6978923 C61.3021077,41.7985948 62.7447307,41.7985948 63.6440281,42.6978923 C64.5245902,43.5971897 64.5245902,45.058548 63.6627635,45.9391101 L45.9578454,63.6440281 C45.5081967,64.0936768 44.9274005,64.3185012 44.3278689,64.3185012 C43.7283372,64.3185012 43.147541,64.0936768 42.6978923,63.6440281 L24.9929742,45.9391101 C24.0936768,45.0398126 24.0936768,43.5971897 24.9929742,42.6978923 C25.8922717,41.7985948 27.3348946,41.7985948 28.234192,42.6978923 L42.0046838,56.4871194 L42.0046838,-16.4964871 Z" id="Combined-Shape" transform="translate(44.318501, 20.000000) rotate(90.000000) translate(-44.318501, -20.000000) "></path>
            </g>
        </g>
    </g>
</svg>
