<?xml version="1.0" encoding="UTF-8"?>
<svg width="45px" height="48px" viewBox="0 0 45 48" version="1.1" xmlns="http://www.w3.org/2000/svg" xmlns:xlink="http://www.w3.org/1999/xlink">
    <!-- Generator: Sketch 46.2 (44496) - http://www.bohemiancoding.com/sketch -->
    <title>ui/icn-withdraw</title>
    <desc>Created with Sketch.</desc>
    <defs></defs>
    <g id="ui/icon" stroke="none" stroke-width="1" fill="" fill-rule="evenodd">
        <g id="ui/icn-withdraw" fill-rule="nonzero" fill="">
            <g id="Group-2" transform="translate(2.000000, 2.000000)">
                <g id="Group-7">
                    <g id="withdrawing-money-from-atm">
                        <path d="M40.3606584,11.6214113 C40.0069226,11.6214113 39.7199811,11.3225824 39.7199811,10.9573624 L39.7199811,1.32816725 L1.28135455,1.32816725 L1.28135455,13.7243949 L5.19194465,13.7243949 C5.54561352,13.7243949 5.83262193,14.0218349 5.83262193,14.3885132 C5.83262193,14.7551916 5.54568051,15.0526316 5.19194465,15.0526316 L0.65802909,15.0526316 C0.287008412,15.0526316 0,14.7551916 0,14.3885132 L0,0.682035583 C6.69954276e-05,0.297440017 0.287008412,0 0.64074427,0 L40.3433066,0 C40.7129874,0 40.9999958,0.297440017 40.9999958,0.664118347 L40.9999958,10.9574319 C41.0012687,11.3239713 40.7143273,11.6214113 40.3606584,11.6214113 Z M35.8080511,15.0525621 L40.3593185,15.0525621 C40.7129874,15.0525621 40.9999958,14.7551221 40.9999958,14.3884438 C40.9999958,14.0217655 40.7130544,13.7243254 40.3593185,13.7243254 L35.8080511,13.7243254 C35.4543823,13.7243254 35.1673739,14.0217655 35.1673739,14.3884438 C35.1673739,14.7551221 35.4557222,15.0525621 35.8080511,15.0525621 Z" id="Shape"></path>
                        <path d="M6.49497634,8.10526316 C6.14287731,8.10526316 5.85714286,7.84596884 5.85714286,7.52631579 C5.85714286,7.20666274 6.14281062,6.94736842 6.49497634,6.94736842 L34.5050237,6.94736842 C34.8571227,6.94736842 35.1428571,7.20666274 35.1428571,7.52631579 C35.1428571,7.84596884 34.8571894,8.10526316 34.5050237,8.10526316 L6.49497634,8.10526316 Z" id="Shape"></path>
                        <g id="Group-5" transform="translate(7.000000, 24.000000)">
                            <path d="M7.30091327,5.61155621 C7.30091327,5.97823454 7.00476117,6.27560511 6.63967056,6.27560511 L1.32248541,6.27560511 L1.32248541,18.6718328 L25.62051,18.6718328 L25.62051,6.27560511 L23.2925042,6.27560511 C22.9274828,6.27560511 22.6312615,5.9781651 22.6312615,5.61155621 C22.6312615,5.24487788 22.9274136,4.94743787 23.2925042,4.94743787 L26.2650886,4.94743787 C26.6466359,4.94743787 26.9428571,5.24487788 26.9428571,5.61155621 L26.9428571,19.3193533 C26.9428571,19.7024905 26.6451838,20 26.2816144,20 L0.677768588,20 C0.296221244,20 0,19.70256 0,19.3359511 L0,5.62947345 C0,5.24487788 0.296152098,4.94736842 0.661242706,4.94736842 L6.63967056,4.94743787 C7.00330911,4.94743787 7.30091327,5.24487788 7.30091327,5.61155621 Z M20.3032557,4.94743787 L9.627467,4.94743787 C9.26244554,4.94743787 8.96622429,5.24487788 8.96622429,5.61155621 C8.96622429,5.97823454 9.26237639,6.27560511 9.627467,6.27560511 L20.3032557,6.27560511 C20.6682772,6.27560511 20.9644984,5.9781651 20.9644984,5.61155621 C20.9658122,5.24487788 20.6682772,4.94743787 20.3032557,4.94743787 Z" id="Shape" transform="translate(13.471429, 12.473684) scale(1, -1) translate(-13.471429, -12.473684) "></path>
                            <path d="M6,12.5518516 C6,12.1891089 6.30094158,11.8947368 6.67193657,11.8947368 C7.04145601,11.8947368 7.34387314,12.1890402 7.34387314,12.5518516 C7.34387314,14.245178 8.04658543,15.7784 9.18043887,16.8871738 C10.3156273,17.9973906 11.8834325,18.6831593 13.6149532,18.6831593 C15.3478793,18.6831593 16.9156844,17.9974594 18.0481326,16.8899224 C19.1820563,15.7783313 19.8847686,14.245178 19.8847686,12.5518516 C19.8847686,12.1891089 20.1856399,11.8947368 20.5566349,11.8947368 C20.9276298,11.8947368 21.2285714,12.1890402 21.2285714,12.5518516 C21.2285714,14.6079207 20.3759856,16.47104 18.9986667,17.8181151 C17.6183967,19.1650526 15.7146584,20 13.6149532,20 C11.5124375,20 9.60736416,19.1663582 8.22990473,17.8179776 C6.85244531,16.47104 6,14.6093637 6,12.5518516 Z" id="Shape" transform="translate(13.614286, 15.947368) scale(1, -1) translate(-13.614286, -15.947368) "></path>
                            <path d="M0.600759984,7.3981027 C0.269126401,7.3981027 0,7.13214769 0,6.80434556 C0,6.47648133 0.26906358,6.21052632 0.600759984,6.21052632 C2.05249715,6.21052632 3.36659286,6.79192646 4.31777,7.73211438 C5.2676907,8.67106039 5.85714286,9.97127801 5.85714286,11.4061808 C5.85714286,11.7339829 5.58807928,12 5.25638287,12 C4.92468647,12 4.65562289,11.734045 4.65562289,11.4061808 C4.65562289,10.299018 4.20136215,9.29698301 3.4679236,8.57208017 C2.73454788,7.84711524 1.71960714,7.3981027 0.600759984,7.3981027 Z" id="Shape" transform="translate(2.928571, 9.105263) scale(1, -1) translate(-2.928571, -9.105263) "></path>
                            <path d="M26.2564457,6.21052632 C26.5880165,6.21052632 26.8571429,6.47648133 26.8571429,6.80434556 C26.8571429,7.13214769 26.5868229,7.3981027 26.2564457,7.3981027 C25.1350229,7.3981027 24.1214014,7.84593543 23.3891564,8.56959635 C22.6545871,9.2957411 22.2014571,10.2977761 22.2014571,11.4061808 C22.2014571,11.7339829 21.9324564,12 21.60076,12 C21.2690636,12 21,11.734045 21,11.4061808 C21,9.97487955 21.5881957,8.67596594 22.5394357,7.7345982 C23.4943821,6.79192646 24.8084778,6.21052632 26.2564457,6.21052632 Z" id="Shape" transform="translate(23.928571, 9.105263) scale(1, -1) translate(-23.928571, -9.105263) "></path>
                            <path d="M0.661208768,1.36842105 C0.29620604,1.36842105 0,1.1079023 0,0.789503956 C0,0.469894737 0.297519746,0.210526316 0.661208768,0.210526316 L26.2817175,0.210526316 C26.6466511,0.210526316 26.9428571,0.469834193 26.9428571,0.789503956 C26.9428571,1.10911318 26.6453374,1.36842105 26.2817175,1.36842105 L0.661208768,1.36842105 Z" id="Shape"></path>
                            <path d="M0.661208768,3.68421053 C0.29620604,3.68421053 0,3.42490265 0,3.10523289 C0,2.78562367 0.297519746,2.52631579 0.661208768,2.52631579 L26.2817175,2.52631579 C26.6466511,2.52631579 26.9428571,2.78562367 26.9428571,3.10523289 C26.9428571,3.42490265 26.6453374,3.68421053 26.2817175,3.68421053 L0.661208768,3.68421053 Z" id="Shape"></path>
                        </g>
                    </g>
                    <g id="next-(1)" transform="translate(20.000000, 17.000000) rotate(90.000000) translate(-20.000000, -17.000000) translate(16.000000, 10.000000)" stroke="#4286C6" stroke-width="0.5">
                        <path d="M7.13269316,6.72090952 L0.663188857,0.11662388 C0.510863789,-0.0388746267 0.266568869,-0.0388746267 0.114243801,0.11662388 C-0.038081267,0.272122387 -0.038081267,0.521506785 0.114243801,0.677005292 L6.30783854,6.99963326 L0.114243801,13.3222612 C-0.038081267,13.4777597 -0.038081267,13.7271441 0.114243801,13.8826426 C0.188969306,13.9589249 0.289561332,14 0.3872793,14 C0.484997268,14 0.585589294,13.9618589 0.660314799,13.8826426 L7.1298191,7.278357 C7.28214417,7.12579242 7.28214417,6.87347409 7.13269316,6.72090952 Z" id="Shape"></path>
                    </g>
                </g>
            </g>
        </g>
    </g>
</svg>
