<?xml version="1.0" encoding="UTF-8"?>
<svg width="100px" height="100px" viewBox="0 0 100 100" version="1.1" xmlns="http://www.w3.org/2000/svg" xmlns:xlink="http://www.w3.org/1999/xlink">
    <!-- Generator: Sketch 46.2 (44496) - http://www.bohemiancoding.com/sketch -->
    <title>icn-fountain-pen</title>
    <desc>Created with Sketch.</desc>
    <defs></defs>
    <g id="Exportable" stroke="none" stroke-width="1"  fill-rule="evenodd">
        <g id="icn-fountain-pen" >
            <path d="M95.5932095,8.99167167 C95.5742095,9.00867167 95.5592095,9.02567167 95.5442095,9.04467167 L69.1862095,37.6426717 L62.3992095,30.9866717 L90.8532095,4.43167167 C91.7952095,3.47967167 93.7862095,3.73667167 95.1122095,4.91567167 C96.2952095,6.10867167 96.5282095,8.05267167 95.5932095,8.99167167 L95.5932095,8.99167167 Z M28.4782095,76.1466717 L23.8742095,71.5446717 L60.7052095,34.7146717 L65.2342095,39.1576717 L28.4782095,76.1466717 Z M20.6102095,85.2256717 L13.4092095,89.3356717 L18.6682095,84.0756717 C19.4192095,83.3246717 19.4192095,82.1076717 18.6682095,81.3566717 C17.9172095,80.6056717 16.7002095,80.6056717 15.9482095,81.3566717 L10.6912095,86.6146717 L14.6752095,79.6286717 L20.3642095,77.2996717 L22.7592095,79.8166717 L20.6102095,85.2256717 Z M97.7572095,2.12567167 C94.7742095,-0.532328334 90.5452095,-0.712328334 88.1782095,1.66867167 L58.3082095,29.5456717 C57.9252095,29.9046717 57.7032095,30.4046717 57.6962095,30.9286717 C57.6902095,31.3026717 57.8282095,31.6466717 58.0232095,31.9566717 L19.7952095,70.1856717 C19.4342095,70.5456717 19.2312095,71.0346717 19.2312095,71.5446717 C19.2312095,72.0556717 19.4342095,72.5446717 19.7952095,72.9046717 L20.1322095,73.2426717 C20.1292095,73.2436717 20.1262095,73.2416717 20.1242095,73.2426717 L12.6032095,76.3196717 C12.2072095,76.4806717 11.8752095,76.7736717 11.6622095,77.1456717 L0.253209503,97.1476717 C-0.176790497,97.9026717 -0.0497904972,98.8496717 0.563209503,99.4616717 C0.933209503,99.8336717 1.4252095,100.025672 1.9222095,100.025672 C2.2492095,100.025672 2.5782095,99.9426717 2.8752095,99.7736717 L23.1002095,88.2346717 C23.4802095,88.0166717 23.7752095,87.6786717 23.9362095,87.2726717 L26.7892095,80.0946717 C26.8122095,80.0356717 26.7892095,79.9736717 26.8062095,79.9136717 L27.1212095,80.2296717 C27.4802095,80.5906717 28.0892095,80.6696717 28.5982095,80.6696717 L28.6072095,80.6696717 C29.1182095,80.6696717 29.7302095,80.3426717 30.0892095,79.9816717 L67.9942095,41.8366717 C68.3452095,42.1436717 68.7862095,42.3286717 69.2542095,42.3286717 L69.3032095,42.3286717 C69.8212095,42.3156717 70.3172095,42.0916717 70.6662095,41.7086717 L98.3502095,11.6756717 C100.74721,9.22867167 100.51721,4.90067167 97.7572095,2.12567167 L97.7572095,2.12567167 Z" id="Fill-1"></path>
        </g>
    </g>
</svg>
