<?xml version="1.0" encoding="UTF-8"?>
<svg width="100px" height="100px" viewBox="0 0 100 100" version="1.1" xmlns="http://www.w3.org/2000/svg" xmlns:xlink="http://www.w3.org/1999/xlink">
    <!-- Generator: Sketch 45.2 (43514) - http://www.bohemiancoding.com/sketch -->
    <title>ui/icn-analytics</title>
    <desc>Created with Sketch.</desc>
    <defs></defs>
    <g id="ui/icon" stroke="none" stroke-width="1" fill="none" fill-rule="evenodd">
        <g id="ui/icn-analytics" fill-rule="nonzero">
            <g transform="translate(10.000000, 10.000000)">
                <path d="M40.1093176,0.594381702 C18.2707335,0.594381702 0.567314932,18.2978003 0.567314932,40.1363844 C0.567314932,61.9748092 18.2708927,79.6785462 40.1093176,79.6785462 C61.9477425,79.6785462 79.6514795,61.9749684 79.6514795,40.1363844 C79.6514795,18.2978003 61.9477425,0.594381702 40.1093176,0.594381702 Z M40.1093176,66.1739797 C27.5266134,66.1739797 17.028528,57.2486329 14.6006388,45.3838349 L14.0717223,40.1362251 C14.0717223,25.755969 25.7290614,14.0984706 40.1094768,14.0984706 C54.4898922,14.0984706 66.1472313,25.7558098 66.1472313,40.1362251 C66.1472313,54.5166405 54.4895738,66.1739797 40.1093176,66.1739797 Z" id="Shape"></path>
                <path d="M40.1352698,14.098789 C43.9599636,14.098789 47.5918464,14.9236886 50.8632635,16.4047186 L56.9058402,4.31956526 C51.813944,1.93132089 46.1311961,0.594222486 40.1352698,0.594222486 C23.9084231,0.594222486 9.96696709,10.3697843 3.87232669,24.3519997 L16.7131205,28.7511458 C20.9374472,20.0768831 29.837797,14.098789 40.1352698,14.098789 Z" id="Shape" stroke="#4286C6"></path>
                <path d="M66.1483459,40.1255577 L79.6513203,40.013947 C79.6032369,24.2235122 70.2999106,10.6135444 56.8813209,4.31972447 L50.8387442,16.4048778 C59.8643973,20.4911639 66.144047,29.5746125 66.1483459,40.1255577 Z" id="Shape" stroke="#4286C6"></path>
                <path d="M14.6117839,45.361863 L14.0828674,40.1142533 C14.0828674,36.03147 15.0236765,32.1685643 16.6984726,28.7290148 L3.8576788,24.3298687 C1.74997354,29.1652674 0.578619289,34.5026751 0.578619289,40.1142533 C0.578619289,61.912078 18.2169184,79.5893851 39.9994584,79.654823 L40.1148902,66.1518486 C27.5347334,66.1491419 17.0393547,57.2249096 14.6117839,45.361863 Z" id="Shape" stroke="#4286C6"></path>
                <path d="M66.1438878,40.1255577 C66.1438878,40.1290604 66.144047,40.1327224 66.144047,40.1363844 C66.144047,54.5166405 54.4867079,66.1741389 40.1062925,66.1741389 C40.1043819,66.1741389 40.1026305,66.1741389 40.1005607,66.1741389 L39.9851289,79.6771133 C40.0255698,79.6771133 40.0658515,79.6785462 40.1061333,79.6785462 C61.9445581,79.6785462 79.6482951,61.9748092 79.6482951,40.1363844 C79.6482951,40.0954658 79.6468622,40.0548656 79.646703,40.0137878 L66.1438878,40.1255577 Z" id="Shape" stroke="#4286C6"></path>
                <g id="Group" transform="translate(24.747334, 29.842255)" stroke="#4286C6">
                    <rect id="Rectangle-path" x="0.0385303423" y="6.02601817" width="4.86899339" height="12.5301629"></rect>
                    <rect id="Rectangle-path" x="26.8191881" y="9.30460003" width="4.86899339" height="9.25110335"></rect>
                    <rect id="Rectangle-path" x="18.2055868" y="6.02601817" width="4.86899339" height="12.5301629"></rect>
                    <rect id="Rectangle-path" x="9.04651042" y="0.054770404" width="4.86899339" height="18.5014106"></rect>
                </g>
            </g>
        </g>
    </g>
</svg>