<?xml version="1.0" encoding="UTF-8"?>
<svg width="100px" height="100px" viewBox="0 0 100 100" version="1.1" xmlns="http://www.w3.org/2000/svg" xmlns:xlink="http://www.w3.org/1999/xlink">
    <!-- Generator: Sketch 45.2 (43514) - http://www.bohemiancoding.com/sketch -->
    <title>nav/icn-earth</title>
    <desc>Created with Sketch.</desc>
    <defs></defs>
    <g id="Page-1" stroke="none" stroke-width="1" fill-rule="evenodd">
        <g id="nav/icn-earth" fill-rule="nonzero">
            <g id="Icons-/-Glyph-/-Earth" transform="translate(9.000000, 9.000000)">
                <path d="M40.8239194,0 C18.3707637,0 0,18.3707637 0,40.8239194 C0,63.2770751 18.3707637,81.6478389 40.8239194,81.6478389 C63.2770751,81.6478389 81.6478389,63.2770751 81.6478389,40.8239194 C81.6478389,18.3707637 63.2770751,0 40.8239194,0 Z M68.9924238,24.4943517 L57.1534872,24.4943517 C55.9287696,19.1872421 53.8875736,14.696611 51.4381385,9.79774066 C58.786444,12.655415 65.3182711,17.5542854 68.9924238,24.4943517 Z M40.8239194,8.16478389 C44.089833,13.0636542 46.9475073,18.3707637 48.5804641,24.4943517 L33.0673747,24.4943517 C34.7003315,18.7790029 37.5580059,13.0636542 40.8239194,8.16478389 Z M9.38950147,48.9887033 C8.57302308,46.5392681 8.16478389,43.6815938 8.16478389,40.8239194 C8.16478389,37.9662451 8.57302308,35.1085707 9.38950147,32.6591355 L23.2696341,32.6591355 C22.8613949,35.5168099 22.8613949,37.9662451 22.8613949,40.8239194 C22.8613949,43.6815938 23.2696341,46.131029 23.2696341,48.9887033 L9.38950147,48.9887033 Z M12.655415,57.1534872 L24.4943517,57.1534872 C25.7190692,62.4605967 27.7602652,66.9512279 30.2097004,71.8500982 C22.8613949,68.9924238 16.3295678,64.0935535 12.655415,57.1534872 Z M24.4943517,24.4943517 L12.655415,24.4943517 C16.737807,17.5542854 22.8613949,12.655415 30.2097004,9.79774066 C27.7602652,14.696611 25.7190692,19.1872421 24.4943517,24.4943517 Z M40.8239194,73.483055 C37.5580059,68.5841846 34.7003315,63.2770751 33.0673747,57.1534872 L48.5804641,57.1534872 C46.9475073,62.8688359 44.089833,68.5841846 40.8239194,73.483055 Z M50.2134209,48.9887033 L31.434418,48.9887033 C31.0261788,46.131029 30.6179396,43.6815938 30.6179396,40.8239194 C30.6179396,37.9662451 31.0261788,35.5168099 31.434418,32.6591355 L50.6216601,32.6591355 C51.0298993,35.5168099 51.4381385,37.9662451 51.4381385,40.8239194 C51.4381385,43.6815938 50.6216601,46.131029 50.2134209,48.9887033 Z M51.4381385,71.8500982 C53.8875736,67.3594671 55.9287696,62.4607568 57.1534872,57.1534872 L68.9924238,57.1534872 C65.3182711,64.0935535 58.786444,68.9924238 51.4381385,71.8500982 Z M58.786444,48.9887033 C59.1946832,46.131029 59.1946832,43.6815938 59.1946832,40.8239194 C59.1946832,37.9662451 58.786444,35.5168099 58.786444,32.6591355 L72.6665766,32.6591355 C73.483055,35.1085707 73.8911341,37.9662451 73.8911341,40.8239194 C73.8911341,43.6815938 73.4828949,46.5392681 72.6665766,48.9887033 L58.786444,48.9887033 Z" id="Shape"></path>
            </g>
        </g>
    </g>
</svg>