<?xml version="1.0" encoding="UTF-8"?>
<svg width="70px" height="70px" viewBox="0 0 70 70" version="1.1" xmlns="http://www.w3.org/2000/svg" xmlns:xlink="http://www.w3.org/1999/xlink">
    <!-- Generator: Sketch 46.2 (44496) - http://www.bohemiancoding.com/sketch -->
    <title>ui/icn-checkboard</title>
    <desc>Created with Sketch.</desc>
    <defs></defs>
    <g id="------" stroke="none" stroke-width="1" fill-rule="evenodd">
        <g id="ui/icn-checkboard">
            <g id="Page-1" transform="translate(10.000000, 4.000000)">
                <polygon id="Fill-1" points="19 44 36 44 36 42 19 42"></polygon>
                <polygon id="Fill-2" points="19 50 36 50 36 48 19 48"></polygon>
                <polygon id="Fill-3" points="12 44 15 44 15 42 12 42"></polygon>
                <polygon id="Fill-4" points="12 50 15 50 15 48 12 48"></polygon>
                <g id="Group-13">
                    <path d="M25,19.703822 C29.4951087,19.703822 33.1521739,23.3564274 33.1521739,27.8460543 C33.1521739,32.3356811 29.4951087,35.9882865 25,35.9882865 C20.5048913,35.9882865 16.8478261,32.3356811 16.8478261,27.8460543 C16.8478261,23.3564274 20.5048913,19.703822 25,19.703822 M25,37.616733 C30.3940217,37.616733 34.7826087,33.2334979 34.7826087,27.8460543 C34.7826087,22.4586106 30.3940217,18.0753756 25,18.0753756 C19.6059783,18.0753756 15.2173913,22.4586106 15.2173913,27.8460543 C15.2173913,33.2334979 19.6059783,37.616733 25,37.616733" id="Fill-5"></path>
                    <polygon id="Fill-7" points="30.3570109 24.6692267 29.1521196 23.5721966 22.94125 30.3736746 20.8390761 28.1421601 19.6515761 29.2581888 22.9597283 32.7696621"></polygon>
                    <path d="M48.3695652,60.2525186 L1.63043478,60.2525186 L1.63043478,8.33818863 L14.8097826,8.33818863 L14.8097826,11.7687825 L4.61956522,11.7687825 L4.61956522,56.8224675 L45.3804348,56.8224675 L45.3804348,11.7687825 L35.8695652,11.7687825 L35.8695652,8.33818863 L48.3695652,8.33818863 L48.3695652,60.2525186 Z M6.25,55.1940211 L43.75,55.1940211 L43.75,13.3972289 L6.25,13.3972289 L6.25,55.1940211 Z M16.4402174,8.33818863 L16.4402174,7.5239654 L16.4402174,5.86512129 L21.8070652,5.86512129 L21.8070652,5.05089806 C21.8070652,3.29271872 23.2396739,1.8618571 25,1.8618571 C26.7603261,1.8618571 28.1929348,3.29271872 28.1929348,5.05089806 L28.1929348,5.86512129 L34.2391304,5.86512129 L34.2391304,7.5239654 L34.2391304,8.33818863 L34.2391304,11.7687825 L16.4402174,11.7687825 L16.4402174,8.33818863 Z M35.8695652,6.70974218 L35.8695652,4.23667484 L29.7543478,4.23667484 C29.3663043,1.96662049 27.3820652,0.233410657 25,0.233410657 C22.6179348,0.233410657 20.6336957,1.96662049 20.2456522,4.23667484 L14.8097826,4.23667484 L14.8097826,6.70974218 L0,6.70974218 L0,61.880965 L50,61.880965 L50,6.70974218 L35.8695652,6.70974218 Z" id="Fill-9"></path>
                    <path d="M26.0638587,5.27312672 C26.0046196,5.55701922 25.8377717,5.80074337 25.594837,5.95924549 C25.3524457,6.11829043 25.0633152,6.17420042 24.7774457,6.11340509 C24.4932065,6.0542382 24.2497283,5.88813666 24.0904891,5.64549814 C23.9317935,5.40285962 23.8769022,5.11299616 23.9361413,4.82910366 C23.9953804,4.54521116 24.1616848,4.30148701 24.405163,4.14244207 C24.5877717,4.02302267 24.7942935,3.96602704 24.9980978,3.96602704 C25.3529891,3.96602704 25.7013587,4.13864236 25.9095109,4.45673224 C26.0682065,4.69937076 26.1230978,4.98923423 26.0638587,5.27312672 M24.107337,3.68864833 C23.742663,3.92694433 23.4932065,4.29225915 23.4040761,4.71782648 C23.3149457,5.14393664 23.3975543,5.57818902 23.6355978,5.94241821 C23.8741848,6.3066474 24.2404891,6.55579971 24.6665761,6.64482145 C24.7785326,6.66816251 24.8915761,6.68010445 25.0029891,6.68010445 C25.3165761,6.68010445 25.6241848,6.58891145 25.892663,6.41358205 C26.2567935,6.17528606 26.5067935,5.80997124 26.5959239,5.3844039 C26.6850543,4.95829374 26.6024457,4.52349854 26.3644022,4.15926935 C25.8714674,3.40855554 24.8600543,3.1968575 24.107337,3.68864833" id="Fill-11"></path>
                </g>
            </g>
        </g>
    </g>
</svg>
