<?xml version="1.0" encoding="UTF-8"?>
<svg width="95px" height="95px" viewBox="0 0 95 95" version="1.1" xmlns="http://www.w3.org/2000/svg" xmlns:xlink="http://www.w3.org/1999/xlink">
    <!-- Generator: Sketch 46.2 (44496) - http://www.bohemiancoding.com/sketch -->
    <title>ui/icn-geometric-circles</title>
    <desc>Created with Sketch.</desc>
    <defs>
        <linearGradient x1="50%" y1="-8.4718772%" x2="50%" y2="104.253434%" id="linearGradient-1">
            <stop stop-color="#68E0CF" offset="0%"></stop>
            <stop stop-color="#209CFF" offset="100%"></stop>
        </linearGradient>
        <linearGradient x1="70.5967665%" y1="111.611651%" x2="50%" y2="0%" id="linearGradient-2">
            <stop stop-color="#68E0CF" offset="0%"></stop>
            <stop stop-color="#209CFF" offset="100%"></stop>
        </linearGradient>
    </defs>
    <g id="Exportable" stroke="none" stroke-width="1" fill="none" fill-rule="evenodd">
        <g id="ui/icn-geometric-circles">
            <path d="M47.5,74 C42.54,74 37.71,72.586 33.539,69.999 C36.145,71.307 39.011,72 42,72 C52.477,72 61,63.477 61,53 C61,49.39 59.98,45.892 58.062,42.86 C58.619,42.24 58.969,41.429 58.969,40.531 C58.969,39.747 58.7,39.029 58.262,38.445 L66.414,30.293 C66.943,30.69 67.585,30.936 68.283,30.982 L68.247,31.011 C72.01,35.74 74,41.442 74,47.5 C74,62.112 62.112,74 47.5,74 M26,65.5 C26,64.121 27.122,63 28.5,63 C29.878,63 31,64.121 31,65.5 C31,66.879 29.878,68 28.5,68 C27.122,68 26,66.879 26,65.5 M55.469,43.031 C54.09,43.031 52.969,41.91 52.969,40.531 C52.969,39.152 54.09,38.031 55.469,38.031 C56.847,38.031 57.969,39.152 57.969,40.531 C57.969,41.91 56.847,43.031 55.469,43.031 M34.5,69 C39.187,69 43,65.187 43,60.5 C43,59.437 42.803,58.402 42.421,57.419 C42.785,56.867 43,56.209 43,55.5 C43,54.714 42.73,53.996 42.291,53.411 L53.384,43.326 C53.968,43.763 54.685,44.031 55.469,44.031 C56.136,44.031 56.754,43.834 57.285,43.508 C59.057,46.354 60,49.624 60,53 C60,62.925 51.925,71 42,71 C39.045,71 36.214,70.293 33.659,68.95 C33.938,68.979 34.218,69 34.5,69 M34.5,53 C35.274,53 36.03,53.122 36.758,53.352 C36.29,53.947 36,54.687 36,55.5 C36,56.247 36.24,56.937 36.641,57.506 L30.745,62.838 C30.136,62.323 29.359,62 28.5,62 C28.05,62 27.622,62.093 27.227,62.248 C27.09,61.677 27,61.094 27,60.5 C27,56.364 30.364,53 34.5,53 M42,55.5 C42,56.879 40.878,58 39.5,58 C38.122,58 37,56.879 37,55.5 C37,54.121 38.122,53 39.5,53 C40.878,53 42,54.121 42,55.5 M26.063,61.351 C24.716,58.785 24,55.935 24,53 C24,43.075 32.075,35 42,35 C45.874,35 49.535,36.214 52.635,38.493 C52.22,39.069 51.969,39.769 51.969,40.531 C51.969,41.316 52.238,42.034 52.676,42.619 L41.583,52.704 C40.999,52.268 40.283,52 39.5,52 C38.791,52 38.133,52.215 37.581,52.579 C36.598,52.196 35.563,52 34.5,52 C29.813,52 26,55.813 26,60.5 C26,60.786 26.032,61.069 26.063,61.351 M31.419,63.576 L37.334,58.227 C37.932,58.703 38.678,59 39.5,59 C40.313,59 41.053,58.709 41.648,58.242 C41.878,58.97 42,59.726 42,60.5 C42,64.636 38.636,68 34.5,68 C33.45,68 32.415,67.766 31.462,67.344 C31.797,66.807 32,66.178 32,65.5 C32,64.789 31.784,64.129 31.419,63.576 M47.5,21 C53.964,21 60.17,23.354 65.01,27.62 C65.036,28.357 65.292,29.032 65.707,29.586 L57.555,37.738 C56.971,37.3 56.253,37.031 55.469,37.031 C54.666,37.031 53.934,37.314 53.343,37.771 C50.046,35.309 46.137,34 42,34 C31.523,34 23,42.523 23,53 C23,56.066 23.743,59.042 25.139,61.728 C22.425,57.483 21,52.608 21,47.5 C21,32.888 32.888,21 47.5,21 M68.5,25 C69.878,25 71,26.121 71,27.5 C71,28.879 69.878,30 68.5,30 C67.122,30 66,28.879 66,27.5 C66,26.121 67.122,25 68.5,25 M69.383,30.873 C70.884,30.479 72,29.123 72,27.5 C72,25.57 70.43,24 68.5,24 C66.941,24 65.631,25.032 65.18,26.444 C60.232,22.285 53.99,20 47.5,20 C32.336,20 20,32.337 20,47.5 C20,53.468 21.883,59.125 25.431,63.892 C25.166,64.372 25,64.911 25,65.5 C25,67.43 26.57,69 28.5,69 C29.023,69 29.507,68.867 29.948,68.656 C34.871,72.742 41.087,75 47.5,75 C62.664,75 75,62.663 75,47.5 C75,41.416 73.049,35.687 69.383,30.873" id="Page-1" fill="url(#linearGradient-1)"></path>
            <path d="M48,91 C24.2541542,91 5,71.7507274 5,48 C5,24.2492726 24.2541542,5 48,5 C71.7458458,5 91,24.2492726 91,48 C91,71.7507274 71.7458458,91 48,91 Z M48,89.6756667 C71.0310932,89.6756667 89.6971404,71.014352 89.6971404,48 C89.6971404,24.985648 71.0310932,6.32433329 48,6.32433329 C24.9689068,6.32433329 6.3028596,24.985648 6.3028596,48 C6.3028596,71.014352 24.9689068,89.6756667 48,89.6756667 Z" id="Oval-Copy-3" fill="url(#linearGradient-2)" fill-rule="nonzero"></path>
        </g>
    </g>
</svg>