<?xml version="1.0" encoding="UTF-8"?>
<svg width="95px" height="95px" viewBox="0 0 95 95" version="1.1" xmlns="http://www.w3.org/2000/svg" xmlns:xlink="http://www.w3.org/1999/xlink">
    <!-- Generator: Sketch 46.2 (44496) - http://www.bohemiancoding.com/sketch -->
    <title>ui/icn-geometric- hexagon</title>
    <desc>Created with Sketch.</desc>
    <defs>
        <linearGradient x1="50%" y1="-8.4718772%" x2="50%" y2="104.253434%" id="linearGradient-1">
            <stop stop-color="#68E0CF" offset="0%"></stop>
            <stop stop-color="#209CFF" offset="100%"></stop>
        </linearGradient>
        <polygon id="path-2" points="0 30.875 48.8108 30.875 48.8108 0.683 2.71050543e-20 0.683"></polygon>
        <linearGradient x1="70.5967665%" y1="111.611651%" x2="50%" y2="0%" id="linearGradient-4">
            <stop stop-color="#68E0CF" offset="0%"></stop>
            <stop stop-color="#209CFF" offset="100%"></stop>
        </linearGradient>
    </defs>
    <g id="Exportable" stroke="none" stroke-width="1" fill="none" fill-rule="evenodd">
        <g id="ui/icn-geometric--hexagon">
            <g id="Page-1" transform="translate(23.000000, 20.000000)">
                <path d="M24.2119,1 C25.2119,1 26.0239,1.813 26.0239,2.812 C26.0239,3.812 25.2119,4.625 24.2119,4.625 C23.2119,4.625 22.3999,3.812 22.3999,2.812 C22.3999,1.813 23.2119,1 24.2119,1 M24.2119,5.625 C25.7629,5.625 27.0249,4.363 27.0249,2.812 C27.0249,1.262 25.7629,0 24.2119,0 C22.6609,0 21.3989,1.262 21.3989,2.812 C21.3989,4.363 22.6609,5.625 24.2119,5.625" id="Fill-1" fill="url(#linearGradient-1)"></path>
                <path d="M24.2119,53.5889 C23.2119,53.5889 22.3999,52.7759 22.3999,51.7769 C22.3999,50.7769 23.2119,49.9639 24.2119,49.9639 C25.2119,49.9639 26.0239,50.7769 26.0239,51.7769 C26.0239,52.7759 25.2119,53.5889 24.2119,53.5889 M24.2119,48.9639 C22.6609,48.9639 21.3989,50.2259 21.3989,51.7769 C21.3989,53.3269 22.6609,54.5889 24.2119,54.5889 C25.7629,54.5889 27.0249,53.3269 27.0249,51.7769 C27.0249,50.2259 25.7629,48.9639 24.2119,48.9639" id="Fill-3" fill="url(#linearGradient-1)"></path>
                <g id="Group-7" transform="translate(0.000000, 11.588900)">
                    <mask id="mask-3" fill="white">
                        <use xlink:href="#path-2"></use>
                    </mask>
                    <g id="Clip-6"></g>
                    <path d="M45.9438,29.875 C44.9438,29.875 44.1318,29.062 44.1318,28.063 C44.1318,27.063 44.9438,26.25 45.9438,26.25 C46.9438,26.25 47.7558,27.063 47.7558,28.063 C47.7558,29.062 46.9438,29.875 45.9438,29.875 L45.9438,29.875 Z M24.5168,29.525 L13.1948,22.987 L18.7218,19.795 L24.5408,23.155 L30.3888,19.779 L35.9298,22.935 L24.5168,29.525 Z M12.8678,9.648 L17.8678,12.855 L17.8678,18.923 L12.8678,22.175 L12.8678,9.648 Z M24.5168,2.011 L36.0178,8.651 L30.3348,11.934 L24.5408,8.589 L18.6928,11.965 L12.9458,8.692 L24.5168,2.011 Z M25.5528,15.861 L29.8678,13.369 L29.8678,18.32 L25.5528,15.861 Z M24.5298,16.441 L29.3818,19.205 L24.5408,22.001 L19.7218,19.218 L24.5298,16.441 Z M19.6998,12.539 L24.5408,9.743 L29.3348,12.512 L24.5268,15.288 L19.6998,12.539 Z M23.1578,15.868 L18.8678,18.346 L18.8678,13.425 L23.1578,15.868 Z M36.8678,22.069 L30.8678,18.889 L30.8678,12.791 L36.8678,9.567 L36.8678,22.069 Z M2.8128,29.875 C1.8128,29.875 0.9998,29.062 0.9998,28.063 C0.9998,27.063 1.8128,26.25 2.8128,26.25 C3.8118,26.25 4.6248,27.063 4.6248,28.063 C4.6248,29.062 3.8118,29.875 2.8128,29.875 L2.8128,29.875 Z M2.8128,5.308 C1.8128,5.308 0.9998,4.494 0.9998,3.495 C0.9998,2.496 1.8128,1.683 2.8128,1.683 C3.8118,1.683 4.6248,2.496 4.6248,3.495 C4.6248,4.494 3.8118,5.308 2.8128,5.308 L2.8128,5.308 Z M45.9438,1.683 C46.9438,1.683 47.7558,2.496 47.7558,3.495 C47.7558,4.494 46.9438,5.308 45.9438,5.308 C44.9438,5.308 44.1318,4.494 44.1318,3.495 C44.1318,2.496 44.9438,1.683 45.9438,1.683 L45.9438,1.683 Z M45.9438,25.25 C45.0798,25.25 44.5338,25.65 44.0168,26.266 L37.8678,22.638 L37.8678,8.989 L44.0278,5.305 C44.5448,5.913 45.1948,6.308 46.0528,6.308 C47.6038,6.308 48.8108,5.046 48.8108,3.495 C48.8108,1.944 47.5218,0.683 45.9708,0.683 C44.4208,0.683 43.1448,1.944 43.1448,3.495 C43.1448,3.829 43.2068,4.144 43.3138,4.441 L37.0218,8.074 L24.5178,0.856 L11.9388,8.118 L5.4548,4.425 C5.5588,4.132 5.6248,3.823 5.6248,3.495 C5.6248,1.944 4.3638,0.683 2.8128,0.683 C1.2618,0.683 -0.0002,1.944 -0.0002,3.495 C-0.0002,5.046 1.2618,6.308 2.8128,6.308 C3.6768,6.308 4.5738,5.908 5.0898,5.293 L11.8678,9.078 L11.8678,22.753 L5.2728,26.486 C4.7658,25.741 3.8458,25.25 2.8788,25.25 C1.3278,25.25 0.0328,26.512 0.0328,28.063 C0.0328,29.613 1.2778,30.875 2.8288,30.875 C4.3798,30.875 5.6328,29.613 5.6328,28.063 C5.6328,27.836 5.5948,27.619 5.5448,27.409 L12.1968,23.565 L24.5178,30.68 L36.9378,23.508 L43.3018,27.134 C43.1988,27.426 43.1318,27.735 43.1318,28.063 C43.1318,29.613 44.3928,30.875 45.9438,30.875 C47.4948,30.875 48.7568,29.613 48.7568,28.063 C48.7568,26.512 47.4948,25.25 45.9438,25.25 L45.9438,25.25 Z" id="Fill-5" fill="url(#linearGradient-1)" mask="url(#mask-3)"></path>
                </g>
            </g>
            <path d="M48,91 C24.2541542,91 5,71.7507274 5,48 C5,24.2492726 24.2541542,5 48,5 C71.7458458,5 91,24.2492726 91,48 C91,71.7507274 71.7458458,91 48,91 Z M48,89.6756667 C71.0310932,89.6756667 89.6971404,71.014352 89.6971404,48 C89.6971404,24.985648 71.0310932,6.32433329 48,6.32433329 C24.9689068,6.32433329 6.3028596,24.985648 6.3028596,48 C6.3028596,71.014352 24.9689068,89.6756667 48,89.6756667 Z" id="Oval-Copy-3" fill="url(#linearGradient-4)" fill-rule="nonzero"></path>
        </g>
    </g>
</svg>