<?xml version="1.0" encoding="UTF-8"?>
<svg width="18px" height="18px" viewBox="0 0 18 18" version="1.1" xmlns="http://www.w3.org/2000/svg" xmlns:xlink="http://www.w3.org/1999/xlink">
    <!-- Generator: Sketch 46.2 (44496) - http://www.bohemiancoding.com/sketch -->
    <title>Shape</title>
    <desc>Created with Sketch.</desc>
    <defs></defs>
    <g id="5_Support" stroke="none" stroke-width="1" fill-rule="evenodd">
        <g id="5.1.0_contact-us" transform="translate(-569.000000, -1053.000000)" fill-rule="nonzero">
            <g id="planet-earth" transform="translate(569.000000, 1053.000000)">
                <path d="M9,0 C4.04005939,0 0,4.02369625 0,9 C0,13.9416684 3.9968607,18 9,18 C13.9545953,18 18,13.9829035 18,9 C18,4.03738675 13.9626133,0 9,0 Z M3.7267598,11.6031029 L2.19091543,11.8094967 C1.48424593,10.1042938 1.46073755,8.19804248 2.07348262,6.49736675 L3.95698918,8.24756826 L3.7267598,11.6031029 Z M11.4185267,14.3304567 L8.18724281,15.6171995 C7.93361413,15.7182691 7.64600467,15.6859792 7.42106603,15.5313475 L6.71254204,15.0442714 C6.42727796,14.8481319 6.29631829,14.4937608 6.38549741,14.1592982 L7.09402139,11.5012697 C7.23245356,10.9820672 7.82654465,10.7347656 8.29251235,11.0027393 L11.5237417,12.8611012 C12.1160328,13.2017818 12.0525984,14.0780279 11.4185267,14.3304567 Z M12.7798855,10.292579 L11.9804915,6.69525166 C11.9387109,6.50734826 11.8326233,6.34224417 11.6836096,6.22650223 C11.575831,6.14283204 11.8604951,6.28295506 7.2286355,4.1715645 L7.37377655,1.81658132 C13.3089603,0.478840035 18.2834641,6.57394624 15.6643799,12.1356686 L12.7798855,10.292579 Z" id="Shape"></path>
            </g>
        </g>
    </g>
</svg>
