<?xml version="1.0" encoding="UTF-8"?>
<svg width="45px" height="48px" viewBox="0 0 45 48" version="1.1" xmlns="http://www.w3.org/2000/svg" xmlns:xlink="http://www.w3.org/1999/xlink">
    <!-- Generator: Sketch 46.2 (44496) - http://www.bohemiancoding.com/sketch -->
    <title>ui/icn-deposit</title>
    <desc>Created with Sketch.</desc>
    <defs></defs>
    <g id="ui/icon" stroke="none" stroke-width="1" fill="" fill-rule="evenodd">
        <g id="ui/icn-deposit" fill-rule="nonzero">
            <g id="Group-40" transform="translate(2.000000, 2.000000)">
                <g id="Group-2-Copy-2">
                    <g id="Group-7">
                        <path d="M40.3606584,11.6214113 C40.0069226,11.6214113 39.7199811,11.3225824 39.7199811,10.9573624 L39.7199811,1.32816725 L1.28135455,1.32816725 L1.28135455,13.7243949 L5.19194465,13.7243949 C5.54561352,13.7243949 5.83262193,14.0218349 5.83262193,14.3885132 C5.83262193,14.7551916 5.54568051,15.0526316 5.19194465,15.0526316 L0.65802909,15.0526316 C0.287008412,15.0526316 0,14.7551916 0,14.3885132 L0,0.682035583 C6.69954276e-05,0.297440017 0.287008412,0 0.64074427,0 L40.3433066,0 C40.7129874,0 40.9999958,0.297440017 40.9999958,0.664118347 L40.9999958,10.9574319 C41.0012687,11.3239713 40.7143273,11.6214113 40.3606584,11.6214113 Z M35.8080511,15.0525621 L40.3593185,15.0525621 C40.7129874,15.0525621 40.9999958,14.7551221 40.9999958,14.3884438 C40.9999958,14.0217655 40.7130544,13.7243254 40.3593185,13.7243254 L35.8080511,13.7243254 C35.4543823,13.7243254 35.1673739,14.0217655 35.1673739,14.3884438 C35.1673739,14.7551221 35.4557222,15.0525621 35.8080511,15.0525621 Z" id="Shape"></path>
                        <path d="M6.49497634,8.10526316 C6.14287731,8.10526316 5.85714286,7.84596884 5.85714286,7.52631579 C5.85714286,7.20666274 6.14281062,6.94736842 6.49497634,6.94736842 L34.5050237,6.94736842 C34.8571227,6.94736842 35.1428571,7.20666274 35.1428571,7.52631579 C35.1428571,7.84596884 34.8571894,8.10526316 34.5050237,8.10526316 L6.49497634,8.10526316 Z" id="Shape"></path>
                        <path d="M14.3009133,24.6641878 C14.3009133,25.0308661 14.0047612,25.3282367 13.6396706,25.3282367 L8.32248541,25.3282367 L8.32248541,37.7244643 L32.62051,37.7244643 L32.62051,25.3282367 L30.2925042,25.3282367 C29.9274828,25.3282367 29.6312615,25.0307967 29.6312615,24.6641878 C29.6312615,24.2975095 29.9274136,24.0000694 30.2925042,24.0000694 L33.2650886,24.0000694 C33.6466359,24.0000694 33.9428571,24.2975095 33.9428571,24.6641878 L33.9428571,38.3719849 C33.9428571,38.7551221 33.6451838,39.0526316 33.2816144,39.0526316 L7.67776859,39.0526316 C7.29622124,39.0526316 7,38.7551916 7,38.3885827 L7,24.682105 C7,24.2975095 7.2961521,24 7.66124271,24 L13.6396706,24.0000694 C14.0033091,24.0000694 14.3009133,24.2975095 14.3009133,24.6641878 Z M27.3032557,24.0000694 L16.627467,24.0000694 C16.2624455,24.0000694 15.9662243,24.2975095 15.9662243,24.6641878 C15.9662243,25.0308661 16.2623764,25.3282367 16.627467,25.3282367 L27.3032557,25.3282367 C27.6682772,25.3282367 27.9644984,25.0307967 27.9644984,24.6641878 C27.9658122,24.2975095 27.6682772,24.0000694 27.3032557,24.0000694 Z" id="Shape"></path>
                        <path d="M7.66120877,41.1578947 C7.29620604,41.1578947 7,40.897376 7,40.5789776 C7,40.2593684 7.29751975,40 7.66120877,40 L33.2817175,40 C33.6466511,40 33.9428571,40.2593079 33.9428571,40.5789776 C33.9428571,40.8985869 33.6453374,41.1578947 33.2817175,41.1578947 L7.66120877,41.1578947 Z" id="Shape"></path>
                        <path d="M7.66120877,43.1578947 C7.29620604,43.1578947 7,42.8985869 7,42.5789171 C7,42.2593079 7.29751975,42 7.66120877,42 L33.2817175,42 C33.6466511,42 33.9428571,42.2593079 33.9428571,42.5789171 C33.9428571,42.8985869 33.6453374,43.1578947 33.2817175,43.1578947 L7.66120877,43.1578947 Z" id="Shape"></path>
                        <path d="M13,24.6571148 C13,24.294372 13.3009416,24 13.6719366,24 C14.041456,24 14.3438731,24.2943033 14.3438731,24.6571148 C14.3438731,26.3504411 15.0465854,27.8836631 16.1804389,28.992437 C17.3156273,30.1026538 18.8834325,30.7884224 20.6149532,30.7884224 C22.3478793,30.7884224 23.9156844,30.1027225 25.0481326,28.9951855 C26.1820563,27.8835944 26.8847686,26.3504411 26.8847686,24.6571148 C26.8847686,24.294372 27.1856399,24 27.5566349,24 C27.9276298,24 28.2285714,24.2943033 28.2285714,24.6571148 C28.2285714,26.7131839 27.3759856,28.5763032 25.9986667,29.9233782 C24.6183967,31.2703158 22.7146584,32.1052632 20.6149532,32.1052632 C18.5124375,32.1052632 16.6073642,31.2716214 15.2299047,29.9232408 C13.8524453,28.5763032 13,26.7146269 13,24.6571148 Z" id="Shape"></path>
                        <path d="M7.60075998,33.1875764 C7.2691264,33.1875764 7,32.9216214 7,32.5938192 C7,32.265955 7.26906358,32 7.60075998,32 C9.05249715,32 10.3665929,32.5814001 11.31777,33.5215881 C12.2676907,34.4605341 12.8571429,35.7607517 12.8571429,37.1956544 C12.8571429,37.5234566 12.5880793,37.7894737 12.2563829,37.7894737 C11.9246865,37.7894737 11.6556229,37.5235187 11.6556229,37.1956544 C11.6556229,36.0884917 11.2013621,35.0864567 10.4679236,34.3615539 C9.73454788,33.6365889 8.71960714,33.1875764 7.60075998,33.1875764 Z" id="Shape"></path>
                        <path d="M33.2564457,32 C33.5880165,32 33.8571429,32.265955 33.8571429,32.5938192 C33.8571429,32.9216214 33.5868229,33.1875764 33.2564457,33.1875764 C32.1350229,33.1875764 31.1214014,33.6354091 30.3891564,34.35907 C29.6545871,35.0852148 29.2014571,36.0872498 29.2014571,37.1956544 C29.2014571,37.5234566 28.9324564,37.7894737 28.60076,37.7894737 C28.2690636,37.7894737 28,37.5235187 28,37.1956544 C28,35.7643532 28.5881957,34.4654396 29.5394357,33.5240719 C30.4943821,32.5814001 31.8084778,32 33.2564457,32 Z" id="Shape"></path>
                        <path d="M23.5104808,16.3431219 L17.0409765,9.73883624 C16.8886514,9.58333773 16.6443565,9.58333773 16.4920314,9.73883624 C16.3397064,9.89433475 16.3397064,10.1437191 16.4920314,10.2992177 L22.6856262,16.6218456 L16.4920314,22.9444736 C16.3397064,23.0999721 16.3397064,23.3493565 16.4920314,23.504855 C16.5667569,23.5811373 16.667349,23.6222124 16.7650669,23.6222124 C16.8627849,23.6222124 16.9633769,23.5840712 17.0381024,23.504855 L23.5076067,16.9005694 C23.6599318,16.7480048 23.6599318,16.4956865 23.5104808,16.3431219 Z" id="Shape" stroke="#4286C6" stroke-width="0.5" transform="translate(20.000000, 16.622212) rotate(-90.000000) translate(-20.000000, -16.622212) "></path>
                    </g>
                </g>
            </g>
        </g>
    </g>
</svg>
