<?xml version="1.0" encoding="UTF-8"?>
<svg width="100px" height="100px" viewBox="0 0 100 100" version="1.1" xmlns="http://www.w3.org/2000/svg" xmlns:xlink="http://www.w3.org/1999/xlink">
    <!-- Generator: Sketch 45.2 (43514) - http://www.bohemiancoding.com/sketch -->
    <title>ui/icn-downloadapp</title>
    <desc>Created with Sketch.</desc>
    <defs></defs>
    <g id="Page-1" stroke="none" stroke-width="1" fill-rule="evenodd">
        <g id="ui/icn-downloadapp" fill-rule="nonzero" >
            <g id="Icons-/-Glyph-/-downloadapp" transform="translate(20.000000, 5.000000)">
                <path d="M58.6090345,0 L2.0658043,0 C1.0548723,0 0.23495854,0.819913761 0.23495854,1.83084576 L0.23495854,88.1375253 C0.23495854,89.1484573 1.0548723,89.968371 2.0658043,89.968371 L58.6093397,89.968371 C59.6202717,89.968371 60.4401855,89.1484573 60.4401855,88.1375253 L60.4401855,1.83084576 C60.4398803,0.819913761 59.6202717,0 58.6090345,0 Z M56.7781888,3.66169152 L56.7781888,74.0937177 L3.89665006,74.0937177 L3.89665006,15.8743482 L50.4767228,15.8743482 C51.4876548,15.8743482 52.3075686,15.0544344 52.3075686,14.0435024 C52.3075686,13.0325704 51.4876548,12.2126567 50.4767228,12.2126567 L3.89665006,12.2126567 L3.89665006,3.66169152 L56.7781888,3.66169152 Z M3.89665006,86.3066795 L3.89665006,77.7557144 L56.7784939,77.7557144 L56.7784939,86.3066795 L3.89665006,86.3066795 Z" id="Shape"></path>
                <path d="M30.3374194,53.2229915 C31.3483514,53.2229915 32.1682652,52.4030777 32.1682652,51.3921457 L32.1682652,29.280106 C32.1682652,28.269174 31.3483514,27.4492602 30.3374194,27.4492602 C29.3264874,27.4492602 28.5065737,28.269174 28.5065737,29.280106 L28.5065737,51.3921457 C28.5065737,52.4030777 29.3261823,53.2229915 30.3374194,53.2229915 Z" id="Shape"></path>
                <path d="M38.9683315,49.4682319 L30.3374194,58.0988389 L21.7065074,49.4682319 C20.9918672,48.7535918 19.8323316,48.7532867 19.1173863,49.4685371 C18.402441,50.1834823 18.402441,51.3427129 19.1176915,52.0576581 L29.0430115,61.982673 C29.4003315,62.3399931 29.8690281,62.5188057 30.3374194,62.5188057 C30.8058108,62.5188057 31.2745073,62.3399931 31.6318274,61.982673 L41.5571474,52.0576581 C42.2723978,51.3424077 42.2723978,50.1831772 41.5574525,49.4685371 C40.8425073,48.7538969 39.6832768,48.7532867 38.9683315,49.4682319 Z" id="Shape"></path>
            </g>
        </g>
    </g>
</svg>