<?xml version="1.0" encoding="UTF-8"?>
<svg width="95px" height="95px" viewBox="0 0 95 95" version="1.1" xmlns="http://www.w3.org/2000/svg" xmlns:xlink="http://www.w3.org/1999/xlink">
    <!-- Generator: Sketch 46.2 (44496) - http://www.bohemiancoding.com/sketch -->
    <title>ui/icn-geometric-layers</title>
    <desc>Created with Sketch.</desc>
    <defs>
        <linearGradient x1="50%" y1="-17.958545%" x2="50%" y2="96.1329159%" id="linearGradient-1">
            <stop stop-color="#68E0CF" offset="0%"></stop>
            <stop stop-color="#209CFF" offset="100%"></stop>
        </linearGradient>
        <linearGradient x1="70.5967665%" y1="111.611651%" x2="50%" y2="0%" id="linearGradient-2">
            <stop stop-color="#68E0CF" offset="0%"></stop>
            <stop stop-color="#209CFF" offset="100%"></stop>
        </linearGradient>
    </defs>
    <g id="Exportable" stroke="none" stroke-width="1" fill="none" fill-rule="evenodd">
        <g id="ui/icn-geometric-layers">
            <g id="Page-1" transform="translate(22.000000, 20.000000)">
                <path d="M24.9419,17.3816 C26.3229,17.3816 27.4419,18.5006 27.4419,19.8816 C27.4419,21.2626 26.3229,22.3816 24.9419,22.3816 C23.5609,22.3816 22.4419,21.2626 22.4419,19.8816 C22.4419,18.5006 23.5609,17.3816 24.9419,17.3816 M24.9419,23.3816 C26.8749,23.3816 28.4419,21.8146 28.4419,19.8816 C28.4419,17.9486 26.8749,16.3816 24.9419,16.3816 C23.0089,16.3816 21.4419,17.9486 21.4419,19.8816 C21.4419,21.8146 23.0089,23.3816 24.9419,23.3816" id="Fill-1" fill="#5FD7D4"></path>
                <path d="M42.7391,32.7696 L41.8091,33.3626 L24.7351,44.2466 L8.3491,33.3626 L7.4451,32.7626 L1.8071,29.0166 L7.4451,25.2716 L13.0841,29.0166 L13.9871,29.6176 L21.2081,34.4136 C20.9121,34.9276 20.7291,35.5166 20.7291,36.1526 C20.7291,38.0856 22.2961,39.6526 24.2291,39.6526 C26.1621,39.6526 27.7291,38.0856 27.7291,36.1526 C27.7291,35.7356 27.6441,35.3426 27.5111,34.9716 L35.9221,29.6096 L36.8521,29.0166 L42.7391,25.2646 L48.6261,29.0166 L42.7391,32.7696 Z M48.6261,37.7076 L24.7351,52.9376 L1.8071,37.7076 L7.4451,33.9626 L24.7241,45.4396 L42.7391,33.9546 L48.6261,37.7076 Z M26.7291,36.1526 C26.7291,37.5326 25.6101,38.6526 24.2291,38.6526 C22.8491,38.6526 21.7291,37.5326 21.7291,36.1526 C21.7291,35.7206 21.8491,35.3206 22.0411,34.9666 C22.2041,34.6666 22.4231,34.4066 22.6891,34.1966 C23.1151,33.8606 23.6451,33.6526 24.2291,33.6526 C25.0321,33.6526 25.7381,34.0366 26.1951,34.6246 C26.4011,34.8886 26.5541,35.1926 26.6411,35.5266 C26.6931,35.7276 26.7291,35.9346 26.7291,36.1526 L26.7291,36.1526 Z M1.8071,20.3256 L21.8231,7.0306 C22.4501,7.6286 23.2951,7.9996 24.2291,7.9996 C25.3861,7.9996 26.4041,7.4316 27.0411,6.5666 L48.6261,20.3256 L42.7391,24.0786 L41.8091,24.6716 L35.9221,28.4236 L34.9921,29.0166 L27.0411,34.0856 C26.4041,33.2206 25.3861,32.6526 24.2291,32.6526 C23.2951,32.6526 22.4511,33.0236 21.8231,33.6206 L14.8911,29.0166 L13.9871,28.4166 L8.3491,24.6716 L7.4451,24.0716 L1.8071,20.3256 Z M21.7291,4.4996 C21.7291,3.1196 22.8491,1.9996 24.2291,1.9996 C25.6101,1.9996 26.7291,3.1196 26.7291,4.4996 C26.7291,4.7176 26.6931,4.9246 26.6411,5.1256 C26.5541,5.4596 26.4011,5.7626 26.1951,6.0276 C25.7381,6.6156 25.0321,6.9996 24.2291,6.9996 C23.6451,6.9996 23.1151,6.7916 22.6891,6.4556 C22.4231,6.2456 22.2041,5.9846 22.0411,5.6856 C21.8481,5.3306 21.7291,4.9316 21.7291,4.4996 L21.7291,4.4996 Z M43.6691,24.6716 L50.4851,20.3256 L27.5111,5.6796 C27.6441,5.3096 27.7291,4.9166 27.7291,4.4996 C27.7291,2.5666 26.1621,0.9996 24.2291,0.9996 C22.2961,0.9996 20.7291,2.5666 20.7291,4.4996 C20.7291,5.1356 20.9121,5.7246 21.2081,6.2386 L0.0001,20.3256 L6.5421,24.6716 L0.0001,29.0166 L6.5421,33.3626 L0.0001,37.7076 L24.7241,54.1306 L50.4851,37.7076 L43.6691,33.3626 L50.4851,29.0166 L43.6691,24.6716 Z" id="Fill-3" fill="url(#linearGradient-1)"></path>
            </g>
            <path d="M48,91 C24.2541542,91 5,71.7507274 5,48 C5,24.2492726 24.2541542,5 48,5 C71.7458458,5 91,24.2492726 91,48 C91,71.7507274 71.7458458,91 48,91 Z M48,89.6756667 C71.0310932,89.6756667 89.6971404,71.014352 89.6971404,48 C89.6971404,24.985648 71.0310932,6.32433329 48,6.32433329 C24.9689068,6.32433329 6.3028596,24.985648 6.3028596,48 C6.3028596,71.014352 24.9689068,89.6756667 48,89.6756667 Z" id="Oval-Copy-3" fill="url(#linearGradient-2)" fill-rule="nonzero"></path>
        </g>
    </g>
</svg>